<svg id="ZNAP_sticker" xmlns="http://www.w3.org/2000/svg" viewBox="0 0 170.08 170.08"><defs><style>.cls-1{fill:#fff;}.cls-2{fill:#50b18b;}.cls-3{fill:#ffc20e;}.cls-4{fill:#146f81;}.cls-5{fill:#f17528;}</style></defs><path class="cls-1" d="M137.18,69.82c-1.11-2.85-3.74-4.94-7.81-6.23-4.26-1.35-8.54-2.64-12.91-4l-3-.89,5.18-9.32c4-7.11,8-14.47,12-21.74,1.81-3.31,2.21-6.29,1.19-8.86s-3.45-4.54-7.16-5.76l-1.13-.37c-5.36-1.75-10.9-3.56-16.49-5a17.71,17.71,0,0,0-4.42-.58,12,12,0,0,0-4.59.83c-8,3.33-16.17,6.85-24,10.26l-.08,0c-4.67,2-9.5,4.12-14.25,6.15a14.8,14.8,0,0,0-8.61,9.48C47.41,45.41,43.6,57.16,39.92,68.52l-.09.28L33.29,89c-2.59,8,.07,13.44,7.91,16,4.58,1.51,9.3,2.86,13.91,4.18l3.16.91-.39,2.22c-1.88,10.72-3.52,20-5.23,29.68-1,5.71-.84,12,8.19,15.09,6.24,2.15,12.44,3.89,17.69,5.3a14.22,14.22,0,0,0,3.76.56c4.84,0,7.34-3.38,8.81-5.92,14.35-24.91,29.62-51.4,44.58-77.47C137.78,75.94,138.28,72.65,137.18,69.82Zm-8.27,5.46Q119.51,91.72,110,108.14q-11.7,20.34-23.39,40.69c-2.5,4.35-4.35,5.17-9.17,3.77q-7.53-2.19-15-4.46c-3.86-1.17-5.37-3.43-4.7-7.47,1.92-11.59,4-23.16,6-34.73.13-.72.19-1.45.29-2.27-6.37-.11-11.78-2.9-17.55-4.3-1-.26-2.08-.62-3.11-1C39.11,97,37.69,94.25,39,90q6.33-19.69,12.68-39.37c1.58-4.89,3.21-9.77,4.71-14.68a9.71,9.71,0,0,1,5.82-6.45q18.44-7.84,36.8-15.84a8.42,8.42,0,0,1,6.18-.31c5.06,1.58,10.18,3,15.25,4.53,4.26,1.3,5.53,4.69,3.34,8.62q-9.09,16.36-18.17,32.76c-.31.56-.56,1.15-.86,1.77,6.34,0,11.79,2.92,17.64,4.27a30.3,30.3,0,0,1,2.91.87C129.94,67.71,131.3,71.11,128.91,75.28Z"/><path class="cls-2" d="M125.34,66.2a30.3,30.3,0,0,0-2.91-.87c-5.85-1.35-11.3-4.3-17.64-4.27.3-.62.55-1.21.86-1.77q9.07-16.38,18.17-32.76c2.19-3.93.92-7.32-3.34-8.62-5.07-1.54-10.19-2.95-15.25-4.53a8.42,8.42,0,0,0-6.18.31q-18.36,8-36.8,15.84A9.71,9.71,0,0,0,56.43,36c-1.5,4.91-3.13,9.79-4.71,14.68Q45.39,70.34,39,90c-1.35,4.22.07,7,4.28,8.37,1,.35,2.06.71,3.11,1,5.77,1.4,11.18,4.19,17.55,4.3-.1.82-.16,1.55-.29,2.27-2,11.57-4,23.14-6,34.73-.67,4,.84,6.3,4.7,7.47q7.5,2.28,15,4.46c4.82,1.4,6.67.58,9.17-3.77Q98.31,128.47,110,108.14q9.45-16.42,18.88-32.86C131.3,71.11,129.94,67.71,125.34,66.2Zm-15.59,1.52-3.67,6.38L87.49,106.42,65.15,145.26a3.39,3.39,0,0,1-3,1.74,3.59,3.59,0,0,1-2.71-1.25,3.38,3.38,0,0,1-.72-2.79l9-51.78a.67.67,0,0,0-.14-.56.75.75,0,0,0-.54-.26.47.47,0,0,0-.17,0l-.14,0-23,5.8a3.7,3.7,0,0,1-.87.11A3.52,3.52,0,0,1,40,94.87a3.48,3.48,0,0,1-.5-3.15L57.87,34.77a6.27,6.27,0,0,1,3.49-3.83l39.56-17a2.85,2.85,0,0,1,1.14-.24,2.89,2.89,0,0,1,2.46,1.42,2.81,2.81,0,0,1,0,2.83L95.87,33.56l-19,34.33L106.48,63a3.23,3.23,0,0,1,.53,0,3.19,3.19,0,0,1,2.74,1.59A3.15,3.15,0,0,1,109.75,67.72Z"/><path class="cls-3" d="M78.37,85.29a1.75,1.75,0,0,1-1.75-1.65l-.26-3.86A2.31,2.31,0,0,1,76.94,78l1.54-1.71a1.71,1.71,0,0,1,1.21-.58h0a1.8,1.8,0,0,1,1.24.43l1.68,1.48a2.33,2.33,0,0,1,.8,1.63l.26,3.89A1.74,1.74,0,0,1,82.05,85l-3.6.25Z"/><path class="cls-1" d="M79.79,77.23a.25.25,0,0,1,.17.07l1.66,1.48a.78.78,0,0,1,.31.6l.26,3.89a.26.26,0,0,1-.24.28l-3.56.24h0a.25.25,0,0,1-.25-.25l-.26-3.86a.81.81,0,0,1,.21-.66l1.53-1.7a.24.24,0,0,1,.17-.09h0m0-3h-.22a3.14,3.14,0,0,0-2.21,1.09L75.84,77a3.87,3.87,0,0,0-1,2.87l.26,3.87a3.24,3.24,0,0,0,3.25,3h.23l3.55-.24a3.23,3.23,0,0,0,3-3.47l-.26-3.89a3.8,3.8,0,0,0-1.32-2.66L82,75.06a3.23,3.23,0,0,0-2.16-.83Z"/><path class="cls-3" d="M83.34,44.4A2.35,2.35,0,0,1,81.2,43a2.32,2.32,0,0,1-.07-1.79,2.29,2.29,0,0,1,1.21-1.31,2.23,2.23,0,0,1,1-.22,2.52,2.52,0,0,1,.82.14,2.34,2.34,0,0,1,1.31,1.22,2.35,2.35,0,0,1-1.14,3.11,2.29,2.29,0,0,1-1,.21Z"/><path class="cls-1" d="M83.32,41.22a1,1,0,0,1,.3.05.88.88,0,0,1,.47.44.84.84,0,0,1,0,.64.9.9,0,0,1-.44.48.8.8,0,0,1-.34.07.86.86,0,0,1-.78-.49.83.83,0,0,1,0-.64A.8.8,0,0,1,83,41.3a.77.77,0,0,1,.35-.08m0-3a3.84,3.84,0,0,0-1.6.35,3.78,3.78,0,0,0-2,2.17,3.84,3.84,0,1,0,7.21,2.65,3.85,3.85,0,0,0-3.61-5.17Z"/><path class="cls-3" d="M73.37,121.22a2.46,2.46,0,0,1-.6-.07,2.35,2.35,0,0,1-.59-4.29,2.29,2.29,0,0,1,1.17-.32,2.38,2.38,0,0,1,2,1.16,2.35,2.35,0,0,1-.85,3.21A2.38,2.38,0,0,1,73.37,121.22Z"/><path class="cls-1" d="M73.35,118a.84.84,0,0,1,.74.42.78.78,0,0,1,.09.63.85.85,0,0,1-.39.52.8.8,0,0,1-.42.11l-.22,0a.85.85,0,0,1-.6-1,.89.89,0,0,1,.39-.52.87.87,0,0,1,.41-.11m0-3a3.81,3.81,0,0,0-3.7,2.87,3.85,3.85,0,0,0,2.74,4.69,4,4,0,0,0,1,.12,3.84,3.84,0,1,0,0-7.68Z"/><path class="cls-3" d="M104.93,73.44l3.67-6.38A1.86,1.86,0,0,0,107,64.28a1.63,1.63,0,0,0-.31,0l-31.54,5.2-.82.13L94.72,32.92l8.67-15.64A1.53,1.53,0,0,0,102.06,15a1.57,1.57,0,0,0-.62.13l-39.56,17a5,5,0,0,0-2.75,3l-18.38,57A2.2,2.2,0,0,0,42.83,95a2.13,2.13,0,0,0,.55-.07l23-5.79.13,0a2.2,2.2,0,0,1,.5-.06h0a2,2,0,0,1,2,2.37l-9,51.77a2.11,2.11,0,0,0,2.13,2.49A2,2,0,0,0,64,144.6l22.34-38.84ZM89.35,36.92a.59.59,0,0,1-.1.17s0,0,0,0a.53.53,0,0,1-.14.12l0,0-.15.07h0l-.18,0h0a.62.62,0,0,1-.23,0l-.74-.28-.28.75a.91.91,0,0,1-.09.17l0,0a.86.86,0,0,1-.14.13h0a.69.69,0,0,1-.15.07h0a.52.52,0,0,1-.18,0h0a.57.57,0,0,1-.22,0,.7.7,0,0,1-.42-.91l.27-.74-.74-.28a.69.69,0,0,1-.42-.9.61.61,0,0,1,.09-.18l0,0a.58.58,0,0,1,.14-.13h0a.52.52,0,0,1,.15-.07l0,0,.19,0h0a.57.57,0,0,1,.22,0l.75.27.27-.74a1,1,0,0,1,.1-.18l0,0a.8.8,0,0,1,.13-.13h0a.51.51,0,0,1,.15-.07l0,0,.18,0h0a.57.57,0,0,1,.22,0,.7.7,0,0,1,.42.9l-.28.75.75.27A.71.71,0,0,1,89.35,36.92ZM85.17,27a.61.61,0,0,1,.09-.18l0,0a.58.58,0,0,1,.14-.13h0a.52.52,0,0,1,.15-.07l0,0,.19,0h0a.57.57,0,0,1,.22,0l.75.27.27-.74a1,1,0,0,1,.1-.18l0,0,.13-.13h0l.15-.07,0,0,.18,0h0a.57.57,0,0,1,.22,0,.7.7,0,0,1,.42.9l-.28.75.75.27a.71.71,0,0,1,.42.91.59.59,0,0,1-.1.17s0,0,0,0a.53.53,0,0,1-.14.12l0,0-.15.07h0a.57.57,0,0,1-.18,0h0a.62.62,0,0,1-.23,0l-.74-.28-.28.75a.68.68,0,0,1-.09.17l0,0a.86.86,0,0,1-.14.13h0a.69.69,0,0,1-.15.07h0a.52.52,0,0,1-.18,0h0a.57.57,0,0,1-.22,0,.7.7,0,0,1-.42-.91l.27-.74-.74-.28A.69.69,0,0,1,85.17,27Zm-4,14.29A2.23,2.23,0,0,1,82.38,40a1.53,1.53,0,0,1,.41-.14h0a2.76,2.76,0,0,1,.4-.06h.1a2.07,2.07,0,0,1,.35,0h.07l.31.08.1,0,.3.14,0,0a1.91,1.91,0,0,1,.32.24l.07.07a2.09,2.09,0,0,1,.2.22l.07.09a2.12,2.12,0,0,1,.21.36,2.23,2.23,0,0,1,.07,1.72,2.28,2.28,0,0,1-1.17,1.27,2,2,0,0,1-.39.13l0,0a2.6,2.6,0,0,1-.39.05h-.12l-.23,0-.14,0a1.89,1.89,0,0,1-.41-.1,2.26,2.26,0,0,1-1.34-2.9ZM67.29,82.62l-1.23,0h-.19l-.08,0-.05,0-.07,0,0,0a.86.86,0,0,1-.07-.1l-5.19-8.82a.3.3,0,0,0-.09-.1h-.1s0,0-.06,0v0a.17.17,0,0,0,0,.13l.31,8.78a.38.38,0,0,1-.35.38L56.91,83h0l-.07,0h-.06l-.07,0,0,0s0,0-.06-.07,0,0,0,0a.32.32,0,0,1,0-.14L56,66.47A1.26,1.26,0,0,1,57.33,65L58.76,65H59l.1,0,.06,0,.09.06,0,0a1,1,0,0,1,.12.15l4.81,8.33a.38.38,0,0,0,.09.09h0a.09.09,0,0,0,.07,0h0a.11.11,0,0,0,.07-.06h0a.28.28,0,0,0,0-.13l-.3-8.38a.34.34,0,0,1,.32-.37l3.15-.11h.14l.07,0,0,0,.05.07,0,0a.74.74,0,0,1,0,.14l.57,16.17A1.26,1.26,0,0,1,67.29,82.62ZM63.49,60.4c-1.23-.2-1.64-.77-1.45-2l.4-2.51a2.3,2.3,0,0,1,.64-1.25l9.55-10.23c.2-.22.11-.29-.13-.33L65.5,43a.57.57,0,0,1-.52-.72l.47-2.94a.82.82,0,0,1,.08-.25l0-.05a.53.53,0,0,1,.09-.11l.07,0,.12-.05h.31l10.69,1.7c1.28.2,1.65.7,1.44,2l-.38,2.42a1.42,1.42,0,0,1-.36.86L67.4,56.36c-.12.14-.14.32.16.37L75.21,58a.55.55,0,0,1,.51.71l-.47,3a.82.82,0,0,1-.08.25l0,.06-.09.11-.07,0-.12,0h-.31Zm8.83,65.4a.66.66,0,0,1-.09.19s0,0,0,0a.64.64,0,0,1-.13.15l0,0-.18.1h0a.64.64,0,0,1-.2,0h0a.44.44,0,0,1-.16,0l-.77-.2-.2.77a.72.72,0,0,1-.09.2l0,0a.62.62,0,0,1-.14.14l0,0a.59.59,0,0,1-.17.1h0a.69.69,0,0,1-.2,0h0a.44.44,0,0,1-.16,0,.7.7,0,0,1-.51-.86l.21-.77-.77-.2a.7.7,0,0,1-.51-.86.72.72,0,0,1,.09-.2l0,0a.62.62,0,0,1,.14-.14l0,0a.52.52,0,0,1,.18-.1h0a.69.69,0,0,1,.2,0h0l.16,0,.77.21.21-.77a.6.6,0,0,1,.08-.2s0,0,0,0a.62.62,0,0,1,.14-.14l0,0a.61.61,0,0,1,.18-.09h0l.19,0h0l.17,0a.71.71,0,0,1,.5.86l-.2.77.77.21A.71.71,0,0,1,72.32,125.8Zm3.23-6.35a2.31,2.31,0,0,1-1,1.38,2.48,2.48,0,0,1-.37.17L74,121a1.72,1.72,0,0,1-.38.08h-.49a2.38,2.38,0,0,1-.37-.06h0l-.36-.13a.2.2,0,0,0-.08,0,1.85,1.85,0,0,1-.33-.21h0a1.69,1.69,0,0,1-.28-.26.46.46,0,0,1-.07-.07,2.52,2.52,0,0,1-.24-.33,2.23,2.23,0,0,1-.23-1.71,2.26,2.26,0,0,1,1-1.38,2.32,2.32,0,0,1,.36-.16l.09,0a2.22,2.22,0,0,1,.37-.09h0a1.51,1.51,0,0,1,.3,0h.19a2.63,2.63,0,0,1,.39.06,2.26,2.26,0,0,1,1.61,2.75Zm6.07-16.21c0,.14-.06.29-.1.43s0,.08,0,.13,0,.19-.08.28,0,.1-.05.15l-.09.24-.06.15-.11.23A.83.83,0,0,1,81,105c0,.08-.08.16-.13.24l-.06.1a3.46,3.46,0,0,1-.22.31l0,.05-.21.22-.09.09-.18.16-.12.09-.19.13-.12.08-.22.11-.13.06-.27.1-.1,0-.4.1h-.11l-.33,0h-.45l-.41,0-.19,0a5.13,5.13,0,0,1-.65-.1L75,106.48h-.15l-.06,0h0l0,0s0,0,0,0a.28.28,0,0,0,0,.11l-.82,4.06a.88.88,0,0,1,0,.15l0,0-.06.07,0,0a.13.13,0,0,1-.08,0h-.2l-2.15-.44a.35.35,0,0,1-.31-.46l1.87-9.24c0-.16.06-.3.1-.45s0-.08,0-.13,0-.19.08-.28,0-.1.05-.14a2,2,0,0,1,.1-.26.61.61,0,0,1,0-.12c0-.1.09-.19.13-.28a.25.25,0,0,1,0-.07,3.21,3.21,0,0,1,.19-.31.35.35,0,0,0,0-.08l.16-.2.09-.09a1.21,1.21,0,0,1,.16-.16l.09-.08.2-.15.08-.06.3-.17.06,0,.28-.11.12,0,.25-.06.14,0,.28,0H76a2.82,2.82,0,0,1,.42,0h0a3.77,3.77,0,0,1,.47,0H77l.38,0,.15,0,.56.1C81.83,98.51,82.09,100.9,81.62,103.24Zm1.62-12.15h-.15l-.09,0a.31.31,0,0,1-.1,0s-.05,0-.06,0a.44.44,0,0,1-.08-.1l0-.05a1.08,1.08,0,0,1,0-.21l-.22-3.27a.36.36,0,0,0,0-.11l0,0a.1.1,0,0,0,0,0l0,0,0,0h-.11l-3.56.24a.23.23,0,0,0-.24.27l.22,3.27a.45.45,0,0,1-.48.55l-2.88.2H75.1l-.09,0a.31.31,0,0,1-.1,0l-.06,0a.26.26,0,0,1-.07-.1s0,0,0,0a.46.46,0,0,1,0-.21l-.75-11a4.08,4.08,0,0,1,1.14-3.28l2.9-3.3a2.08,2.08,0,0,1,1.49-.7h.58l.07,0,.12,0,.08,0,.11,0,.08,0,.12,0,.07,0,.12.08.07,0,.18.15,3.21,2.83a4.19,4.19,0,0,1,1.56,3.12l.75,11a.46.46,0,0,1-.48.55Z"/><path class="cls-1" d="M107,63a3.23,3.23,0,0,0-.53,0L76.83,67.89l19-34.33,8.68-15.64a2.81,2.81,0,0,0,0-2.83,2.89,2.89,0,0,0-2.46-1.42,2.85,2.85,0,0,0-1.14.24l-39.56,17a6.27,6.27,0,0,0-3.49,3.83l-18.38,57a3.48,3.48,0,0,0,.5,3.15,3.52,3.52,0,0,0,2.84,1.46,3.7,3.7,0,0,0,.87-.11l23-5.8.14,0a.47.47,0,0,1,.17,0,.75.75,0,0,1,.54.26.67.67,0,0,1,.14.56l-9,51.78a3.38,3.38,0,0,0,.72,2.79A3.59,3.59,0,0,0,62.2,147a3.39,3.39,0,0,0,3-1.74l22.34-38.84L106.08,74.1l3.67-6.38a3.15,3.15,0,0,0,0-3.17A3.19,3.19,0,0,0,107,63ZM62.2,145.67a2.11,2.11,0,0,1-2.13-2.49l9-51.77a2,2,0,0,0-2-2.37h0a2.2,2.2,0,0,0-.5.06l-.13,0-23,5.79a2.13,2.13,0,0,1-.55.07,2.2,2.2,0,0,1-2.08-2.87L59.13,35.18a5,5,0,0,1,2.75-3l39.56-17a1.57,1.57,0,0,1,.62-.13,1.53,1.53,0,0,1,1.33,2.28L94.72,32.92,74.34,69.64l.82-.13,31.54-5.2a1.63,1.63,0,0,1,.31,0,1.86,1.86,0,0,1,1.59,2.78l-3.67,6.38L86.34,105.76,64,144.6A2,2,0,0,1,62.2,145.67Z"/><path class="cls-1" d="M87,38.23h0Z"/><path class="cls-1" d="M70.13,123.24l0,0Z"/><path class="cls-1" d="M83.74,39.85l.31.08Z"/><path class="cls-1" d="M70.57,123.08h0Z"/><path class="cls-1" d="M84.15,40l.3.14Z"/><path class="cls-1" d="M70.34,123.12h0Z"/><path class="cls-1" d="M83.32,39.81h0a2.6,2.6,0,0,1,.4,0A2.07,2.07,0,0,0,83.32,39.81Z"/><path class="cls-1" d="M74.5,120.83a2.48,2.48,0,0,1-.37.17A2.48,2.48,0,0,0,74.5,120.83Z"/><path class="cls-1" d="M82.38,40a1.53,1.53,0,0,1,.41-.14A1.53,1.53,0,0,0,82.38,40Z"/><path class="cls-1" d="M74,121a1.72,1.72,0,0,1-.38.08A1.72,1.72,0,0,0,74,121Z"/><path class="cls-1" d="M82.82,39.87a2.76,2.76,0,0,1,.4-.06A2.76,2.76,0,0,0,82.82,39.87Z"/><path class="cls-1" d="M68.73,124.15h0Z"/><path class="cls-1" d="M68.3,124.31l0,0Z"/><path class="cls-1" d="M84.27,44.11a2,2,0,0,1-.39.13A2,2,0,0,0,84.27,44.11Z"/><path class="cls-1" d="M68.14,124.48l0,0Z"/><path class="cls-1" d="M68.51,124.19Z"/><path class="cls-1" d="M85.16,40.76a2.12,2.12,0,0,1,.21.36A2.12,2.12,0,0,0,85.16,40.76Z"/><path class="cls-1" d="M81.35,104.23l-.09.24Z"/><path class="cls-1" d="M84.89,40.45a2.09,2.09,0,0,1,.2.22A2.09,2.09,0,0,0,84.89,40.45Z"/><path class="cls-1" d="M84.5,40.14a2.43,2.43,0,0,1,.32.24A1.91,1.91,0,0,0,84.5,40.14Z"/><path class="cls-1" d="M73.37,121.13h0Z"/><path class="cls-1" d="M88.65,29h0Z"/><path class="cls-1" d="M69.81,127.4h0Z"/><path class="cls-1" d="M73.55,116.64a2.63,2.63,0,0,1,.39.06A2.63,2.63,0,0,0,73.55,116.64Z"/><path class="cls-1" d="M87.29,29.57l0,0Z"/><path class="cls-1" d="M87.12,29.74h0Z"/><path class="cls-1" d="M88.88,28.93h0Z"/><path class="cls-1" d="M89.05,28.84l0,0Z"/><path class="cls-1" d="M89.21,28.68s0,0,0,0S89.2,28.69,89.21,28.68Z"/><path class="cls-1" d="M81.48,103.8c0,.09,0,.19-.08.28C81.43,104,81.46,103.89,81.48,103.8Z"/><path class="cls-1" d="M81.62,103.24c0,.14-.06.29-.1.43C81.56,103.53,81.59,103.38,81.62,103.24Z"/><path class="cls-1" d="M72.35,120.89a1.85,1.85,0,0,1-.33-.21A1.85,1.85,0,0,0,72.35,120.89Z"/><path class="cls-1" d="M86.72,29.86h0Z"/><path class="cls-1" d="M87,29.82h0Z"/><path class="cls-1" d="M73.17,121.12a2.38,2.38,0,0,1-.37-.06A2.38,2.38,0,0,0,73.17,121.12Z"/><path class="cls-1" d="M72.79,121.06l-.36-.13Z"/><path class="cls-1" d="M72.23,116.93a2.32,2.32,0,0,1,.36-.16A2.32,2.32,0,0,0,72.23,116.93Z"/><path class="cls-1" d="M72,120.68a1.69,1.69,0,0,1-.28-.26A1.69,1.69,0,0,0,72,120.68Z"/><path class="cls-1" d="M73.36,116.63a1.51,1.51,0,0,0-.3,0,2.55,2.55,0,0,1,.39,0Z"/><path class="cls-1" d="M72.68,116.74a2.22,2.22,0,0,1,.37-.09A2.22,2.22,0,0,0,72.68,116.74Z"/><path class="cls-1" d="M71.66,120.35a2.52,2.52,0,0,1-.24-.33A2.52,2.52,0,0,0,71.66,120.35Z"/><path class="cls-1" d="M70,123.41s0,0,0,0S70,123.4,70,123.41Z"/><path class="cls-1" d="M59.29,65.12a1,1,0,0,1,.12.15A1,1,0,0,0,59.29,65.12Z"/><path class="cls-1" d="M67.71,64.65h0Z"/><path class="cls-1" d="M70,127.36h0Z"/><path class="cls-1" d="M67.84,64.67l.07,0Z"/><path class="cls-1" d="M66,82.67h0a.48.48,0,0,1-.12,0Z"/><path class="cls-1" d="M64.34,73.7h0Z"/><path class="cls-1" d="M68,64.74l.05.07Z"/><path class="cls-1" d="M64.42,73.71h0Z"/><path class="cls-1" d="M68,64.85a.74.74,0,0,1,0,.14A.74.74,0,0,0,68,64.85Z"/><path class="cls-1" d="M64.5,73.64h0Z"/><path class="cls-1" d="M56.65,82.89s0,0-.06-.07S56.62,82.87,56.65,82.89Z"/><path class="cls-1" d="M56.57,82.78a.32.32,0,0,1,0-.14A.32.32,0,0,0,56.57,82.78Z"/><path class="cls-1" d="M60.12,73.57v0Z"/><path class="cls-1" d="M56.89,83h0l-.09,0Z"/><path class="cls-1" d="M59,65l.1,0Z"/><path class="cls-1" d="M65.87,82.65l-.08,0Z"/><path class="cls-1" d="M65.74,82.61l-.07,0Z"/><path class="cls-1" d="M58.83,65h0Z"/><path class="cls-1" d="M65.63,82.55a.86.86,0,0,1-.07-.1A.86.86,0,0,0,65.63,82.55Z"/><path class="cls-1" d="M59.16,65l.09.06Z"/><path class="cls-1" d="M74.69,62.16h0Z"/><path class="cls-1" d="M60.18,73.52h0Z"/><path class="cls-1" d="M72.08,126.17l0,0Z"/><path class="cls-1" d="M75,62.09l-.12,0Z"/><path class="cls-1" d="M56.76,83l-.07,0Z"/><path class="cls-1" d="M70.24,127.24l0,0Z"/><path class="cls-1" d="M71.87,126.29h0Z"/><path class="cls-1" d="M70.4,127.07l0,0Z"/><path class="cls-1" d="M71.64,126.32h0Z"/><path class="cls-1" d="M72.23,126s0,0,0,0S72.23,126,72.23,126Z"/><path class="cls-1" d="M83,44.28a1.89,1.89,0,0,1-.41-.1A1.89,1.89,0,0,0,83,44.28Z"/><path class="cls-1" d="M65.57,39a.53.53,0,0,1,.09-.11A.53.53,0,0,0,65.57,39Z"/><path class="cls-1" d="M65.45,39.31a.82.82,0,0,1,.08-.25A.82.82,0,0,0,65.45,39.31Z"/><path class="cls-1" d="M60.25,73.52h0Z"/><path class="cls-1" d="M83.84,44.26a2.6,2.6,0,0,1-.39.05A2.6,2.6,0,0,0,83.84,44.26Z"/><path class="cls-1" d="M83.33,44.32h.06a1.38,1.38,0,0,1-.29,0Z"/><path class="cls-1" d="M66,38.78h0Z"/><path class="cls-1" d="M75.25,61.63a.82.82,0,0,1-.08.25A.82.82,0,0,0,75.25,61.63Z"/><path class="cls-1" d="M65.73,38.85l.12-.05Z"/><path class="cls-1" d="M75.13,61.94l-.09.11Z"/><path class="cls-1" d="M83.18,91.09h0Z"/><path class="cls-1" d="M75.19,91.63h0Z"/><path class="cls-1" d="M74.74,106.51h0Z"/><path class="cls-1" d="M85.87,34.93h0Z"/><path class="cls-1" d="M74.1,98.28l.2-.15Z"/><path class="cls-1" d="M87.39,34.17h0Z"/><path class="cls-1" d="M82.3,87.11h0Z"/><path class="cls-1" d="M82.44,87.23l0,0Z"/><path class="cls-1" d="M82.84,91a.44.44,0,0,1-.08-.1A.44.44,0,0,0,82.84,91Z"/><path class="cls-1" d="M83,91.06a.31.31,0,0,1-.1,0A.31.31,0,0,0,83,91.06Z"/><path class="cls-1" d="M82.73,90.82a1.08,1.08,0,0,1,0-.21A1.08,1.08,0,0,0,82.73,90.82Z"/><path class="cls-1" d="M87.23,34.33l0,0Z"/><path class="cls-1" d="M75.53,97.64l.28,0Z"/><path class="cls-1" d="M75.14,97.73l.25-.06Z"/><path class="cls-1" d="M76,97.59a2.82,2.82,0,0,1,.42,0A2.82,2.82,0,0,0,76,97.59Z"/><path class="cls-1" d="M74.74,97.88l.28-.11Z"/><path class="cls-1" d="M74.38,98.07l.3-.17Z"/><path class="cls-1" d="M87.56,34.09l0,0Z"/><path class="cls-1" d="M77.54,97.66l.56.1Z"/><path class="cls-1" d="M77,97.6l.38,0Z"/><path class="cls-1" d="M87.8,34h0Z"/><path class="cls-1" d="M76.39,97.57h0a3.77,3.77,0,0,1,.47,0A3.77,3.77,0,0,0,76.39,97.57Z"/><path class="cls-1" d="M74.82,106.48h0Z"/><path class="cls-1" d="M80.52,73l.12,0Z"/><path class="cls-1" d="M88.69,37.38h0Z"/><path class="cls-1" d="M80.13,72.89l.12,0Z"/><path class="cls-1" d="M80.33,72.94l.11,0Z"/><path class="cls-1" d="M80.71,73.1l.12.08Z"/><path class="cls-1" d="M82.35,87.13l0,0Z"/><path class="cls-1" d="M85.64,35l0,0Z"/><path class="cls-1" d="M89.25,37.09s0,0,0,0S89.24,37.1,89.25,37.09Z"/><path class="cls-1" d="M80.9,73.22l.18.15Z"/><path class="cls-1" d="M87.33,38l0,0Z"/><path class="cls-1" d="M88.92,37.34h0Z"/><path class="cls-1" d="M89.09,37.25l0,0Z"/><path class="cls-1" d="M85.3,35.22l0,0Z"/><path class="cls-1" d="M74.85,91.51a.26.26,0,0,1-.07-.1A.26.26,0,0,0,74.85,91.51Z"/><path class="cls-1" d="M74.75,91.36a.46.46,0,0,1,0-.21A.46.46,0,0,0,74.75,91.36Z"/><path class="cls-1" d="M75,91.6a.31.31,0,0,1-.1,0A.31.31,0,0,0,75,91.6Z"/><path class="cls-1" d="M85.47,35.06h0Z"/><path class="cls-1" d="M79.68,72.85h0Z"/><path class="cls-1" d="M86.76,38.27h0Z"/><path class="cls-1" d="M79.93,72.86h0Z"/><path class="cls-1" d="M87.16,38.15h0Z"/><path class="cls-1" d="M79.67,72.84h0Z"/><path class="cls-1" d="M80.83,105.32a3.46,3.46,0,0,1-.22.31A3.46,3.46,0,0,0,80.83,105.32Z"/><path class="cls-1" d="M73.85,98.52a1.21,1.21,0,0,1,.16-.16A1.21,1.21,0,0,0,73.85,98.52Z"/><path class="cls-1" d="M78.94,106.75l-.4.1Z"/><path class="cls-1" d="M78.43,106.86l-.33,0Z"/><path class="cls-1" d="M79.31,106.62l-.27.1Z"/><path class="cls-1" d="M77.24,106.89l-.19,0Z"/><path class="cls-1" d="M87.19,25.92l0,0Z"/><path class="cls-1" d="M79.66,106.45l-.22.11Z"/><path class="cls-1" d="M77.73,106.91h0Z"/><path class="cls-1" d="M81,105c0,.08-.08.16-.13.24C80.94,105.14,81,105.06,81,105Z"/><path class="cls-1" d="M80,106.24l-.19.13Z"/><path class="cls-1" d="M85.83,26.52h0Z"/><path class="cls-1" d="M81.2,104.62l-.11.23Z"/><path class="cls-1" d="M87.76,25.63h0Z"/><path class="cls-1" d="M87.52,25.68l0,0Z"/><path class="cls-1" d="M80.27,106l-.18.16Z"/><path class="cls-1" d="M80.57,105.68l-.21.22Z"/><path class="cls-1" d="M87.35,25.76h0Z"/><path class="cls-1" d="M73,99.93a2,2,0,0,1,.1-.26A2,2,0,0,0,73,99.93Z"/><path class="cls-1" d="M73.36,99.2a3.21,3.21,0,0,1,.19-.31A3.21,3.21,0,0,0,73.36,99.2Z"/><path class="cls-1" d="M72.91,100.35c0-.09,0-.19.08-.28C73,100.16,72.93,100.26,72.91,100.35Z"/><path class="cls-1" d="M73.6,98.81l.16-.2Z"/><path class="cls-1" d="M74.7,106.56s0,0,0,0S74.69,106.57,74.7,106.56Z"/><path class="cls-1" d="M85.26,26.81l0,0Z"/><path class="cls-1" d="M73.19,99.55c0-.1.09-.19.13-.28C73.28,99.36,73.23,99.45,73.19,99.55Z"/><path class="cls-1" d="M73.47,111.08h0a.33.33,0,0,1-.14,0Z"/><path class="cls-1" d="M72.77,100.93c0-.16.06-.3.1-.45C72.83,100.63,72.8,100.77,72.77,100.93Z"/><path class="cls-1" d="M73.82,110.76a.88.88,0,0,1,0,.15A.88.88,0,0,0,73.82,110.76Z"/><path class="cls-1" d="M73.64,111a.13.13,0,0,1-.08,0A.13.13,0,0,0,73.64,111Z"/><path class="cls-1" d="M85.6,26.57l0,0Z"/><path class="cls-1" d="M85.43,26.65h0Z"/><path class="cls-1" d="M73.74,110.94l-.06.07Z"/><path class="cls-3" d="M77.28,105.66a4.83,4.83,0,0,1-.82-.08l-1.26-.26a1.7,1.7,0,0,1-1.39-2.07l.42-2.07c.32-1.59,1.18-2.39,2.55-2.39a5.23,5.23,0,0,1,1.08.13c2,.4,2.81,1.76,2.35,4s-2,2.71-2.93,2.71Z"/><path class="cls-1" d="M76.78,100.29a3.62,3.62,0,0,1,.79.1c1.33.27,1.42,1,1.17,2.26-.19.92-.57,1.51-1.46,1.51a3.37,3.37,0,0,1-.52,0l-1.26-.26c-.19,0-.26-.13-.22-.3l.42-2.07c.17-.87.44-1.19,1.08-1.19m0-3c-1,0-3.37.35-4,3.59L72.34,103a3.23,3.23,0,0,0,2.57,3.84l1.25.26a6.33,6.33,0,0,0,1.12.11,4.38,4.38,0,0,0,4.4-3.91,5.44,5.44,0,0,0-.17-3.26,4.29,4.29,0,0,0-3.35-2.54,6.72,6.72,0,0,0-1.38-.16Z"/><path class="cls-4" d="M74.75,62.15h.1l.12,0,.07,0,.09-.11,0-.06a.82.82,0,0,0,.08-.25l.47-3a.55.55,0,0,0-.51-.71l-7.65-1.22c-.3,0-.28-.23-.16-.37l10.15-10.6a1.42,1.42,0,0,0,.36-.86l.38-2.42c.21-1.29-.16-1.79-1.44-2l-10.69-1.7h-.31l-.12.05-.07,0a.53.53,0,0,0-.09.11l0,.05a.82.82,0,0,0-.08.25L65,42.25a.57.57,0,0,0,.52.72l7,1.11c.24,0,.33.11.13.33L63.08,54.64a2.3,2.3,0,0,0-.64,1.25L62,58.4c-.19,1.23.22,1.8,1.45,2l11.05,1.75Z"/><path class="cls-4" d="M68,64.85l0,0L68,64.74l0,0-.07,0H67.7l-3.15.11a.34.34,0,0,0-.32.37l.3,8.38a.28.28,0,0,1,0,.13h0a.11.11,0,0,1-.07.06h0a.09.09,0,0,1-.07,0h0a.38.38,0,0,1-.09-.09l-4.81-8.33a1,1,0,0,0-.12-.15l0,0L59.16,65l-.06,0L59,65h-.24L57.33,65A1.26,1.26,0,0,0,56,66.47l.57,16.17a.32.32,0,0,0,0,.14s0,0,0,0,0,.05.06.07l0,0,.07,0h.06l.09,0,3.15-.11a.38.38,0,0,0,.35-.38l-.31-8.78a.17.17,0,0,1,0-.13v0s0,0,.06,0h.1a.3.3,0,0,1,.09.1l5.19,8.82a.86.86,0,0,0,.07.1l0,0,.07,0,.05,0,.08,0h.07a.48.48,0,0,0,.12,0l1.23,0a1.26,1.26,0,0,0,1.36-1.46L68.08,65A.74.74,0,0,0,68,64.85Z"/><path class="cls-4" d="M86.6,90.34l-.75-11a4.19,4.19,0,0,0-1.56-3.12l-3.21-2.83-.18-.15-.07,0-.12-.08-.07,0-.12,0-.08,0-.11,0-.08,0-.12,0-.07,0h-.58a2.08,2.08,0,0,0-1.49.7l-2.9,3.3A4.08,4.08,0,0,0,74,80.13l.75,11a.46.46,0,0,0,0,.21s0,0,0,0a.26.26,0,0,0,.07.1l.06,0a.31.31,0,0,0,.1,0l.09,0h.15l2.88-.2a.45.45,0,0,0,.48-.55l-.22-3.27a.23.23,0,0,1,.24-.27l3.56-.24h.11l0,0,0,0a.1.1,0,0,1,0,0l0,0a.36.36,0,0,1,0,.11l.22,3.27a1.08,1.08,0,0,0,0,.21l0,.05a.44.44,0,0,0,.08.1s0,0,.06,0a.31.31,0,0,0,.1,0l.09,0h.15l2.88-.2A.46.46,0,0,0,86.6,90.34ZM80,77.3l1.66,1.48a.78.78,0,0,1,.31.6l.26,3.89a.26.26,0,0,1-.24.28l-3.56.24a.25.25,0,0,1-.27-.25l-.26-3.86a.81.81,0,0,1,.21-.66l1.53-1.7a.24.24,0,0,1,.17-.09A.28.28,0,0,1,80,77.3Z"/><path class="cls-4" d="M78.1,97.76l-.56-.1-.15,0-.38,0h-.15a3.77,3.77,0,0,0-.47,0h0a2.82,2.82,0,0,0-.42,0h-.14l-.28,0-.14,0-.25.06-.12,0-.28.11-.06,0-.3.17-.08.06-.2.15-.09.08a1.21,1.21,0,0,0-.16.16l-.09.09-.16.2a.35.35,0,0,1,0,.08,3.21,3.21,0,0,0-.19.31.25.25,0,0,0,0,.07c0,.09-.09.18-.13.28a.61.61,0,0,0,0,.12,2,2,0,0,0-.1.26s0,.09-.05.14-.06.19-.08.28,0,.09,0,.13-.07.29-.1.45l-1.87,9.24a.35.35,0,0,0,.31.46l2.15.44a.33.33,0,0,0,.14,0h.06a.13.13,0,0,0,.08,0l0,0,.06-.07,0,0a.88.88,0,0,0,0-.15l.82-4.06a.28.28,0,0,1,0-.11s0,0,0,0l0,0h0l.06,0H75l1.43.29a5.13,5.13,0,0,0,.65.1l.19,0,.41,0h.45l.33,0h.11l.4-.1.1,0,.27-.1.13-.06.22-.11.12-.08.19-.13.12-.09.18-.16.09-.09.21-.22,0-.05a3.46,3.46,0,0,0,.22-.31l.06-.1c0-.08.09-.16.13-.24a.83.83,0,0,0,.07-.13l.11-.23.06-.15.09-.24s0-.1.05-.15.06-.19.08-.28,0-.09,0-.13.07-.29.1-.43C82.09,100.9,81.83,98.51,78.1,97.76Zm.64,4.89c-.22,1.09-.71,1.71-2,1.46l-1.26-.26c-.19,0-.26-.13-.22-.3l.42-2.07c.23-1.16.63-1.34,1.87-1.09S79,101.4,78.74,102.65Z"/><path class="cls-5" d="M88.93,36l-.75-.27.28-.75a.7.7,0,0,0-.42-.9.57.57,0,0,0-.22,0h0l-.18,0,0,0a.51.51,0,0,0-.15.07h0a.8.8,0,0,0-.13.13l0,0a1,1,0,0,0-.1.18l-.27.74L86.11,35a.57.57,0,0,0-.22,0h0l-.19,0,0,0a.52.52,0,0,0-.15.07h0a.58.58,0,0,0-.14.13l0,0a.61.61,0,0,0-.09.18.69.69,0,0,0,.42.9l.74.28-.27.74a.7.7,0,0,0,.42.91.57.57,0,0,0,.22,0h0a.52.52,0,0,0,.18,0h0a.69.69,0,0,0,.15-.07h0A.86.86,0,0,0,87.3,38l0,0a.91.91,0,0,0,.09-.17l.28-.75.74.28a.62.62,0,0,0,.23,0h0l.18,0h0l.15-.07,0,0a.53.53,0,0,0,.14-.12s0,0,0,0a.59.59,0,0,0,.1-.17A.71.71,0,0,0,88.93,36Z"/><path class="cls-5" d="M85.59,27.89l.74.28-.27.74a.7.7,0,0,0,.42.91.57.57,0,0,0,.22,0h0a.52.52,0,0,0,.18,0h0a.69.69,0,0,0,.15-.07h0a.86.86,0,0,0,.14-.13l0,0a.68.68,0,0,0,.09-.17l.28-.75.74.28a.62.62,0,0,0,.23,0h0a.57.57,0,0,0,.18,0h0l.15-.07,0,0a.53.53,0,0,0,.14-.12s0,0,0,0a.59.59,0,0,0,.1-.17.71.71,0,0,0-.42-.91l-.75-.27.28-.75a.7.7,0,0,0-.42-.9.57.57,0,0,0-.22,0h0l-.18,0,0,0-.15.07h0l-.13.13,0,0a1,1,0,0,0-.1.18l-.27.74-.75-.27a.57.57,0,0,0-.22,0h0l-.19,0,0,0a.52.52,0,0,0-.15.07h0a.58.58,0,0,0-.14.13l0,0a.61.61,0,0,0-.09.18A.69.69,0,0,0,85.59,27.89Z"/><path class="cls-5" d="M82.55,44.18a1.89,1.89,0,0,0,.41.1l.14,0a1.38,1.38,0,0,0,.29,0h.06a2.6,2.6,0,0,0,.39-.05l0,0a2,2,0,0,0,.39-.13,2.28,2.28,0,0,0,1.17-1.27,2.23,2.23,0,0,0-.07-1.72,2.12,2.12,0,0,0-.21-.36l-.07-.09a2.09,2.09,0,0,0-.2-.22l-.07-.07a2.43,2.43,0,0,0-.32-.24l0,0-.3-.14-.1,0-.31-.08h-.07a2.6,2.6,0,0,0-.4,0h0a2.76,2.76,0,0,0-.4.06h0a1.53,1.53,0,0,0-.41.14,2.23,2.23,0,0,0-1.17,1.26,2.26,2.26,0,0,0,1.34,2.9Zm1.07-2.91a.88.88,0,0,1,.47.44.84.84,0,0,1,0,.64.9.9,0,0,1-.44.48.87.87,0,0,1-1.12-.42.83.83,0,0,1,0-.64A.8.8,0,0,1,83,41.3.86.86,0,0,1,83.62,41.27Z"/><path class="cls-5" d="M71.82,124.94l-.77-.21.2-.77a.71.71,0,0,0-.5-.86l-.17,0h0l-.19,0h0a.61.61,0,0,0-.18.09l0,0a.62.62,0,0,0-.14.14s0,0,0,0a.6.6,0,0,0-.08.2l-.21.77-.77-.21-.16,0h0a.69.69,0,0,0-.2,0h0a.52.52,0,0,0-.18.1l0,0a.62.62,0,0,0-.14.14l0,0a.72.72,0,0,0-.09.2.7.7,0,0,0,.51.86l.77.2-.21.77a.7.7,0,0,0,.51.86.44.44,0,0,0,.16,0h0a.69.69,0,0,0,.2,0h0a.59.59,0,0,0,.17-.1l0,0a.62.62,0,0,0,.14-.14l0,0a.72.72,0,0,0,.09-.2l.2-.77.77.2a.44.44,0,0,0,.16,0h0a.64.64,0,0,0,.2,0h0l.18-.1,0,0a.64.64,0,0,0,.13-.15s0,0,0,0a.66.66,0,0,0,.09-.19A.71.71,0,0,0,71.82,124.94Z"/><path class="cls-5" d="M73.94,116.7a2.63,2.63,0,0,0-.39-.06h-.1a2.55,2.55,0,0,0-.39,0h0a2.22,2.22,0,0,0-.37.09l-.09,0a2.32,2.32,0,0,0-.36.16,2.26,2.26,0,0,0-1,1.38,2.23,2.23,0,0,0,.23,1.71,2.52,2.52,0,0,0,.24.33.46.46,0,0,0,.07.07,1.69,1.69,0,0,0,.28.26h0a1.85,1.85,0,0,0,.33.21.2.2,0,0,1,.08,0l.36.13h0a2.38,2.38,0,0,0,.37.06h.49A1.72,1.72,0,0,0,74,121l.09,0a2.48,2.48,0,0,0,.37-.17,2.31,2.31,0,0,0,1-1.38,2.26,2.26,0,0,0-1.61-2.75Zm-.15,2.91a.84.84,0,0,1-1.24-.94.89.89,0,0,1,.39-.52.87.87,0,0,1,1.15.31.78.78,0,0,1,.09.63A.85.85,0,0,1,73.79,119.61Z"/></svg>