<svg id="ZNAP_sticker" xmlns="http://www.w3.org/2000/svg" viewBox="0 0 170.08 170.08"><defs><style>.cls-1{fill:#fff;}.cls-2{fill:#50b18b;}.cls-3{fill:#d1e2e6;}.cls-4{fill:#146f81;}.cls-5{fill:#ffc20e;}</style></defs><path class="cls-1" d="M90.85,11.28a51.35,51.35,0,0,0-27,7.66A52,52,0,0,0,57,24l-.21.18-.25.12A51.5,51.5,0,0,0,27.74,70.51v36.81a51.49,51.49,0,0,0,85.35,38.78l.21-.18.24-.13a51.52,51.52,0,0,0,28.8-46.22V62.76A51.47,51.47,0,0,0,90.85,11.28ZM141,99.57a50.44,50.44,0,0,1-28.45,45.24,50.18,50.18,0,0,1-83.53-37.49V70.51A50.44,50.44,0,0,1,57.51,25.26a51.65,51.65,0,0,1,7-5.22A50.2,50.2,0,0,1,141,62.76Z"/><path class="cls-1" d="M130.22,23.39a55.55,55.55,0,0,0-75.79-2.73A55.66,55.66,0,0,0,23.55,70.51v36.81a55.68,55.68,0,0,0,92.09,42.11,55.7,55.7,0,0,0,30.89-49.86V62.76A55.31,55.31,0,0,0,130.22,23.39Zm12.12,76.18a51.52,51.52,0,0,1-28.8,46.22l-.24.13-.21.18a51.49,51.49,0,0,1-85.35-38.78V70.51A51.5,51.5,0,0,1,56.52,24.29l.25-.12L57,24a52,52,0,0,1,6.84-5,51.49,51.49,0,0,1,78.52,43.82Z"/><path class="cls-1" d="M90.85,12.58A50.12,50.12,0,0,0,64.5,20a51.65,51.65,0,0,0-7,5.22A50.44,50.44,0,0,0,29.05,70.51v36.81a50.18,50.18,0,0,0,83.53,37.49A50.44,50.44,0,0,0,141,99.57V62.76A50.24,50.24,0,0,0,90.85,12.58Zm48.09,87a48.09,48.09,0,0,1-27.54,43.48A47.88,47.88,0,0,1,79.23,155.4h0a48.09,48.09,0,0,1-48.09-48.08V70.51A48.1,48.1,0,0,1,58.68,27a48.62,48.62,0,0,1,6.92-5.19,47.84,47.84,0,0,1,25.25-7.16h0a48.09,48.09,0,0,1,48.09,48.09Z"/><path class="cls-2" d="M90.85,14.67h0A47.84,47.84,0,0,0,65.6,21.83,48.62,48.62,0,0,0,58.68,27a47.9,47.9,0,0,1,20.55-4.6h0A48.1,48.1,0,0,1,126,59.47a35.71,35.71,0,0,1,8.78,1.6,2.62,2.62,0,0,1,1.5,3.75,41.1,41.1,0,0,1-9,10.8v31.7a48,48,0,0,1-15.91,35.73,48.09,48.09,0,0,0,27.54-43.48V62.76A48.09,48.09,0,0,0,90.85,14.67Z"/><path class="cls-3" d="M43.7,90.43a1.08,1.08,0,0,0-.79,0,1,1,0,0,0-.58,1.34,1,1,0,0,0,1.91,0,1.08,1.08,0,0,0,0-.79A1.06,1.06,0,0,0,43.7,90.43Z"/><path class="cls-3" d="M76,35.4c0,.14.06.19.21.18l1.31-.07c1.31-.06,1.64-.76,1.58-1.94s-.39-1.91-1.7-1.84-1.57.35-1.51,1.49Z"/><path class="cls-3" d="M66.57,38.77a.13.13,0,0,0,.19.1l2.63-.77a.14.14,0,0,0,.1-.19l-.8-2.73a.5.5,0,0,0-.28-.35l-1.52-.9a.24.24,0,0,0-.14,0,.18.18,0,0,0-.09.1l-.85,1.6a.54.54,0,0,0,0,.45Z"/><path class="cls-3" d="M111,124.78a2.18,2.18,0,0,0-.65-.85,2.07,2.07,0,0,0-1-.48,1.57,1.57,0,0,0-1,.14,3.1,3.1,0,0,0-1,.85l-1.23,1.47,3,2.45,1.23-1.48a3.25,3.25,0,0,0,.65-1.13A1.52,1.52,0,0,0,111,124.78Z"/><path class="cls-3" d="M127.31,107.32V75.62q-8.43,7.45-22.7,14.45l-5.1,12.71A7.56,7.56,0,0,1,95.32,107l-8.21,3.27a2.72,2.72,0,0,1-3.7-2.92l1.43-10-3.18-8-1.41-3.54L38.71,102.37a.84.84,0,0,1-.66,0,.85.85,0,0,1,0-1.59L79.68,84.34l-1.42-3.57-3.18-8-7.89-6.28a2.71,2.71,0,0,1,.69-4.65l8.22-3.27a7.49,7.49,0,0,1,5.91.16l12.43,5.74c12.52-3.89,23.08-5.56,31.6-5a48.1,48.1,0,0,0-46.81-37h0A48.06,48.06,0,0,0,31.14,70.51v36.81A48.09,48.09,0,0,0,79.23,155.4h0a48.08,48.08,0,0,0,48.08-48.08ZM111.9,44.17A4.92,4.92,0,0,1,115,50.83a7.08,7.08,0,0,1-1.94,2.59,6.83,6.83,0,0,1-2.8,1.59,4.75,4.75,0,0,1-5-1.49,4.77,4.77,0,0,1-1.19-2.45,5,5,0,0,1,.33-2.72,6.94,6.94,0,0,1,1.93-2.58,7,7,0,0,1,2.81-1.6A4.94,4.94,0,0,1,111.9,44.17ZM102.35,36l7.1,5-.72,1-3-2.09-5.93,8.44-1.14-.8,5.93-8.44-3-2.1Zm-9.56-4,2.66,10.76.11,0,3.25-8.49,1.3.5L96,45.53,94.69,45,92.06,34.31l-.11,0L88.7,42.75l-1.3-.5,4.13-10.8Zm-5.37-1.17,1.37.26-2.2,11.35-1.37-.27Zm24.85,82.12,1.58.76-2.38,4.89,2.79,1.35,2.2-4.51,1.56.75-2.21,4.52,2.9,1.41,2.39-4.91,1.58.77-3.31,6.79L109,119.64Zm-6,10.19a4.91,4.91,0,0,1,1.79-1.43,3.2,3.2,0,0,1,1.87-.22,3.79,3.79,0,0,1,1.79.87,3.68,3.68,0,0,1,1.18,1.59,3.12,3.12,0,0,1,.09,1.87c0,.07,0,.15-.07.23l5.13,1-1.5,1.8-4.7-1-1.37,1.65,3.27,2.7-1.34,1.61-8.9-7.37Zm-26,20.31a2.55,2.55,0,0,0,.42,1.26,2.27,2.27,0,0,0,1,.8,2.75,2.75,0,0,0,1.4.2,2.83,2.83,0,0,0,1.34-.43,2.39,2.39,0,0,0,1-2.27l-.62-7.35,2.07-.18h0l8.65-3.17h0l1.7-1.2,4.27,6a2.5,2.5,0,0,0,1,.87,2.22,2.22,0,0,0,1.25.19,2.76,2.76,0,0,0,1.31-.53,2.8,2.8,0,0,0,.93-1.06,2.33,2.33,0,0,0,.23-1.24,2.48,2.48,0,0,0-.48-1.23l-4.27-6,1.7-1.21,4.37,6.16a4.07,4.07,0,0,1,.79,2.11,4,4,0,0,1-.49,2.15,5.22,5.22,0,0,1-1.7,1.86,5.4,5.4,0,0,1-2.32,1,3.9,3.9,0,0,1-3.93-1.7l-4.35-6.13.59,1.61-3.35,1.23,3.37,9.21-1.94.71-3.38-9.21-3.36,1.23-.59-1.62.64,7.51a4,4,0,0,1-.4,2.22,3.93,3.93,0,0,1-1.5,1.61,6,6,0,0,1-4.92.42,3.93,3.93,0,0,1-2.53-3.46l-.64-7.52,2.09-.18ZM59.85,130.3l6.68,3.48-.82,1.56-4.81-2.52-1.44,2.76,4.46,2.32-.8,1.54-4.46-2.33L57.17,140,62,142.49l-.81,1.56-6.7-3.5Zm-.42-21.42a2.75,2.75,0,1,1,1.47,1.52A2.76,2.76,0,0,1,59.43,108.88ZM76,141.18l-.29,1.7L71,142.1l-.75,4.55-2.07-.34,1.88-11.41,7.32,1.21-.29,1.73L71.83,137l-.56,3.42Zm-7.79-34.86a.84.84,0,0,1-.66,0,.88.88,0,0,1-.46-.47.86.86,0,0,1,.48-1.12l10-4a.87.87,0,0,1,.64,1.61ZM59.5,99.84,78,92.47a.87.87,0,0,1,.64,1.61l-18.54,7.37a.84.84,0,0,1-.66,0A.81.81,0,0,1,59,101,.86.86,0,0,1,59.5,99.84Zm-8.06,2.08a.86.86,0,0,1,1.13-.45l.9.39.38-.9a.87.87,0,1,1,1.59.69l-.39.89.9.39a.86.86,0,1,1-.69,1.58l-.89-.39L54,105a.86.86,0,0,1-1.58-.68l.38-.9-.89-.38A.87.87,0,0,1,51.44,101.92Zm-5.59,14.93,1.48-.94,5,7.77h0l1.54,1.4-3.29,3.63,4,3.6,3.29-3.63,1.55,1.41-7.77,8.56L50,137.25l3.29-3.63-4-3.6L46,133.65l-1.55-1.41,7.75-8.53-1.43.91-1.92-3-8.27,5.27-1.11-1.75,8.27-5.27Zm0-24.38a2.72,2.72,0,0,1-1.51,1.47,2.75,2.75,0,0,1-2.11,0,2.72,2.72,0,0,1-1.47-1.51,2.75,2.75,0,0,1,0-2.11,2.72,2.72,0,0,1,1.51-1.47,2.75,2.75,0,0,1,3.55,3.65Zm-.14-46.11-1-1a.27.27,0,0,1,0-.43l4.21-4c.43-.42.7-.4,1.11,0l.78.81a.85.85,0,0,1,.23.39l1.78,8.62c0,.08.07.14.18,0l3.17-3a.26.26,0,0,1,.41,0l1,1a.26.26,0,0,1,0,.41l-4.34,4.15a.65.65,0,0,1-1.1,0l-.82-.85a1.13,1.13,0,0,1-.3-.58l-1.79-8.3c0-.13-.08-.14-.17,0l-3,2.83A.27.27,0,0,1,45.68,46.36Zm10.91-4.89L60,47.28a.2.2,0,0,1-.07.28l-1.51.9a.2.2,0,0,1-.28-.07L52.59,39a.7.7,0,0,1,.28-1.07l.67-.4a.41.41,0,0,1,.45,0l6.32,3.88c.1.08.19,0,.12-.13l-3.32-5.6a.2.2,0,0,1,.07-.28l1.5-.89a.22.22,0,0,1,.3.06l5.57,9.43A.7.7,0,0,1,64.27,45l-.58.35a.32.32,0,0,1-.35,0l-6.62-4C56.6,41.29,56.53,41.37,56.59,41.47Zm-5.51,38a.86.86,0,0,1,.68-1.59l.89.39.39-.9a.86.86,0,1,1,1.58.69l-.38.89.89.39a.86.86,0,1,1-.68,1.58l-.9-.38-.38.89a.86.86,0,0,1-1.59-.68l.39-.9Zm22,.09a.87.87,0,0,1-.49,1.12L50.1,89.6a.84.84,0,0,1-.66,0,.88.88,0,0,1-.46-.47A.86.86,0,0,1,49.47,88l22.47-8.94A.87.87,0,0,1,73.06,79.55ZM66.89,73a.86.86,0,1,1,.63,1.6l-8.19,3.26a.94.94,0,0,1-.66,0,.9.9,0,0,1-.46-.48.86.86,0,0,1,.48-1.12ZM77.3,29.77c3-.16,3.82,1.56,3.92,3.69s-.71,3.86-3.5,4l-1.43.08c-.15,0-.2.06-.19.21l.19,3.85a.26.26,0,0,1-.28.3L74.43,42a.25.25,0,0,1-.3-.27l-.42-8.36C73.59,31.12,74.4,29.91,77.3,29.77ZM66.07,31.58a1.21,1.21,0,0,1,1,.11l2.49,1.42a2.46,2.46,0,0,1,1.26,1.55l2.11,7.2a.29.29,0,0,1-.22.37l-1.52.44a.25.25,0,0,1-.36-.19l-.69-2.38A.15.15,0,0,0,70,40l-2.64.77a.14.14,0,0,0-.1.19l.69,2.37a.25.25,0,0,1-.19.36l-1.52.45a.26.26,0,0,1-.36-.2l-2.11-7.2a2.35,2.35,0,0,1,.2-2l1.39-2.59A1.2,1.2,0,0,1,66.07,31.58Z"/><path class="cls-3" d="M76.91,72.71l8.21-3.23C82.46,70.47,79.73,71.54,76.91,72.71Z"/><path class="cls-3" d="M107.76,62.77,118,61.27A83.66,83.66,0,0,0,107.76,62.77Z"/><path class="cls-3" d="M105.67,48.83a3.64,3.64,0,0,0-.28,2.05,3.57,3.57,0,0,0,.86,1.78,3.49,3.49,0,0,0,1.66,1.07,3.7,3.7,0,0,0,2.06,0,5.83,5.83,0,0,0,2.23-1.3,5.69,5.69,0,0,0,1.57-2.06,3.63,3.63,0,0,0,.28-2.05,3.45,3.45,0,0,0-.85-1.77,3.52,3.52,0,0,0-3.73-1.05,6.59,6.59,0,0,0-3.8,3.35Z"/><path class="cls-3" d="M62.37,108.82a1,1,0,0,0,.57-.55,1,1,0,0,0,0-.78,1,1,0,0,0-1.34-.58,1,1,0,0,0-.56.55,1,1,0,0,0,0,.79A1,1,0,0,0,62.37,108.82Z"/><path class="cls-4" d="M49.23,43.58,51,51.88a1.13,1.13,0,0,0,.3.58l.82.85a.65.65,0,0,0,1.1,0l4.34-4.15a.26.26,0,0,0,0-.41l-1-1a.26.26,0,0,0-.41,0l-3.17,3c-.11.1-.17,0-.18,0l-1.78-8.62a.85.85,0,0,0-.23-.39l-.78-.81c-.41-.42-.68-.44-1.11,0l-4.21,4a.27.27,0,0,0,0,.43l1,1a.27.27,0,0,0,.43,0l3-2.83C49.15,43.44,49.19,43.45,49.23,43.58Z"/><path class="cls-4" d="M63.34,45.38a.32.32,0,0,0,.35,0l.58-.35a.7.7,0,0,0,.28-1.07L59,34.51a.22.22,0,0,0-.3-.06l-1.5.89a.2.2,0,0,0-.07.28l3.32,5.6c.07.12,0,.21-.12.13L54,37.47a.41.41,0,0,0-.45,0l-.67.4A.7.7,0,0,0,52.59,39l5.58,9.43a.2.2,0,0,0,.28.07l1.51-.9a.2.2,0,0,0,.07-.28l-3.44-5.81c-.06-.1,0-.18.13-.12Z"/><path class="cls-4" d="M63.92,34.78a2.35,2.35,0,0,0-.2,2l2.11,7.2a.26.26,0,0,0,.36.2l1.52-.45a.25.25,0,0,0,.19-.36L67.21,41a.14.14,0,0,1,.1-.19L70,40a.15.15,0,0,1,.19.1l.69,2.38a.25.25,0,0,0,.36.19l1.52-.44a.29.29,0,0,0,.22-.37l-2.11-7.2a2.46,2.46,0,0,0-1.26-1.55l-2.49-1.42a1.21,1.21,0,0,0-1-.11,1.2,1.2,0,0,0-.76.61Zm1.89.82.85-1.6a.18.18,0,0,1,.09-.1.24.24,0,0,1,.14,0l1.52.9a.5.5,0,0,1,.28.35l.8,2.73a.14.14,0,0,1-.1.19l-2.63.77a.13.13,0,0,1-.19-.1l-.8-2.72A.54.54,0,0,1,65.81,35.6Z"/><path class="cls-4" d="M74.43,42,76,41.9a.26.26,0,0,0,.28-.3l-.19-3.85c0-.15,0-.21.19-.21l1.43-.08c2.79-.14,3.62-1.75,3.5-4s-.87-3.85-3.92-3.69c-2.9.14-3.71,1.35-3.59,3.58l.42,8.36A.25.25,0,0,0,74.43,42Zm2.95-10.25c1.31-.07,1.63.56,1.7,1.84s-.27,1.88-1.58,1.94l-1.31.07c-.15,0-.21,0-.21-.18l-.11-2.18C75.81,32.08,76.15,31.79,77.38,31.73Z"/><rect class="cls-4" x="81.23" y="35.86" width="11.56" height="1.4" transform="translate(34.56 115.02) rotate(-79.03)"/><polygon class="cls-4" points="88.7 42.75 91.95 34.27 92.06 34.31 94.69 45.04 95.98 45.53 100.11 34.74 98.81 34.24 95.56 42.73 95.45 42.69 92.79 31.93 91.53 31.45 87.4 42.25 88.7 42.75"/><polygon class="cls-4" points="98.69 47.52 99.83 48.32 105.76 39.88 108.73 41.97 109.45 40.95 102.35 35.97 101.64 36.98 104.62 39.08 98.69 47.52"/><path class="cls-4" d="M106.34,45.77a6.94,6.94,0,0,0-1.93,2.58,5,5,0,0,0-.33,2.72,4.77,4.77,0,0,0,1.19,2.45,4.75,4.75,0,0,0,5,1.49,6.83,6.83,0,0,0,2.8-1.59A7.08,7.08,0,0,0,115,50.83a5,5,0,0,0-3.13-6.66,4.94,4.94,0,0,0-2.75,0A7,7,0,0,0,106.34,45.77Zm5.2-.31a3.54,3.54,0,0,1,1.66,1.07,3.45,3.45,0,0,1,.85,1.77,3.63,3.63,0,0,1-.28,2.05,5.69,5.69,0,0,1-1.57,2.06,5.83,5.83,0,0,1-2.23,1.3,3.7,3.7,0,0,1-2.06,0,3.49,3.49,0,0,1-1.66-1.07,3.57,3.57,0,0,1-.86-1.78,3.64,3.64,0,0,1,.28-2.05,6.59,6.59,0,0,1,3.8-3.35A3.56,3.56,0,0,1,111.54,45.46Z"/><polygon class="cls-4" points="40.62 126.89 48.89 121.62 50.81 124.62 52.24 123.71 44.49 132.24 46.04 133.65 49.34 130.02 53.3 133.62 50.01 137.25 51.56 138.66 59.33 130.1 57.78 128.69 54.48 132.32 50.52 128.72 53.81 125.09 52.27 123.69 52.29 123.68 47.33 115.91 45.85 116.85 47.78 119.87 39.51 125.14 40.62 126.89"/><polygon class="cls-4" points="61.21 144.04 62.02 142.49 57.17 139.96 58.66 137.11 63.12 139.44 63.92 137.9 59.46 135.58 60.9 132.82 65.72 135.34 66.53 133.78 59.85 130.3 54.51 140.55 61.21 144.04"/><polygon class="cls-4" points="77.08 137.84 77.37 136.11 70.05 134.91 68.17 146.31 70.24 146.65 70.99 142.1 75.72 142.88 76 141.18 71.27 140.4 71.83 136.97 77.08 137.84"/><path class="cls-4" d="M78.2,143.73a3.93,3.93,0,0,0,2.53,3.46,6,6,0,0,0,4.92-.42,3.93,3.93,0,0,0,1.5-1.61,4,4,0,0,0,.4-2.22l-.64-7.51.59,1.62,3.36-1.23L94.24,145l1.94-.71-3.37-9.21,3.35-1.23-.59-1.61,4.35,6.13a3.9,3.9,0,0,0,3.93,1.7,5.4,5.4,0,0,0,2.32-1,5.22,5.22,0,0,0,1.7-1.86,4,4,0,0,0,.49-2.15,4.07,4.07,0,0,0-.79-2.11l-4.37-6.16L101.5,128l4.27,6a2.48,2.48,0,0,1,.48,1.23,2.33,2.33,0,0,1-.23,1.24,2.8,2.8,0,0,1-.93,1.06,2.76,2.76,0,0,1-1.31.53,2.22,2.22,0,0,1-1.25-.19,2.5,2.5,0,0,1-1-.87l-4.27-6-1.7,1.2h0l-8.65,3.17h0l-2.07.18.62,7.35a2.39,2.39,0,0,1-1,2.27,2.83,2.83,0,0,1-1.34.43,2.75,2.75,0,0,1-1.4-.2,2.27,2.27,0,0,1-1-.8,2.55,2.55,0,0,1-.42-1.26L79.65,136l-2.09.18Z"/><path class="cls-4" d="M113.76,132.17l-3.27-2.7,1.37-1.65,4.7,1,1.5-1.8-5.13-1c0-.08,0-.16.07-.23a3.12,3.12,0,0,0-.09-1.87,3.68,3.68,0,0,0-1.18-1.59,3.79,3.79,0,0,0-1.79-.87,3.2,3.2,0,0,0-1.87.22,4.91,4.91,0,0,0-1.79,1.43l-2.76,3.34,8.9,7.37Zm-4.6-3.81-3-2.45,1.23-1.47a3.1,3.1,0,0,1,1-.85,1.57,1.57,0,0,1,1-.14,2.07,2.07,0,0,1,1,.48,2.18,2.18,0,0,1,.65.85,1.52,1.52,0,0,1,0,1,3.25,3.25,0,0,1-.65,1.13Z"/><polygon class="cls-4" points="122.68 117.91 121.1 117.14 118.71 122.05 115.81 120.64 118.02 116.12 116.46 115.36 114.26 119.89 111.47 118.53 113.85 113.64 112.27 112.88 108.97 119.64 119.37 124.7 122.68 117.91"/><path class="cls-5" d="M81.28,60.3a5.76,5.76,0,0,0-4.55-.12l-8.21,3.26a1,1,0,0,0-.62.78,1,1,0,0,0,.36.92l7.67,6.1q8.49-3.51,16.07-6Z"/><path class="cls-5" d="M85.12,107.55a1,1,0,0,0,1.35,1.06l8.22-3.26a5.85,5.85,0,0,0,3.22-3.22l4.4-10.95q-7.22,3.39-15.8,6.67Z"/><path class="cls-5" d="M118,61.27l-10.26,1.5a154.27,154.27,0,0,0-22.64,6.71l-8.21,3.23,3,7.42L81.79,85a0,0,0,0,1,0,.06l1.44,3.63,2.95,7.42c26-9.94,42.37-20.74,48.59-32.12a.88.88,0,0,0,0-.76.9.9,0,0,0-.56-.52A42.21,42.21,0,0,0,118,61.27ZM116.19,74.7a5.7,5.7,0,1,1,.06-4.36A5.63,5.63,0,0,1,116.19,74.7Z"/><path class="cls-5" d="M112.53,68.79A4,4,0,1,0,114.65,71,4,4,0,0,0,112.53,68.79Z"/><path class="cls-4" d="M38.07,100.77a.85.85,0,0,0,0,1.59.84.84,0,0,0,.66,0L80.25,85.78l-.57-1.44Z"/><path class="cls-1" d="M113.21,67.21a5.7,5.7,0,1,0,3,3.13A5.64,5.64,0,0,0,113.21,67.21ZM114.6,74a4,4,0,0,1-7.3-3.15,4,4,0,0,1,5.23-2.08A4,4,0,0,1,114.6,74Z"/><path class="cls-4" d="M59.48,101.44a.84.84,0,0,0,.66,0l18.54-7.37A.87.87,0,0,0,78,92.47L59.5,99.84A.86.86,0,0,0,59,101,.81.81,0,0,0,59.48,101.44Z"/><path class="cls-4" d="M49,89.12a.88.88,0,0,0,.46.47.84.84,0,0,0,.66,0l22.47-8.93a.86.86,0,1,0-.63-1.61L49.47,88A.86.86,0,0,0,49,89.12Z"/><path class="cls-4" d="M78.72,101.22a.86.86,0,0,0-1.12-.49l-10,4a.86.86,0,0,0-.48,1.12.88.88,0,0,0,.46.47.84.84,0,0,0,.66,0l10-4A.86.86,0,0,0,78.72,101.22Z"/><path class="cls-4" d="M58.21,77.36a.9.9,0,0,0,.46.48.94.94,0,0,0,.66,0l8.19-3.26a.86.86,0,1,0-.63-1.6l-8.2,3.25A.86.86,0,0,0,58.21,77.36Z"/><path class="cls-4" d="M51.89,103.06l.89.38-.38.9A.86.86,0,0,0,54,105l.39-.9.89.39a.86.86,0,1,0,.69-1.58l-.9-.39.39-.89a.87.87,0,1,0-1.59-.69l-.38.9-.9-.39a.86.86,0,0,0-.68,1.59Z"/><path class="cls-4" d="M52,81.87a.87.87,0,0,0,1.14-.45l.38-.89.9.38a.86.86,0,1,0,.68-1.58l-.89-.39.38-.89A.86.86,0,1,0,53,77.36l-.39.9-.89-.39a.86.86,0,0,0-.68,1.59l.89.38-.39.9A.86.86,0,0,0,52,81.87Z"/><path class="cls-4" d="M42.27,88.82a2.72,2.72,0,0,0-1.51,1.47,2.75,2.75,0,0,0,0,2.11,2.72,2.72,0,0,0,1.47,1.51,2.75,2.75,0,0,0,2.11,0,2.72,2.72,0,0,0,1.51-1.47,2.75,2.75,0,0,0-3.55-3.65Zm2,3a1,1,0,0,1-1.91,0,1,1,0,0,1,.58-1.34,1.08,1.08,0,0,1,.79,0,1.06,1.06,0,0,1,.55.57A1.08,1.08,0,0,1,44.24,91.79Z"/><path class="cls-4" d="M60.9,110.4a2.77,2.77,0,1,0-1.47-1.52A2.75,2.75,0,0,0,60.9,110.4Zm.15-2.94a1,1,0,0,1,.56-.55,1,1,0,0,1,1.34.58,1,1,0,0,1,0,.78,1,1,0,0,1-.57.55,1,1,0,0,1-1.33-.57A1,1,0,0,1,61.05,107.46Z"/><path class="cls-1" d="M94.44,64.47,82,58.73a7.49,7.49,0,0,0-5.91-.16l-8.22,3.27a2.71,2.71,0,0,0-.69,4.65l7.89,6.28,3.18,8,1.42,3.57.57,1.44,1.41,3.54,3.18,8-1.43,10a2.72,2.72,0,0,0,3.7,2.92L95.32,107a7.56,7.56,0,0,0,4.19-4.17l5.1-12.71q14.25-7,22.7-14.45a41.1,41.1,0,0,0,9-10.8,2.62,2.62,0,0,0-1.5-3.75,35.71,35.71,0,0,0-8.78-1.6C117.52,58.91,107,60.58,94.44,64.47Zm-26.18.67a1,1,0,0,1-.36-.92,1,1,0,0,1,.62-.78l8.21-3.26a5.76,5.76,0,0,1,4.55.12l10.72,5q-7.57,2.48-16.07,6Zm29.65,37a5.85,5.85,0,0,1-3.22,3.22l-8.22,3.26a1,1,0,0,1-1.35-1.06l1.39-9.7q8.58-3.27,15.8-6.67Zm36.38-39.42a.9.9,0,0,1,.56.52.88.88,0,0,1,0,.76c-6.22,11.38-22.57,22.18-48.59,32.12l-2.95-7.42-1.44-3.63a0,0,0,0,0,0-.06l-1.93-4.87-3-7.42c2.82-1.17,5.55-2.24,8.21-3.23a154.27,154.27,0,0,1,22.64-6.71A83.66,83.66,0,0,1,118,61.27,42.21,42.21,0,0,1,134.29,62.71Z"/></svg>