<svg id="ZNAP_sticker" xmlns="http://www.w3.org/2000/svg" viewBox="0 0 170.08 170.08"><defs><style>.cls-1,.cls-23,.cls-5{fill:none;}.cls-2{fill:#fff;}.cls-3{fill:#146f81;}.cls-4{fill:#1c727d;}.cls-5{stroke:#237579;}.cls-23,.cls-5{stroke-linecap:round;stroke-linejoin:round;stroke-width:0;}.cls-6{fill:#237579;}.cls-7{fill:#2b7775;}.cls-8{fill:#337a72;}.cls-9{fill:#3a7d6e;}.cls-10{fill:#427f6a;}.cls-11{fill:#498267;}.cls-12{fill:#518563;}.cls-13{fill:#58875f;}.cls-14{fill:#608a5b;}.cls-15{fill:#688d58;}.cls-16{fill:#6f8f54;}.cls-17{fill:#779250;}.cls-18{fill:#7e954d;}.cls-19{fill:#869749;}.cls-20{fill:#8d9a45;}.cls-21{fill:#959d42;}.cls-22{fill:#9c9f3e;}.cls-23{stroke:#9c9f3e;}.cls-24{fill:#a4a23a;}.cls-25{fill:#aca536;}.cls-26{fill:#b3a733;}.cls-27{fill:#bbaa2f;}.cls-28{fill:#c2ad2b;}.cls-29{fill:#caaf28;}.cls-30{fill:#d1b224;}.cls-31{fill:#d9b520;}.cls-32{fill:#e0b71c;}.cls-33{fill:#e8ba19;}.cls-34{fill:#f0bd15;}.cls-35{fill:#f7bf11;}.cls-36{fill:#ffc20e;}.cls-37{fill:#003143;}</style></defs><path class="cls-1" d="M135,105.48l.88,19.2,2.14-.1-2.27.17-.45-.34-.56-.07-.53-.15-.51.1-.54-.15-.51.1-.54-.15-.52.12-.53-.15-.52.09L130,124l-.52.1L129,124l-.51.1-.54-.14-.5.09-.55-.15-.51.11-.55-.14-.5.1-.54-.14-.5.09-.55-.13-.51.09-.55-.14-.48.1-.56-.14-.48.1-.54-.09-.46.13-.62,0-.47.18-.59-.1L118,124l-.55-.15-.5.08-.55-.15-.49.07-.56-.15-.49.07-.56-.15-.48.07-.57-.15-.49.08-.57-.15-.47.06-.47-.14-.48.08h-.11l-.45-.14-.47.06h-.11l-.46-.14-.47.07h-.12l-.46-.14-.47.06a.24.24,0,0,1-.12,0l-.46-.14-.47.07a.27.27,0,0,1-.12,0L106,123l-.45.06h-.13l-.41-.12-.44.06a.27.27,0,0,1-.12,0l-.43-.12-.42.05a.32.32,0,0,1-.25-.06l-6.28-4.25-.64-.42-.74.06-.88,0-.65.47-.89,0-.65.48-.89,0-.65.47-.89,0-.65.47-.89,0-.65.47-.79-.08-.65.47a.14.14,0,0,1-.1,0l-.79-.06-.65.47a.16.16,0,0,1-.1,0l-.78-.06-.65.47a.18.18,0,0,1-.11,0l-.78-.06-.65.46s-.08.05-.1,0l-.8-.06-.63.46a.16.16,0,0,1-.11,0l-.8,0-.62.49a.19.19,0,0,1-.11,0l-.81,0-.58.56a.29.29,0,0,1-.17.06l-.78,0-.62.5a.22.22,0,0,1-.14.05l-.77-.08-.64.43-.08,0-.83-.06-.63.43a.19.19,0,0,1-.08,0l-.83-.06-.62.42a.25.25,0,0,1-.08,0l-.82-.08-.64.44s0,0-.08,0l-.83-.06-.62.43-.09,0-.83-.06-.62.42a.28.28,0,0,1-.11,0l-.8-.08-.63.43-.11,0-.81,0-.61.4a.2.2,0,0,1-.12.06l-.81-.07-.61.42a.21.21,0,0,1-.11,0l-.8-.06-.62.42a.35.35,0,0,1-.13.05l-.79-.07-.62.42a.38.38,0,0,1-.12,0l-.77-.06-.6.41-.13,0-.76,0-.58.39a.27.27,0,0,1-.13.05l-.76,0-.59.38a.32.32,0,0,1-.3,0,.37.37,0,0,1-.26-.3l-3-20.08a4.28,4.28,0,0,0-4-3.64l-28.74-1.58a.33.33,0,0,1-.33-.24.35.35,0,0,1,.11-.4L35.53,88.3a4.26,4.26,0,0,0-.14-6.54L17.7,67.53a.34.34,0,0,1-.12-.42.33.33,0,0,1,.33-.24h0l1.33.06.55-.3a.29.29,0,0,1,.19-.06l1.33.08.54-.32a.36.36,0,0,1,.2,0l1.34.07L24,66a.25.25,0,0,1,.19-.05l1.37.08.57-.33a.41.41,0,0,1,.19,0l1.36.09.59-.35a.27.27,0,0,1,.18,0l1.36.1.59-.36a.3.3,0,0,1,.19,0l1.35.11.61-.38a.23.23,0,0,1,.17,0l1.35.13.6-.39a.39.39,0,0,1,.18,0l1.34.14.62-.4a.28.28,0,0,1,.18,0l1.32.14.63-.41a.24.24,0,0,1,.17,0l1.33.15.64-.42.16,0,1.33.16.65-.41a.17.17,0,0,1,.11,0l3-.07L39.66,45.32a.34.34,0,0,1,.12-.42.29.29,0,0,1,.36,0l.91.42.91-.42a.25.25,0,0,1,.27,0l.92.42.92-.42a.25.25,0,0,1,.25,0l.93.45.93-.45a.25.25,0,0,1,.24,0l.95.48,1-.48a.22.22,0,0,1,.24,0l1,.48,1-.48a.18.18,0,0,1,.22,0l1,.49,1-.49a.17.17,0,0,1,.21,0l1,.49,1-.49a.17.17,0,0,1,.2,0l1,.5,1-.49c.1-.06.15,0,.19,0l1,.51,1-.51c.09,0,.14,0,.19,0l1,.5,1-.5c.09,0,.13,0,.17,0l1,.52,1-.52a.17.17,0,0,1,.17,0l1,.52,1-.52a.15.15,0,0,1,.16,0l1,.53,1-.53a.18.18,0,0,1,.16,0l1,.55,1-.56H70l1,.49,1-.62a.1.1,0,0,1,.08,0l1.11.4.94-.64a.11.11,0,0,1,.11,0l1.06.46,1-.58a.11.11,0,0,1,.11,0l1.12.48.94-.52.48-.19,4.82-5.72a.31.31,0,0,1,.37-.1.3.3,0,0,1,.11,0l.52.33h.73l.12,0,.51.34h.72a.22.22,0,0,1,.11,0l.53.33h.74a.21.21,0,0,1,.1.06l.56.35h.76l.11,0,.55.36.66,0a.12.12,0,0,1,.1,0l.11,0,.56.36.65,0,.2,0,.75.43.67,0,.75.41h.67l.55.36.68,0a.44.44,0,0,1,.19,0l.75.42.66,0,.75.43.67,0,.74.42.69,0,.72.43.69,0,.92.53,1-.3.69.46h1.11l.35-.13.79.61.86,0L109,45l.68-.06.72.41.69,0,.71.4.7-.05.71.42L114,46l.71.42.7,0,.72.41.7,0,.72.42.71-.06.7.42.71-.05.72.42.71-.06.7.42.71,0,.71.41.73-.06.68.43.73-.06.71.43.72,0,.62.68.81.11-.6,7.2,0,.83.84,1.18.5.24.41.56.53.25.41.58.53.24.39.55.53.26.39.47.53.2.42.44.53.16.41.5.54.2.38.54.55.25.38.53.56.24.37.53.56.25.38.52.57.25.36.52.58.25.36.53.58.25.35.53.58.25.36.52.58.25.36.53L143,71l.37.52.57.25.38.52.59.25.36.52.58.25.37.56.57.24.26.85.66.39L137.3,83.7l-1.85,1.59L137.21,87l.22.29.22.19.23.29.21.18.26.31.25.17.24.31.25.17.26.31.24.18.25.3.26.18.24.3.25.19.24.29.26.19.25.31.25.18.25.3.25.18.24.3.26.18.23.3.27.18.2.26,1.28.81.18.18.22.12,1.12-1.82-1,1.91.25.28.25.17.25.28.26.17.23.27.26.17.24.28.26.18.24.26.25.17.24.27.27.17.23.28.27.17.23.28.26.17.25.28.25.17.24.28.27.17.25.28.26.17.22.27.27.18.24.29.27.18.14.46.34.35s0,0,0,.06L152,101l-14,1.13A3.23,3.23,0,0,0,135,105.48Z"/><polygon class="cls-2" points="146.09 92.3 146.09 92.3 146.09 92.3 146.09 92.3"/><path class="cls-2" d="M46.8,110.49a4.62,4.62,0,0,0-.46-.41l.39,0Z"/><path class="cls-2" d="M161.46,99.74c-1.57-1.52-3.22-3-4.81-4.4-1.3-1.15-2.64-2.34-3.92-3.55-1.71-1.6-3.35-3.26-5.08-5-.23-.22-.44-.45-.66-.67l1.49-1.21c2.46-2,4.84-3.93,7.22-5.84,1.31-1,2.7-2.32,2.71-4.13s-1.33-3.06-2.59-4.1l-5.69-4.68q-6.45-5.34-12.91-10.63c-1-.8-1-1.08-.85-1.68a22.54,22.54,0,0,0,.42-3.77c0-.56.06-1.13.12-1.68a4.43,4.43,0,0,0-3.77-5.2c-3.86-.89-7.78-2-11.56-3-4.82-1.31-9.79-2.67-14.81-3.7a143.67,143.67,0,0,1-15.21-4.28c-1.67-.52-3.33-1.06-5-1.57a5.25,5.25,0,0,0-6,1.79c-1.28,1.54-2.65,3.18-4.07,4.79l0,0-.84,0c-6.55.19-13.32.39-20,.45-4.2,0-8.48,0-12.62,0l-6.93,0h0a4.47,4.47,0,0,0-4.56,5.62,15.06,15.06,0,0,0,.63,2l.16.42c1.31,3.56,2.63,7.12,4,10.79l.69,1.88-3.14.44-4.68.63c-5.58.76-11.37,1.54-17,2.24-1.13.15-3.78.47-4.72,3.28-.49,1.49-.54,3.68,2,5.72C15.72,75.77,22.17,81,27.71,85.48a2.87,2.87,0,0,1,.66.66,3.08,3.08,0,0,1-.72.78L20.4,93.26Q14.94,98,9.47,102.8c-2.1,1.83-2.65,4.06-1.46,6a6.2,6.2,0,0,0,4.37,2.81c3.67.3,7.39.47,11,.64l4.4.21,8.61.46,6.34.34c1.07,0,1.1.24,1.17.67l.14,1q.49,3.56,1,7.12l.33,2.24c.53,3.64,1.06,7.27,1.63,10.89a5.42,5.42,0,0,0,2.3,3.84,4.53,4.53,0,0,0,2.44.7,5.94,5.94,0,0,0,1.48-.21q14.12-4.06,28.24-8.15l2.28-.65c2.79-.8,5.68-1.61,8.49-2.61,3.45-1.22,5.28-1.58,7.19.41a12.78,12.78,0,0,0,3,2.15l.39.22a7.33,7.33,0,0,0,3.16,1.18l1.07.07c5.23.34,10.64.69,16,.85,5.69.17,11.36,0,17,.14,1.65,0,3.21,0,4.31-1.17s1.13-2.76,1-4.32c-.16-3.08-.3-6.17-.45-9.25s-.3-6.42-.47-9.63a2.55,2.55,0,0,1,0-.42l.29,0c4.22-.3,9.15-.68,14-1.17.94-.08,3.49-.76,4.06-2.71A5.16,5.16,0,0,0,161.46,99.74ZM46.34,110.08l.39,0,.07.38A4.62,4.62,0,0,0,46.34,110.08Zm28,18.92.16-.08h.12Zm19.85-5.92c.13,0,.26-.11.39-.16a5.11,5.11,0,0,0,1-.2l.23.16A13.64,13.64,0,0,0,94.21,123.08ZM152,101l-14,1.13a3.23,3.23,0,0,0-3,3.37l.88,19.2,2.14-.1-2.27.17-.45-.34-.56-.07-.53-.15-.51.1-.54-.15-.51.1-.54-.15-.52.12-.53-.15-.52.09L130,124l-.52.1L129,124l-.51.1-.54-.14-.5.09-.55-.15-.51.11-.55-.14-.5.1-.54-.14-.5.09-.55-.13-.51.09-.55-.14-.48.1-.56-.14-.48.1-.54-.09-.46.13-.62,0-.47.18-.59-.1L118,124l-.55-.15-.5.08-.55-.15-.49.07-.56-.15-.49.07-.56-.15-.48.07-.57-.15-.49.08-.57-.15-.47.06-.47-.14-.48.08h-.11l-.45-.14-.47.06h-.11l-.46-.14-.47.07h-.12l-.46-.14-.47.06a.24.24,0,0,1-.12,0l-.46-.14-.47.07a.27.27,0,0,1-.12,0L106,123l-.45.06h-.13l-.41-.12-.44.06a.27.27,0,0,1-.12,0l-.43-.12-.42.05a.32.32,0,0,1-.25-.06l-6.28-4.25-.64-.42-.74.06-.88,0-.65.47-.89,0-.65.48-.89,0-.65.47-.89,0-.65.47-.89,0-.65.47-.79-.08-.65.47a.14.14,0,0,1-.1,0l-.79-.06-.65.47a.16.16,0,0,1-.1,0l-.78-.06-.65.47a.18.18,0,0,1-.11,0l-.78-.06-.65.46s-.08.05-.1,0l-.8-.06-.63.46a.16.16,0,0,1-.11,0l-.8,0-.62.49a.19.19,0,0,1-.11,0l-.81,0-.58.56a.29.29,0,0,1-.17.06l-.78,0-.62.5a.22.22,0,0,1-.14.05l-.77-.08-.64.43-.08,0-.83-.06-.63.43a.19.19,0,0,1-.08,0l-.83-.06-.62.42a.25.25,0,0,1-.08,0l-.82-.08-.64.44s0,0-.08,0l-.83-.06-.62.43-.09,0-.83-.06-.62.42a.28.28,0,0,1-.11,0l-.8-.08-.63.43-.11,0-.81,0-.61.4a.2.2,0,0,1-.12.06l-.81-.07-.61.42a.21.21,0,0,1-.11,0l-.8-.06-.62.42a.35.35,0,0,1-.13.05l-.79-.07-.62.42a.38.38,0,0,1-.12,0l-.77-.06-.6.41-.13,0-.76,0-.58.39a.27.27,0,0,1-.13.05l-.76,0-.59.38a.32.32,0,0,1-.3,0,.37.37,0,0,1-.26-.3l-3-20.08a4.28,4.28,0,0,0-4-3.64l-28.74-1.58a.33.33,0,0,1-.33-.24.35.35,0,0,1,.11-.4L35.53,88.3a4.26,4.26,0,0,0-.14-6.54L17.7,67.53a.34.34,0,0,1-.12-.42.33.33,0,0,1,.33-.24h0l1.33.06.55-.3a.29.29,0,0,1,.19-.06l1.33.08.54-.32a.36.36,0,0,1,.2,0l1.34.07L24,66a.25.25,0,0,1,.19-.05l1.37.08.57-.33a.41.41,0,0,1,.19,0l1.36.09.59-.35a.27.27,0,0,1,.18,0l1.36.1.59-.36a.3.3,0,0,1,.19,0l1.35.11.61-.38a.23.23,0,0,1,.17,0l1.35.13.6-.39a.39.39,0,0,1,.18,0l1.34.14.62-.4a.28.28,0,0,1,.18,0l1.32.14.63-.41a.24.24,0,0,1,.17,0l1.33.15.64-.42.16,0,1.33.16.65-.41a.17.17,0,0,1,.11,0l3-.07L39.66,45.32a.34.34,0,0,1,.12-.42.29.29,0,0,1,.36,0l.91.42.91-.42a.25.25,0,0,1,.27,0l.92.42.92-.42a.25.25,0,0,1,.25,0l.93.45.93-.45a.25.25,0,0,1,.24,0l.95.48,1-.48a.22.22,0,0,1,.24,0l1,.48,1-.48a.18.18,0,0,1,.22,0l1,.49,1-.49a.17.17,0,0,1,.21,0l1,.49,1-.49a.17.17,0,0,1,.2,0l1,.5,1-.49c.1-.06.15,0,.19,0l1,.51,1-.51c.09,0,.14,0,.19,0l1,.5,1-.5c.09,0,.13,0,.17,0l1,.52,1-.52a.17.17,0,0,1,.17,0l1,.52,1-.52a.15.15,0,0,1,.16,0l1,.53,1-.53a.18.18,0,0,1,.16,0l1,.55,1-.56H70l1,.49,1-.62a.1.1,0,0,1,.08,0l1.11.4.94-.64a.11.11,0,0,1,.11,0l1.06.46,1-.58a.11.11,0,0,1,.11,0l1.12.48.94-.52.48-.19,4.82-5.72a.31.31,0,0,1,.37-.1.3.3,0,0,1,.11,0l.52.33h.73l.12,0,.51.34h.72a.22.22,0,0,1,.11,0l.53.33h.74a.21.21,0,0,1,.1.06l.56.35h.76l.11,0,.55.36.66,0a.12.12,0,0,1,.1,0l.11,0,.56.36.65,0,.2,0,.75.43.67,0,.75.41h.67l.55.36.68,0a.44.44,0,0,1,.19,0l.75.42.66,0,.75.43.67,0,.74.42.69,0,.72.43.69,0,.92.53,1-.3.69.46h1.11l.35-.13.79.61.86,0L109,45l.68-.06.72.41.69,0,.71.4.7-.05.71.42L114,46l.71.42.7,0,.72.41.7,0,.72.42.71-.06.7.42.71-.05.72.42.71-.06.7.42.71,0,.71.41.73-.06.68.43.73-.06.71.43.72,0,.62.68.81.11-.6,7.2,0,.83.84,1.18.5.24.41.56.53.25.41.58.53.24.39.55.53.26.39.47.53.2.42.44.53.16.41.5.54.2.38.54.55.25.38.53.56.24.37.53.56.25.38.52.57.25.36.52.58.25.36.53.58.25.35.53.58.25.36.52.58.25.36.53L143,71l.37.52.57.25.38.52.59.25.36.52.58.25.37.56.57.24.26.85.66.39L137.3,83.7l-1.85,1.59L137.21,87l.22.29.22.19.23.29.21.18.26.31.25.17.24.31.25.17.26.31.24.18.25.3.26.18.24.3.25.19.24.29.26.19.25.31.25.18.25.3.25.18.24.3.26.18.23.3.27.18.2.26,1.28.81.18.18.22.12,1.12-1.82-1,1.91.25.28.25.17.25.28.26.17.23.27.26.17.24.28.26.18.24.26.25.17.24.27.27.17.23.28.27.17.23.28.26.17.25.28.25.17.24.28.27.17.25.28.26.17.22.27.27.18.24.29.27.18.14.46.34.35s0,0,0,.06ZM32.49,84.91l.22.17-.13.12C32.55,85.1,32.53,85,32.49,84.91Z"/><path class="cls-2" d="M74.64,128.91l-.28.09.16-.08Z"/><path class="cls-2" d="M77.93,128h-.05Z"/><path class="cls-2" d="M95.79,122.88a13.64,13.64,0,0,0-1.58.2c.13,0,.26-.11.39-.16a5.11,5.11,0,0,0,1-.2Z"/><path class="cls-2" d="M32.71,85.08l-.13.12c0-.1,0-.19-.09-.29Z"/><path class="cls-3" d="M138.65,85.36,149,77a2.22,2.22,0,0,0,.76-2.27c-.15-.59-19.71-17-20-17.15a.43.43,0,0,0,0-.07l.6-7.21a2.17,2.17,0,0,0-1.36-2.22,2.46,2.46,0,0,0-.59-.16c-.22-.25-22.54-5.88-22.54-5.88-.48-.38-20.77-5.78-21-5.85a2.48,2.48,0,0,0-2.57.81l-4.48,5.3,0,0s-8.49.51-17.57.47c-9.5,0-20.55-.51-21.67.45a2.57,2.57,0,0,0-.8,2.85l5.61,15.13C42.81,61.2,18,64.74,18,64.74a2.51,2.51,0,0,0-1.68,4.46l17.7,14.22a2.13,2.13,0,0,1,.07,3.27L16.61,102a2.51,2.51,0,0,0,1.52,4.39L46.86,108a2.12,2.12,0,0,1,2,1.81l3,20.09a2.48,2.48,0,0,0,1.76,2,2.64,2.64,0,0,0,.73.11,2.55,2.55,0,0,0,1.36-.41s40.1-11.24,40.22-11.25l6.27,4.25a2.54,2.54,0,0,0,1.72.42c.32.09,29.61,1.4,29.82,1.41,2.08.08,3.9-.19,4.31-1.86l-.88-19.19a1.11,1.11,0,0,1,1-1.15l14-1.13a2.22,2.22,0,0,0,1.45-3.73C153.47,98.93,138.77,85.48,138.65,85.36ZM141.73,90a1.08,1.08,0,0,1,0,.18,1.86,1.86,0,0,1-1.32,1.63L128.08,96l12-4.14A2.37,2.37,0,0,0,141.73,90Zm-.47-.62a1.61,1.61,0,0,1,0,.31,1.9,1.9,0,0,1-1.33,1.67l-18.28,6.29,18-6.27A2.39,2.39,0,0,0,141.26,89.4Zm-.48-.56a2.47,2.47,0,0,1,0,.39,1.94,1.94,0,0,1-1.34,1.7l-24.67,8.62,24.34-8.62A2.45,2.45,0,0,0,140.78,88.84Zm7-14.7a1.09,1.09,0,0,1-.39.81l-4.31,3.62L147.2,75A2.11,2.11,0,0,0,147.79,74.14Zm-.91-.84a1.11,1.11,0,0,1-.39.87l-5.41,4.73,5.22-4.72A2.22,2.22,0,0,0,146.88,73.3Zm-.92-.87a1.14,1.14,0,0,1-.37,1l-6.82,6.17,6.6-6.19A2.17,2.17,0,0,0,146,72.43Zm-.94-.79a1.13,1.13,0,0,1-.36,1L137,79.79l7.43-7.21A2.23,2.23,0,0,0,145,71.64Zm-.92-.83a1.18,1.18,0,0,1-.34,1.06l-8.66,8.4,8.45-8.49A2.31,2.31,0,0,0,144.1,70.81Zm-.93-.83a1.21,1.21,0,0,1-.32,1.12l-9.69,9.73L142.64,71A2.16,2.16,0,0,0,143.17,70Zm-1.45.2a2.21,2.21,0,0,0,.53-1,1.26,1.26,0,0,1-.31,1.18l-10.58,11h0Zm-.91-.79a2.29,2.29,0,0,0,.51-1,1.29,1.29,0,0,1-.28,1.22L130.49,80.9l0,0Zm-.92-.8a2.19,2.19,0,0,0,.5-1.08,1.31,1.31,0,0,1-.26,1.28L129.62,80.46l0,0Zm-.91-.8a2.17,2.17,0,0,0,.48-1.1,1.33,1.33,0,0,1-.24,1.33L128.76,80l-.07,0Zm-.92-.79a2.34,2.34,0,0,0,.48-1.14,1.4,1.4,0,0,1-.22,1.39L127.9,79.6l-.09,0Zm-.91-.8a2.43,2.43,0,0,0,.46-1.16,1.41,1.41,0,0,1-.2,1.44l-10.36,12.7-.12-.06Zm-.92-.79a2.29,2.29,0,0,0,.44-1.19,1.42,1.42,0,0,1-.16,1.49l-10.29,13s0,0,0,0l-.14-.07Zm-.92-.72a2.27,2.27,0,0,0,.44-1.28,1.47,1.47,0,0,1-.15,1.53L125.43,78.22a1,1,0,0,0-.08.11l-.12-.06s0,0,0,0Zm-.91-.59a2.31,2.31,0,0,0,.41-1.46,1.51,1.51,0,0,1-.11,1.6L124.64,77.79l-.09.13-.08,0Zm-.92-.71a2.34,2.34,0,0,0,.4-1.35,1.52,1.52,0,0,1-.08,1.63l-10,13.82,0,.06-.17-.08Zm-.92-.83a2.39,2.39,0,0,0,.39-1.27,1.57,1.57,0,0,1-.06,1.69l-9.83,14.09-.06.08-.23-.11s0-.09.07-.13Zm-.92-.83a2.29,2.29,0,0,0,.37-1.29,1.61,1.61,0,0,1,0,1.74l-9.72,14.34-.12.21-.25-.13a1.57,1.57,0,0,1,.14-.25Zm-.91-.83a2.36,2.36,0,0,0,.35-1.32,1.62,1.62,0,0,1,0,1.79L121.48,76a2,2,0,0,0-.17.32l-.26-.12a1.73,1.73,0,0,1,.18-.39Zm-.92-.83a2.45,2.45,0,0,0,.34-1.35,1.67,1.67,0,0,1,0,1.84L120.7,75.44a1.91,1.91,0,0,0-.23.45l-.26-.13a1.65,1.65,0,0,1,.22-.53Zm-.6-2.21a1.68,1.68,0,0,1,.07,1.89L119.91,74.9a2.09,2.09,0,0,0-.26.57l-.27-.13a1.75,1.75,0,0,1,.25-.68l9.26-15.42A2.37,2.37,0,0,0,129.21,57.86Zm-.93-.86a1.74,1.74,0,0,1,.1,1.94l-9.26,15.42a2.31,2.31,0,0,0-.29.71l-.26-.13a2,2,0,0,1,.25-.84L128,58.41A2.47,2.47,0,0,0,128.28,57Zm-.85-8.47a1.07,1.07,0,0,1,.36.9l-.44,5.92a1.51,1.51,0,0,0-.26-.18l.39-6A2.36,2.36,0,0,0,127.43,48.53Zm-.1,7.59a1.78,1.78,0,0,1,.15,2l-9.15,15.68a2.28,2.28,0,0,0-.3.85l-.26-.12a1.86,1.86,0,0,1,.25-1l9-16A2.43,2.43,0,0,0,127.33,56.12Zm-.76,1.2-9,15.95a2.4,2.4,0,0,0-.32,1l-.24-.12a1.91,1.91,0,0,1,.22-1.17l8.92-16.22a2.41,2.41,0,0,0,.26-1.5A1.8,1.8,0,0,1,126.57,57.32Zm-.56-9.2a1.14,1.14,0,0,1,.4.94l-.34,5.24-.06,0a2.47,2.47,0,0,0-.21-.27l0,0,.29-5.23A2.21,2.21,0,0,0,126,48.12Zm-.8,7.81a2.45,2.45,0,0,0,.24-1.54,1.85,1.85,0,0,1,.22,2.12l-8.91,16.22a2.33,2.33,0,0,0-.31,1.15l-.22-.11a1.92,1.92,0,0,1,.18-1.35Zm-.64-8.23a1.15,1.15,0,0,1,.45,1l-.24,4.4a2.2,2.2,0,0,0-.34-.28l.2-4.43A2.49,2.49,0,0,0,124.57,47.7Zm-.06,5.83a1.88,1.88,0,0,1,.26,2.17L116,72.18a2.41,2.41,0,0,0-.28,1.31l-.21-.1v0a2,2,0,0,1,.13-1.51l8.69-16.76A2.4,2.4,0,0,0,124.51,53.53Zm-.64,1.36-8.68,16.75a2.38,2.38,0,0,0-.26,1.48l-.16-.09a2,2,0,0,1,0-1.73l8.57-17a2.48,2.48,0,0,0,.2-1.62A1.93,1.93,0,0,1,123.87,54.89Zm-.72-7.57a1.17,1.17,0,0,1,.46,1L123.45,52l-.24-.14-.12-.15.14-3.66A3,3,0,0,0,123.15,47.32Zm-.66,6.13a2.43,2.43,0,0,0,.2-1.58,2,2,0,0,1,.28,2.21l-8.57,17a2.44,2.44,0,0,0-.21,1.65l0,0a2,2,0,0,1-.1-2ZM122.22,48l-.1,2.78-.09-.11a2.55,2.55,0,0,0-.3-.26l.08-2.75a2,2,0,0,0-.09-.7A1.18,1.18,0,0,1,122.22,48Zm-.4,3.07a2,2,0,0,1,.29,2.24l-8.45,17.28a2.48,2.48,0,0,0-.16,1.77,2.08,2.08,0,0,1-.2-2.14l8.33-17.56A2.45,2.45,0,0,0,121.82,51Zm-.55,1.42L112.94,70a2.43,2.43,0,0,0-.12,1.83,2.12,2.12,0,0,1-.27-2.22l8.23-17.82a2.52,2.52,0,0,0,.16-1.64A2,2,0,0,1,121.27,52.45Zm-.44-4.85,0,1.9-.18-.11a2.34,2.34,0,0,0-.24-.31l0-1.84a2.46,2.46,0,0,0-.11-.72A1.23,1.23,0,0,1,120.83,47.6Zm-1.39-.37,0,1.19a2.59,2.59,0,0,0-.45-.14V46.87a2.36,2.36,0,0,0-.12-.75A1.26,1.26,0,0,1,119.44,47.23Zm-1.39-.37v1.42a3,3,0,0,0-.48.15V46.49a2.19,2.19,0,0,0-.14-.77A1.3,1.3,0,0,1,118.05,46.86Zm-1.39-.37v2.37l-.49.25,0-3a2.37,2.37,0,0,0-.15-.8A1.33,1.33,0,0,1,116.66,46.49Zm-1.39-.36,0,3.42-.5.24-.06-4a2.39,2.39,0,0,0-.17-.81A1.37,1.37,0,0,1,115.27,46.13Zm-1.39-.37.07,4.46-.5.25-.13-5.1a2.34,2.34,0,0,0-.18-.84A1.39,1.39,0,0,1,113.88,45.76Zm-1.39-.37.13,5.49-.51.26-.2-6.15a2.51,2.51,0,0,0-.2-.86A1.46,1.46,0,0,1,112.49,45.39ZM111.1,45l.21,6.52-.52.26-.3-7.18a2.32,2.32,0,0,0-.21-.88A1.46,1.46,0,0,1,111.1,45Zm-1.39-.36.31,7.52-.54.27-.4-8.13a2.41,2.41,0,0,0-.28-1A1.52,1.52,0,0,1,109.71,44.66Zm-1.39-.3.42,8.47-.56.27-.52-8.94a2.24,2.24,0,0,0-.41-1.2A1.54,1.54,0,0,1,108.32,44.36Zm-1.39-.16.53,9.26-.56.28-.65-9.88a2.49,2.49,0,0,0-.33-1A1.59,1.59,0,0,1,106.93,44.2Zm-1.39-.29.67,10.18-.57.28-.81-10.91a2.38,2.38,0,0,0-.26-.93A1.6,1.6,0,0,1,105.54,43.91Zm-1.39-.4.82,11.2-.58.29-1-12a2.3,2.3,0,0,0-.29-.95A1.64,1.64,0,0,1,104.15,43.51Zm-1.39-.41,1,12.22-.58.29-1.17-13a2.45,2.45,0,0,0-.3-1A1.68,1.68,0,0,1,102.76,43.1Zm-1.4-.4,1.19,13.22-.6.3-1.36-14a2.51,2.51,0,0,0-.32-1A1.72,1.72,0,0,1,101.36,42.7ZM100,42.29l1.39,14.22-.61.31-1.58-15a2.47,2.47,0,0,0-.34-1A1.72,1.72,0,0,1,100,42.29Zm-1.39-.41,1.61,15.22-.63.31-1.8-16a2.54,2.54,0,0,0-.37-1A1.76,1.76,0,0,1,98.58,41.88Zm-1.39-.4L99,57.68l-.63.32-2-17a2.43,2.43,0,0,0-.4-1.07A1.82,1.82,0,0,1,97.19,41.48Zm-1.39-.41,2.08,17.19-.65.32-2.3-18a2.5,2.5,0,0,0-.43-1.09A1.86,1.86,0,0,1,95.8,41.07Zm-1.39-.4,2.33,18.15-.66.33-2.57-19a2.49,2.49,0,0,0-.45-1.11A1.9,1.9,0,0,1,94.41,40.67Zm-2.78-2A1.93,1.93,0,0,1,93,40.26l2.6,19.12-.67.34L92.1,39.79a2.59,2.59,0,0,0-.48-1.14Zm-1.42-.43a2,2,0,0,1,1.42,1.63l2.88,20.09-.66.33c0-.1,0-.19-.07-.29l-3.1-20.6a2.59,2.59,0,0,0-.5-1.16Zm0,1.23,3.1,20.6a2.17,2.17,0,0,0,.11.42l-.19.09-.22.1a2,2,0,0,1-.46-1L89.31,39a2.54,2.54,0,0,0-.52-1.17A2,2,0,0,1,90.24,39.45ZM88.89,39l3.27,20.68a2.39,2.39,0,0,0,.43,1.05l-.21,0a2.08,2.08,0,0,1-1-1.45L88,38.56a2.48,2.48,0,0,0-.55-1.18A2,2,0,0,1,88.89,39ZM86.05,37a2.06,2.06,0,0,1,1.51,1.68L91,59.4a2.44,2.44,0,0,0,.61,1.27,1.53,1.53,0,0,1-.27-.11A2.13,2.13,0,0,1,90.2,59L86.6,38.16A2.48,2.48,0,0,0,86,37Zm-9,6.11-.49.58L76,43A1.51,1.51,0,0,1,77.08,43.06Zm-1.67.45.69.71-.6.71L73.79,43.2l-.07-.06A1.49,1.49,0,0,1,75.41,43.51Zm-2.15.21L75,45.49l-.53.63-2.86-2.79A1.53,1.53,0,0,1,73.26,43.72Zm-2.15.09L74,46.66l-.45.54-4-3.79A1.5,1.5,0,0,1,71.11,43.81Zm-2.14,0,4.17,3.94-.43.52L67.4,43.39A1.55,1.55,0,0,1,69,43.79Zm-2.15,0,5.46,5-.43.5-6.62-5.89A1.61,1.61,0,0,1,66.82,43.76Zm-2.15,0,6.77,6-.42.49-8-6.88A1.63,1.63,0,0,1,64.67,43.73Zm-2.15,0,8.11,7-.4.48-9.34-7.85A1.65,1.65,0,0,1,62.52,43.71Zm-2.14,0,9.46,8-.39.47L58.72,43.32A1.72,1.72,0,0,1,60.38,43.68Zm-2.15,0,10.86,8.89L68.7,53,56.55,43.3A1.78,1.78,0,0,1,58.23,43.65Zm-2.15,0,12.27,9.79-.37.44L54.38,43.29A1.79,1.79,0,0,1,56.08,43.62Zm-2.15,0L67.64,54.25l-.36.43L52.21,43.27A1.82,1.82,0,0,1,53.93,43.59Zm-2.15,0L67,55.06l-.36.43L50,43.25A1.88,1.88,0,0,1,51.78,43.56Zm-2.15,0L66.3,55.85l-.36.42-18.08-13A2,2,0,0,1,49.63,43.53Zm-2.15,0,18.17,13.1-.27.33-.07.06L45.72,43.2A2,2,0,0,1,47.48,43.51Zm-2.11,0L65,57.29a2.3,2.3,0,0,1-.46.25,1.46,1.46,0,0,1-.3-.17L43.61,43.18A2,2,0,0,1,45.37,43.48Zm-2.09,0L64,57.68a2.12,2.12,0,0,1-1.41-.35L41.49,43.16A2.05,2.05,0,0,1,43.28,43.45Zm12.9,87.73L75.9,109a2.09,2.09,0,0,1,1.53-.7,2.52,2.52,0,0,0-.64.5L57.35,130.52A2.16,2.16,0,0,1,56.18,131.18Zm1.5-.43L77.09,109.1a2.11,2.11,0,0,1,1.14-.64l.16.06a2.54,2.54,0,0,0-.43.37L58.79,130.11A2,2,0,0,1,57.68,130.75Zm2.58-1a2.1,2.1,0,0,1-1.08.61l19.09-21.15a2.29,2.29,0,0,1,.53-.41l.31.22Zm1.51-.41a2,2,0,0,1-1.08.6l18.79-20.66h0l.42.28Zm1.5-.41a2,2,0,0,1-1,.58l18-19.69.39.26Zm1.51-.41a1.85,1.85,0,0,1-1,.56l17.28-18.72.37.25Zm1.51-.4a2,2,0,0,1-.91.53l16.51-17.75.34.23Zm1.51-.41a1.85,1.85,0,0,1-.85.5L82.69,111.4l.31.21Zm1.51-.41a1.74,1.74,0,0,1-.79.47l15-15.8.29.2Zm1.51-.41a1.76,1.76,0,0,1-.72.44l14.16-14.83.26.18Zm1.51-.4a1.83,1.83,0,0,1-.66.41L85,113l.24.16Zm1.51-.41a1.76,1.76,0,0,1-.59.38l12.56-12.91.2.14Zm1.51-.41a1.86,1.86,0,0,1-.51.33L86.57,114l.18.12Zm1.51-.41a1.71,1.71,0,0,1-.43.29l10.9-11,.15.1Zm4-2.94,7.26-7.22,0,0Zm8.68-5.45.49-.48h0Zm12.88,7.47L78.9,108.38a2.52,2.52,0,0,0-3.28.41L55.9,130.93a2.13,2.13,0,0,1-3.7-1.11l-3-20.08a2.52,2.52,0,0,0-2.34-2.14L18.15,106a2.14,2.14,0,0,1-1.29-3.74L34.37,87a2.52,2.52,0,0,0-.08-3.84L16.59,68.9a2.13,2.13,0,0,1,1.33-3.79H18l23.76,1a2.5,2.5,0,0,0,2.14-1,2.53,2.53,0,0,0,.32-2.35L38,45.93a2.14,2.14,0,0,1,3.2-2.51L62.35,57.64a2.5,2.5,0,0,0,3.32-.46l16.83-20a2.14,2.14,0,0,1,3.74,1l3.59,20.86a2.5,2.5,0,0,0,1.34,1.81,2.45,2.45,0,0,0,2.25,0l24.13-12.06a2.14,2.14,0,0,1,2.89,2.8l-8.23,17.82a2.49,2.49,0,0,0,1.16,3.29l24,12a2.13,2.13,0,0,1-.21,3.91l-32.09,11.93a2.51,2.51,0,0,0-1.62,2.64l2.2,19a2.13,2.13,0,0,1-3.32,2Zm3.27.12a2.11,2.11,0,0,1-.83.29l.06,0a2.47,2.47,0,0,0,1.19-2.43l-2.19-19a2.11,2.11,0,0,1,1.37-2.24L137.34,89A2.47,2.47,0,0,0,139,86.82v0a2.24,2.24,0,0,1,0,.52,2.07,2.07,0,0,1-1.38,1.85l-31.51,11.58a2.46,2.46,0,0,0-1.62,2.63l2.15,19A2.08,2.08,0,0,1,105.65,124.42Zm1,.06a2,2,0,0,1-.74.27,2.46,2.46,0,0,0,1.18-2.41l-2.16-19a2.09,2.09,0,0,1,1.37-2.21l31.51-11.58a2.47,2.47,0,0,0,1.63-2.15c0,.14,0,.27,0,.41a2.06,2.06,0,0,1-1.37,1.82l-30.92,11.23a2.47,2.47,0,0,0-1.64,2.62l2.11,19A2,2,0,0,1,106.61,124.48Zm1,.06a1.86,1.86,0,0,1-.7.26,2.45,2.45,0,0,0,1.13-2.37l-2.11-19a2,2,0,0,1,1.36-2.17L138.19,90a2.45,2.45,0,0,0,1.64-2.12,2.64,2.64,0,0,1,0,.4A2,2,0,0,1,138.48,90l-30.33,10.89a2.46,2.46,0,0,0-1.65,2.61l2.07,19A2,2,0,0,1,107.59,124.54Zm1,.07a2,2,0,0,1-.69.25,2.47,2.47,0,0,0,1.09-2.33l-2.07-19a2,2,0,0,1,1.36-2.14l30.33-10.88a2.47,2.47,0,0,0,1.66-2.17v0a2,2,0,0,1,0,.49A2,2,0,0,1,139,90.48L109.21,101a2.48,2.48,0,0,0-1.66,2.6l2,19A2,2,0,0,1,108.61,124.61Zm1,.06a1.92,1.92,0,0,1-.63.23,2.42,2.42,0,0,0,1-2.28l-2-19.05a2,2,0,0,1,1.35-2.11l.62-.22a2.47,2.47,0,0,0-1.38,2.47l2,19.06A2,2,0,0,1,109.64,124.67Zm1,.06a2,2,0,0,1-.56.22,2.43,2.43,0,0,0,1-2.24l-2-19.06a2,2,0,0,1,1.34-2.06l.43-.15a2.45,2.45,0,0,0-1.21,2.36l1.94,19.06A1.92,1.92,0,0,1,110.66,124.73Zm1,.06a1.74,1.74,0,0,1-.49.2,2.4,2.4,0,0,0,.93-2.18l-1.94-19.07a1.93,1.93,0,0,1,1.33-2l.32-.11a2.42,2.42,0,0,0-1.11,2.29l1.9,19.07A1.88,1.88,0,0,1,111.68,124.79Zm1,.06a1.78,1.78,0,0,1-.43.18,2.42,2.42,0,0,0,.88-2.13l-1.9-19.07a1.88,1.88,0,0,1,1.32-2l.2-.07a2.42,2.42,0,0,0-1,2.21l1.86,19.07A1.85,1.85,0,0,1,112.71,124.85Zm1,.06a1.65,1.65,0,0,1-.36.16,2.4,2.4,0,0,0,.82-2.07l-1.85-19.08a1.86,1.86,0,0,1,1.31-2l.11,0a2.41,2.41,0,0,0-.93,2.15l1.81,19.08A1.81,1.81,0,0,1,113.73,124.91Zm1,.06a1.73,1.73,0,0,1-.31.14,2.38,2.38,0,0,0,.78-2L113.42,104a1.82,1.82,0,0,1,1.3-1.93h0a2.39,2.39,0,0,0-.88,2.09l1.77,19.08A1.77,1.77,0,0,1,114.76,125Zm1,.07-.25.11a2.35,2.35,0,0,0,.73-2l-1.77-19.08a1.79,1.79,0,0,1,1.27-1.88,2.35,2.35,0,0,0-.82,2l1.72,19.1A1.75,1.75,0,0,1,115.78,125Zm1,.06-.18.08a2.36,2.36,0,0,0,.67-1.9l-1.73-19.09a1.76,1.76,0,0,1,1.18-1.82,2.36,2.36,0,0,0-.76,2l1.69,19.1A1.73,1.73,0,0,1,116.81,125.1Zm1,.06-.11,0a2.4,2.4,0,0,0,.62-1.84l-1.69-19.1a1.72,1.72,0,0,1,1.09-1.75,2.35,2.35,0,0,0-.69,1.9l1.64,19.1A1.7,1.7,0,0,1,117.83,125.16Zm1,.06-.07,0a2.35,2.35,0,0,0,.58-1.79l-1.64-19.1a1.68,1.68,0,0,1,1-1.7,2.34,2.34,0,0,0-.66,1.85l1.6,19.11A1.65,1.65,0,0,1,118.86,125.22Zm1.17-.16a2.3,2.3,0,0,0,.38-1.5l-1.6-19.11a1.63,1.63,0,0,1,.79-1.55,2.44,2.44,0,0,0-.45,1.58l1.56,19.12A1.61,1.61,0,0,1,120,125.06Zm1.2-.32a2.47,2.47,0,0,0,.22-1.21l-1.56-19.11a1.59,1.59,0,0,1,.6-1.38,2.29,2.29,0,0,0-.28,1.29l1.51,19.12A1.54,1.54,0,0,1,121.23,124.74Zm1,0a2.39,2.39,0,0,0,.3-1.37L121,104.27a1.58,1.58,0,0,1,.68-1.43,2.33,2.33,0,0,0-.39,1.47l1.48,19.12A1.55,1.55,0,0,1,122.18,124.76Zm1,.06a2.33,2.33,0,0,0,.36-1.45l-1.47-19.12a1.54,1.54,0,0,1,.71-1.43,2.27,2.27,0,0,0-.44,1.54l1.43,19.13A1.5,1.5,0,0,1,123.16,124.82Zm1.08,0a2.32,2.32,0,0,0,.31-1.37l-1.43-19.13a1.52,1.52,0,0,1,.65-1.35,2.34,2.34,0,0,0-.4,1.47l1.39,19.13A1.48,1.48,0,0,1,124.24,124.8Zm1.08,0a2.27,2.27,0,0,0,.27-1.29l-1.39-19.13a1.47,1.47,0,0,1,.59-1.28,2.25,2.25,0,0,0-.36,1.4l1.34,19.13A1.4,1.4,0,0,1,125.32,124.77Zm1.07,0a2.35,2.35,0,0,0,.24-1.21l-1.35-19.13a1.47,1.47,0,0,1,.52-1.22,2.33,2.33,0,0,0-.32,1.33l1.3,19.14A1.38,1.38,0,0,1,126.39,124.75Zm1.06,0a2.32,2.32,0,0,0,.21-1.14l-1.3-19.14a1.42,1.42,0,0,1,.44-1.13,2.19,2.19,0,0,0-.26,1.24l1.25,19.15A1.36,1.36,0,0,1,127.45,124.74Zm1.08,0a2.38,2.38,0,0,0,.17-1l-1.26-19.15a1.35,1.35,0,0,1,.38-1,2.24,2.24,0,0,0-.23,1.16l1.22,19.15A1.34,1.34,0,0,1,128.53,124.69Zm1.07,0a2.11,2.11,0,0,0,.13-.94l-1.21-19.15a1.32,1.32,0,0,1,.33-1,2.36,2.36,0,0,0-.21,1.09l1.18,19.16A1.29,1.29,0,0,1,129.6,124.66Zm1.06,0a2.21,2.21,0,0,0,.11-.85l-1.17-19.16a1.34,1.34,0,0,1,.26-.87,2.35,2.35,0,0,0-.16,1l1.13,19.16A1.2,1.2,0,0,1,130.66,124.63Zm1.08-.09a2.35,2.35,0,0,0,.07-.7l-1.14-19.16a1.32,1.32,0,0,1,.21-.76,2.12,2.12,0,0,0-.13.87L131.84,124A1.27,1.27,0,0,1,131.74,124.54Zm1.07-.11a2.36,2.36,0,0,0,0-.53l-1.09-19.17a1.26,1.26,0,0,1,.15-.66,2.26,2.26,0,0,0-.09.78l1,19.16A1.43,1.43,0,0,1,132.81,124.43Zm0-19.64a1.21,1.21,0,0,1,.11-.57,2.15,2.15,0,0,0-.06.67l.89,17.13Zm1,19.48a2,2,0,0,0,0-.25v0A1.34,1.34,0,0,1,133.87,124.27Zm.06-19.64v0Zm0-10,6.65-2.25a2.37,2.37,0,0,0,1.62-1.71v0a1.83,1.83,0,0,1-1.31,1.6Zm5.53-1.24,1.61-.54a2.35,2.35,0,0,0,1.59-1.59,1.79,1.79,0,0,1-1.28,1.5Zm3.65-1.51a1.75,1.75,0,0,1-1.21,1.31A2.36,2.36,0,0,0,143.11,91.85Zm-.56,1.7a2.35,2.35,0,0,0,1-1A1.71,1.71,0,0,1,142.55,93.55Zm.71.33a2.2,2.2,0,0,0,.64-.65A1.73,1.73,0,0,1,143.26,93.88Zm.79.24h0Z"/><path class="cls-4" d="M147.4,75a1.09,1.09,0,0,0,.39-.81,2.11,2.11,0,0,1-.59.84l-4.11,3.59Z"/><path class="cls-4" d="M127.35,55.35l.44-5.92a1.07,1.07,0,0,0-.36-.9,2.36,2.36,0,0,1,0,.6l-.39,6A1.51,1.51,0,0,1,127.35,55.35Z"/><path class="cls-5" d="M133.94,104.6v0"/><path class="cls-6" d="M146.49,74.17a1.11,1.11,0,0,0,.39-.87,2.22,2.22,0,0,1-.58.88l-5.22,4.72Z"/><path class="cls-6" d="M125.8,54a2.47,2.47,0,0,1,.21.27l.06,0,.34-5.24a1.14,1.14,0,0,0-.4-.94,2.21,2.21,0,0,1,.06.63L125.78,54Z"/><path class="cls-7" d="M132.94,104.22a1.21,1.21,0,0,0-.11.57l.94,17.23-.89-17.13A2.15,2.15,0,0,1,132.94,104.22Z"/><path class="cls-7" d="M133.87,124.27a1.34,1.34,0,0,0,0-.2v0A2,2,0,0,1,133.87,124.27Z"/><path class="cls-7" d="M145.59,73.4a1.14,1.14,0,0,0,.37-1,2.17,2.17,0,0,1-.59.95l-6.6,6.19Z"/><path class="cls-7" d="M124.78,53.09l.24-4.4a1.15,1.15,0,0,0-.45-1,2.49,2.49,0,0,1,.07.68l-.2,4.43A2.2,2.2,0,0,1,124.78,53.09Z"/><path class="cls-8" d="M144.66,72.64a1.13,1.13,0,0,0,.36-1,2.23,2.23,0,0,1-.56.94L137,79.79Z"/><path class="cls-8" d="M131.9,104.07a1.26,1.26,0,0,0-.15.66l1.09,19.17a2.36,2.36,0,0,1,0,.53,1.43,1.43,0,0,0,0-.42l-1-19.16A2.26,2.26,0,0,1,131.9,104.07Z"/><path class="cls-8" d="M123.21,51.81l.24.14.16-3.62a1.17,1.17,0,0,0-.46-1,3,3,0,0,1,.08.68l-.14,3.66Z"/><path class="cls-9" d="M130.88,103.92a1.32,1.32,0,0,0-.21.76l1.14,19.16a2.35,2.35,0,0,1-.07.7,1.27,1.27,0,0,0,.1-.58l-1.09-19.17A2.12,2.12,0,0,1,130.88,103.92Z"/><path class="cls-9" d="M143.76,71.87a1.18,1.18,0,0,0,.34-1.06,2.31,2.31,0,0,1-.55,1l-8.45,8.49Z"/><path class="cls-9" d="M121.73,50.37a2.55,2.55,0,0,1,.3.26l.09.11.1-2.78a1.18,1.18,0,0,0-.5-1,2,2,0,0,1,.09.7Z"/><path class="cls-10" d="M129.86,103.75a1.34,1.34,0,0,0-.26.87l1.17,19.16a2.21,2.21,0,0,1-.11.85,1.2,1.2,0,0,0,.17-.73l-1.13-19.16A2.35,2.35,0,0,1,129.86,103.75Z"/><path class="cls-10" d="M142.85,71.1a1.21,1.21,0,0,0,.32-1.12,2.16,2.16,0,0,1-.53,1l-9.48,9.85Z"/><path class="cls-10" d="M120.36,49.08a2.34,2.34,0,0,1,.24.31l.18.11,0-1.9a1.23,1.23,0,0,0-.54-1.08,2.46,2.46,0,0,1,.11.72Z"/><path class="cls-11" d="M128.85,103.59a1.32,1.32,0,0,0-.33,1l1.21,19.15a2.11,2.11,0,0,1-.13.94,1.29,1.29,0,0,0,.22-.82l-1.18-19.16A2.36,2.36,0,0,1,128.85,103.59Z"/><path class="cls-11" d="M131.36,81.33l10.58-11a1.26,1.26,0,0,0,.31-1.18,2.21,2.21,0,0,1-.53,1L131.36,81.33Z"/><path class="cls-11" d="M119,48.28a2.59,2.59,0,0,1,.45.14l0-1.19a1.26,1.26,0,0,0-.58-1.11,2.36,2.36,0,0,1,.12.75Z"/><path class="cls-12" d="M130.49,80.9,141,69.56a1.29,1.29,0,0,0,.28-1.22,2.29,2.29,0,0,1-.51,1L130.46,80.88Z"/><path class="cls-12" d="M127.82,103.47a1.35,1.35,0,0,0-.38,1l1.26,19.15a2.38,2.38,0,0,1-.17,1,1.34,1.34,0,0,0,.28-.91l-1.22-19.15A2.24,2.24,0,0,1,127.82,103.47Z"/><path class="cls-12" d="M117.56,48.43a3,3,0,0,1,.48-.15V46.86a1.3,1.3,0,0,0-.62-1.14,2.19,2.19,0,0,1,.14.77Z"/><path class="cls-13" d="M129.62,80.46l10.51-11.67a1.31,1.31,0,0,0,.26-1.28,2.19,2.19,0,0,1-.5,1.08L129.58,80.44Z"/><path class="cls-13" d="M126.8,103.33a1.42,1.42,0,0,0-.44,1.13l1.3,19.14a2.32,2.32,0,0,1-.21,1.14,1.36,1.36,0,0,0,.34-1l-1.25-19.15A2.19,2.19,0,0,1,126.8,103.33Z"/><path class="cls-13" d="M116.17,49.11l.49-.25V46.49a1.33,1.33,0,0,0-.66-1.17,2.37,2.37,0,0,1,.15.8Z"/><path class="cls-14" d="M128.76,80l10.46-12a1.33,1.33,0,0,0,.24-1.33,2.17,2.17,0,0,1-.48,1.1L128.69,80Z"/><path class="cls-14" d="M125.8,103.19a1.47,1.47,0,0,0-.52,1.22l1.35,19.13a2.35,2.35,0,0,1-.24,1.21,1.38,1.38,0,0,0,.39-1.09l-1.3-19.14A2.33,2.33,0,0,1,125.8,103.19Z"/><path class="cls-14" d="M114.8,49.79l.5-.24,0-3.42a1.37,1.37,0,0,0-.7-1.2,2.39,2.39,0,0,1,.17.81Z"/><path class="cls-15" d="M124.43,104.47a2.25,2.25,0,0,1,.36-1.4,1.47,1.47,0,0,0-.59,1.28l1.39,19.13a2.27,2.27,0,0,1-.27,1.29,1.4,1.4,0,0,0,.45-1.17Z"/><path class="cls-15" d="M127.9,79.6l10.42-12.35a1.4,1.4,0,0,0,.22-1.39,2.34,2.34,0,0,1-.48,1.14L127.81,79.56Z"/><path class="cls-15" d="M113.45,50.47l.5-.25-.07-4.46a1.39,1.39,0,0,0-.74-1.23,2.34,2.34,0,0,1,.18.84Z"/><path class="cls-16" d="M127.05,79.18l10.36-12.7a1.41,1.41,0,0,0,.2-1.44,2.43,2.43,0,0,1-.46,1.16L126.93,79.12Z"/><path class="cls-16" d="M123.37,104.42a2.34,2.34,0,0,1,.4-1.47,1.52,1.52,0,0,0-.65,1.35l1.43,19.13a2.32,2.32,0,0,1-.31,1.37,1.48,1.48,0,0,0,.52-1.25Z"/><path class="cls-16" d="M112.11,51.14l.51-.26-.13-5.49a1.46,1.46,0,0,0-.78-1.26,2.51,2.51,0,0,1,.2.86Z"/><polygon class="cls-17" points="89.5 116.83 90 116.36 89.99 116.35 89.5 116.83"/><path class="cls-17" d="M122.32,104.36a2.27,2.27,0,0,1,.44-1.54,1.54,1.54,0,0,0-.71,1.43l1.47,19.12a2.33,2.33,0,0,1-.36,1.45,1.5,1.5,0,0,0,.59-1.33Z"/><path class="cls-17" d="M110.79,51.8l.52-.26L111.1,45a1.46,1.46,0,0,0-.82-1.28,2.32,2.32,0,0,1,.21.88Z"/><path class="cls-17" d="M126.2,78.75s0,0,0,0l10.29-13a1.42,1.42,0,0,0,.16-1.49,2.29,2.29,0,0,1-.44,1.19L126.06,78.68Z"/><path class="cls-18" d="M77.08,43.06A1.51,1.51,0,0,0,76,43l.61.63Z"/><path class="cls-18" d="M121.26,104.31a2.33,2.33,0,0,1,.39-1.47,1.58,1.58,0,0,0-.68,1.43l1.51,19.12a2.39,2.39,0,0,1-.3,1.37,1.55,1.55,0,0,0,.56-1.33Z"/><path class="cls-18" d="M125.23,78.27l.12.06a1,1,0,0,1,.08-.11L135.6,64.94a1.47,1.47,0,0,0,.15-1.53,2.27,2.27,0,0,1-.44,1.28L125.25,78.25S125.24,78.26,125.23,78.27Z"/><path class="cls-18" d="M109.48,52.45l.54-.27-.31-7.52a1.52,1.52,0,0,0-.91-1.34,2.41,2.41,0,0,1,.28,1Z"/><path class="cls-19" d="M75.5,44.93l.6-.71-.69-.71a1.49,1.49,0,0,0-1.69-.37l.07.06Z"/><path class="cls-19" d="M120.21,104.33a2.29,2.29,0,0,1,.28-1.29,1.59,1.59,0,0,0-.6,1.38l1.56,19.11a2.47,2.47,0,0,1-.22,1.21,1.54,1.54,0,0,0,.49-1.29Z"/><path class="cls-19" d="M124.55,77.92l.09-.13L134.7,64.24a1.51,1.51,0,0,0,.11-1.6,2.31,2.31,0,0,1-.41,1.46l-9.93,13.79Z"/><path class="cls-19" d="M108.18,53.1l.56-.27-.42-8.47a1.54,1.54,0,0,0-1.07-1.4,2.24,2.24,0,0,1,.41,1.2Z"/><path class="cls-20" d="M75,45.49l-1.77-1.77a1.53,1.53,0,0,0-1.62-.39l2.86,2.79Z"/><path class="cls-20" d="M123.81,77.55l0-.06,10-13.82a1.52,1.52,0,0,0,.08-1.63,2.34,2.34,0,0,1-.4,1.35l-9.84,14.08Z"/><polygon class="cls-20" points="80.82 122.28 88.13 115.09 88.08 115.06 80.82 122.28"/><path class="cls-20" d="M106.9,53.74l.56-.28-.53-9.26a1.59,1.59,0,0,0-1-1.39,2.49,2.49,0,0,1,.33,1Z"/><path class="cls-20" d="M119.15,104.48a2.44,2.44,0,0,1,.45-1.58,1.63,1.63,0,0,0-.79,1.55l1.6,19.11a2.3,2.3,0,0,1-.38,1.5,1.61,1.61,0,0,0,.68-1.46Z"/><path class="cls-21" d="M122.77,77l.23.11.06-.08L132.89,63a1.57,1.57,0,0,0,.06-1.69,2.39,2.39,0,0,1-.39,1.27l-9.72,14.35S122.8,77,122.77,77Z"/><path class="cls-21" d="M105.64,54.37l.57-.28-.67-10.18a1.6,1.6,0,0,0-1-1.38,2.38,2.38,0,0,1,.26.93Z"/><path class="cls-21" d="M118.1,104.51a2.34,2.34,0,0,1,.66-1.85,1.68,1.68,0,0,0-1,1.7l1.64,19.1a2.35,2.35,0,0,1-.58,1.79l.07,0a1.65,1.65,0,0,0,.84-1.6Z"/><path class="cls-21" d="M74,46.66l-2.93-2.85a1.5,1.5,0,0,0-1.54-.4l4,3.79Z"/><path class="cls-21" d="M87.33,114.55l-10.9,11a1.71,1.71,0,0,0,.43-.29l10.62-10.57Z"/><path class="cls-22" d="M73.14,47.73,69,43.79a1.55,1.55,0,0,0-1.57-.4l5.31,4.86Z"/><path class="cls-22" d="M121.9,76.6l.25.13.12-.21L132,62.18a1.61,1.61,0,0,0,0-1.74,2.29,2.29,0,0,1-.37,1.29L122,76.35A1.57,1.57,0,0,0,121.9,76.6Z"/><path class="cls-22" d="M117.05,104.42a2.35,2.35,0,0,1,.69-1.9,1.72,1.72,0,0,0-1.09,1.75l1.69,19.1a2.4,2.4,0,0,1-.62,1.84l.11,0a1.7,1.7,0,0,0,.86-1.64Z"/><path class="cls-23" d="M144.05,94.11h0"/><path class="cls-22" d="M104.39,55l.58-.29-.82-11.2a1.64,1.64,0,0,0-1-1.41,2.3,2.3,0,0,1,.29.95Z"/><path class="cls-22" d="M86.57,114,74.84,126a1.86,1.86,0,0,0,.51-.33l11.4-11.48Z"/><path class="cls-24" d="M72.28,48.76l-5.46-5a1.61,1.61,0,0,0-1.59-.39l6.62,5.89Z"/><path class="cls-24" d="M121.05,76.18l.26.12a2,2,0,0,1,.17-.32l9.61-14.61a1.62,1.62,0,0,0,0-1.79,2.36,2.36,0,0,1-.35,1.32l-9.5,14.89A1.73,1.73,0,0,0,121.05,76.18Z"/><path class="cls-24" d="M143.26,93.88a1.73,1.73,0,0,0,.64-.65A2.2,2.2,0,0,1,143.26,93.88Z"/><path class="cls-24" d="M116,104.33a2.36,2.36,0,0,1,.76-2,1.76,1.76,0,0,0-1.18,1.82l1.73,19.09a2.36,2.36,0,0,1-.67,1.9l.18-.08a1.73,1.73,0,0,0,.87-1.67Z"/><path class="cls-24" d="M103.17,55.61l.58-.29-1-12.22a1.68,1.68,0,0,0-1.06-1.43,2.45,2.45,0,0,1,.3,1Z"/><path class="cls-24" d="M85.81,113.51,73.25,126.42a1.76,1.76,0,0,0,.59-.38L86,113.65Z"/><path class="cls-25" d="M120.21,75.76l.26.13a1.91,1.91,0,0,1,.23-.45l9.48-14.88a1.67,1.67,0,0,0,0-1.84,2.45,2.45,0,0,1-.34,1.35l-9.38,15.16A1.65,1.65,0,0,0,120.21,75.76Z"/><path class="cls-25" d="M142.55,93.55a1.71,1.71,0,0,0,1-1A2.35,2.35,0,0,1,142.55,93.55Z"/><path class="cls-25" d="M116.66,123.34l-1.72-19.1a2.35,2.35,0,0,1,.82-2,1.79,1.79,0,0,0-1.27,1.88l1.77,19.08a2.35,2.35,0,0,1-.73,2l.25-.11A1.75,1.75,0,0,0,116.66,123.34Z"/><path class="cls-25" d="M71.44,49.75l-6.77-6a1.63,1.63,0,0,0-1.61-.37l8,6.88Z"/><path class="cls-25" d="M102,56.22l.6-.3L101.36,42.7a1.72,1.72,0,0,0-1.09-1.46,2.51,2.51,0,0,1,.32,1Z"/><path class="cls-25" d="M85,113,71.67,126.86a1.83,1.83,0,0,0,.66-.41l12.94-13.3Z"/><path class="cls-26" d="M143.11,91.85a2.36,2.36,0,0,1-1.21,1.31A1.75,1.75,0,0,0,143.11,91.85Z"/><path class="cls-26" d="M115.65,123.24l-1.77-19.08a2.39,2.39,0,0,1,.88-2.09h0a1.82,1.82,0,0,0-1.3,1.93l1.81,19.08a2.38,2.38,0,0,1-.78,2,1.73,1.73,0,0,0,.31-.14A1.77,1.77,0,0,0,115.65,123.24Z"/><path class="cls-26" d="M100.75,56.82l.61-.31L100,42.29a1.72,1.72,0,0,0-1.14-1.48,2.47,2.47,0,0,1,.34,1Z"/><path class="cls-26" d="M70.63,50.71l-8.11-7a1.65,1.65,0,0,0-1.63-.37l9.34,7.85Z"/><path class="cls-26" d="M84.26,112.46,70.1,127.29a1.76,1.76,0,0,0,.72-.44l13.7-14.21Z"/><path class="cls-26" d="M119.38,75.34l.27.13a2.09,2.09,0,0,1,.26-.57l9.37-15.15a1.68,1.68,0,0,0-.07-1.89,2.37,2.37,0,0,1-.32,1.38l-9.26,15.42A1.75,1.75,0,0,0,119.38,75.34Z"/><path class="cls-27" d="M142.66,91.23a2.35,2.35,0,0,1-1.59,1.59l-1.61.54,1.92-.63A1.79,1.79,0,0,0,142.66,91.23Z"/><path class="cls-27" d="M118.57,74.94l.26.13a2.31,2.31,0,0,1,.29-.71l9.26-15.42a1.74,1.74,0,0,0-.1-1.94,2.47,2.47,0,0,1-.31,1.41L118.82,74.1A2,2,0,0,0,118.57,74.94Z"/><path class="cls-27" d="M114.64,123.15l-1.81-19.08a2.41,2.41,0,0,1,.93-2.15l-.11,0a1.86,1.86,0,0,0-1.31,2L114.19,123a2.4,2.4,0,0,1-.82,2.07,1.65,1.65,0,0,0,.36-.16A1.81,1.81,0,0,0,114.64,123.15Z"/><path class="cls-27" d="M99.56,57.41l.63-.31L98.58,41.88a1.76,1.76,0,0,0-1.19-1.5,2.54,2.54,0,0,1,.37,1Z"/><path class="cls-27" d="M69.84,51.64l-9.46-8a1.72,1.72,0,0,0-1.66-.36l10.73,8.79Z"/><path class="cls-27" d="M83.47,111.93l-15,15.8a1.74,1.74,0,0,0,.79-.47l14.45-15.13Z"/><path class="cls-28" d="M142.2,90.68v0a2.37,2.37,0,0,1-1.62,1.71l-6.65,2.25,7-2.32A1.83,1.83,0,0,0,142.2,90.68Z"/><path class="cls-28" d="M113.63,123.05,111.77,104a2.42,2.42,0,0,1,1-2.21l-.2.07a1.88,1.88,0,0,0-1.32,2l1.9,19.07a2.42,2.42,0,0,1-.88,2.13,1.78,1.78,0,0,0,.43-.18A1.85,1.85,0,0,0,113.63,123.05Z"/><path class="cls-28" d="M69.09,52.54,58.23,43.65a1.78,1.78,0,0,0-1.68-.35L68.7,53Z"/><path class="cls-28" d="M98.39,58l.63-.32-1.83-16.2a1.82,1.82,0,0,0-1.25-1.54,2.43,2.43,0,0,1,.4,1.07Z"/><path class="cls-28" d="M82.69,111.4,67,128.17a1.85,1.85,0,0,0,.85-.5L83,111.61Z"/><path class="cls-28" d="M117.77,74.54l.26.12a2.28,2.28,0,0,1,.3-.85l9.15-15.68a1.78,1.78,0,0,0-.15-2,2.43,2.43,0,0,1-.28,1.46l-9,16A1.86,1.86,0,0,0,117.77,74.54Z"/><path class="cls-29" d="M140.09,91.87l-12,4.14,12.33-4.18a1.86,1.86,0,0,0,1.32-1.63,1.08,1.08,0,0,0,0-.18A2.37,2.37,0,0,1,140.09,91.87Z"/><path class="cls-29" d="M112.62,123l-1.9-19.07a2.42,2.42,0,0,1,1.11-2.29l-.32.11a1.93,1.93,0,0,0-1.33,2l1.94,19.07a2.4,2.4,0,0,1-.93,2.18,1.74,1.74,0,0,0,.49-.2A1.88,1.88,0,0,0,112.62,123Z"/><path class="cls-29" d="M97.23,58.58l.65-.32L95.8,41.07a1.86,1.86,0,0,0-1.3-1.56,2.5,2.5,0,0,1,.43,1.09Z"/><path class="cls-29" d="M68.35,53.41,56.08,43.62a1.79,1.79,0,0,0-1.7-.33L68,53.85Z"/><path class="cls-29" d="M81.89,110.86,65.38,128.61a2,2,0,0,0,.91-.53l15.94-17Z"/><path class="cls-29" d="M126.13,56.76,117.21,73a1.91,1.91,0,0,0-.22,1.17l.24.12a2.4,2.4,0,0,1,.32-1l9-15.95a1.8,1.8,0,0,0-.18-2.06A2.41,2.41,0,0,1,126.13,56.76Z"/><path class="cls-30" d="M116.23,73.77l.22.11a2.33,2.33,0,0,1,.31-1.15l8.91-16.22a1.85,1.85,0,0,0-.22-2.12,2.45,2.45,0,0,1-.24,1.54l-8.8,16.49A1.92,1.92,0,0,0,116.23,73.77Z"/><path class="cls-30" d="M139.61,91.4l-18,6.27,18.28-6.29a1.9,1.9,0,0,0,1.33-1.67,1.61,1.61,0,0,0,0-.31A2.39,2.39,0,0,1,139.61,91.4Z"/><path class="cls-30" d="M111.6,122.86l-1.94-19.06a2.45,2.45,0,0,1,1.21-2.36l-.43.15a2,2,0,0,0-1.34,2.06l2,19.06a2.43,2.43,0,0,1-1,2.24,2,2,0,0,0,.56-.22A1.92,1.92,0,0,0,111.6,122.86Z"/><path class="cls-30" d="M67.64,54.25,53.93,43.59a1.82,1.82,0,0,0-1.72-.32L67.28,54.68Z"/><path class="cls-30" d="M96.08,59.15l.66-.33L94.41,40.67a1.9,1.9,0,0,0-1.35-1.59,2.49,2.49,0,0,1,.45,1.11Z"/><path class="cls-30" d="M81.09,110.32,63.81,129a1.85,1.85,0,0,0,1-.56l16.68-17.91Z"/><path class="cls-31" d="M139.12,90.93l-24.34,8.62,24.67-8.62a1.94,1.94,0,0,0,1.34-1.7,2.47,2.47,0,0,0,0-.39A2.45,2.45,0,0,1,139.12,90.93Z"/><path class="cls-31" d="M110.59,122.77l-2-19.06a2.47,2.47,0,0,1,1.38-2.47l-.62.22a2,2,0,0,0-1.35,2.11l2,19.05a2.42,2.42,0,0,1-1,2.28,1.92,1.92,0,0,0,.63-.23A2,2,0,0,0,110.59,122.77Z"/><path class="cls-31" d="M95,59.72l.67-.34L93,40.26a1.93,1.93,0,0,0-1.39-1.61h0a2.59,2.59,0,0,1,.48,1.14Z"/><path class="cls-31" d="M67,55.06,51.78,43.56A1.88,1.88,0,0,0,50,43.25L66.6,55.49Z"/><path class="cls-31" d="M80.29,109.78l-18,19.69a2,2,0,0,0,1-.58L80.68,110Z"/><path class="cls-31" d="M115.47,73.37v0l.21.1a2.41,2.41,0,0,1,.28-1.31l8.8-16.48a1.88,1.88,0,0,0-.26-2.17,2.4,2.4,0,0,1-.22,1.57L115.6,71.86A2,2,0,0,0,115.47,73.37Z"/><path class="cls-32" d="M66.3,55.85,49.63,43.53a2,2,0,0,0-1.77-.3l18.08,13Z"/><path class="cls-32" d="M123.37,54.28l-8.57,17a2,2,0,0,0,0,1.73l.16.09a2.38,2.38,0,0,1,.26-1.48l8.68-16.75a1.93,1.93,0,0,0-.3-2.23A2.48,2.48,0,0,1,123.37,54.28Z"/><path class="cls-32" d="M93.78,60c0,.1,0,.19.07.29l.66-.33L91.63,39.85a2,2,0,0,0-1.42-1.63h0a2.59,2.59,0,0,1,.5,1.16Z"/><path class="cls-32" d="M79.48,109.23h0L60.69,129.9a2,2,0,0,0,1.08-.6L79.9,109.51Z"/><path class="cls-32" d="M109.58,122.67l-2-19a2.48,2.48,0,0,1,1.66-2.6L139,90.48a2,2,0,0,0,1.34-1.74,2,2,0,0,0,0-.49v0a2.47,2.47,0,0,1-1.66,2.17L108.3,101.34a2,2,0,0,0-1.36,2.14l2.07,19a2.47,2.47,0,0,1-1.09,2.33,2,2,0,0,0,.69-.25A2,2,0,0,0,109.58,122.67Z"/><path class="cls-33" d="M92.58,59.66a2,2,0,0,0,.46,1l.22-.1.19-.09a2.17,2.17,0,0,1-.11-.42l-3.1-20.6a2,2,0,0,0-1.45-1.65A2.54,2.54,0,0,1,89.31,39Z"/><path class="cls-33" d="M65.38,56.94l.27-.33L47.48,43.51a2,2,0,0,0-1.76-.31L65.31,57Z"/><path class="cls-33" d="M114.14,72.72l0,0a2.44,2.44,0,0,1,.21-1.65l8.57-17a2,2,0,0,0-.28-2.21,2.43,2.43,0,0,1-.2,1.58L114,70.74A2,2,0,0,0,114.14,72.72Z"/><path class="cls-33" d="M78.8,108.76a2.29,2.29,0,0,0-.53.41L59.18,130.32a2.1,2.1,0,0,0,1.08-.61L79.11,109Z"/><path class="cls-33" d="M108.57,122.58l-2.07-19a2.46,2.46,0,0,1,1.65-2.61L138.48,90a2,2,0,0,0,1.36-1.77,2.64,2.64,0,0,0,0-.4A2.45,2.45,0,0,1,138.19,90l-30.92,11.24a2,2,0,0,0-1.36,2.17l2.11,19a2.45,2.45,0,0,1-1.13,2.37,1.86,1.86,0,0,0,.7-.26A2,2,0,0,0,108.57,122.58Z"/><path class="cls-34" d="M64.53,57.54a2.3,2.3,0,0,0,.46-.25L45.37,43.48a2,2,0,0,0-1.76-.3L64.23,57.37A1.46,1.46,0,0,0,64.53,57.54Z"/><path class="cls-34" d="M113.5,72.32a2.48,2.48,0,0,1,.16-1.77l8.45-17.28a2,2,0,0,0-.29-2.24,2.45,2.45,0,0,1-.19,1.59L113.3,70.18A2.08,2.08,0,0,0,113.5,72.32Z"/><path class="cls-34" d="M91.39,59.34a2.08,2.08,0,0,0,1,1.45l.21,0a2.39,2.39,0,0,1-.43-1.05L88.89,39a2,2,0,0,0-1.48-1.66A2.48,2.48,0,0,1,88,38.56Z"/><path class="cls-34" d="M78.39,108.52l-.16-.06a2.11,2.11,0,0,0-1.14.64L57.68,130.75a2,2,0,0,0,1.11-.64L78,108.89A2.54,2.54,0,0,1,78.39,108.52Z"/><path class="cls-34" d="M107.6,122.48l-2.11-19a2.47,2.47,0,0,1,1.64-2.62l30.92-11.23a2.06,2.06,0,0,0,1.37-1.82c0-.14,0-.27,0-.41a2.47,2.47,0,0,1-1.63,2.15l-31.51,11.58a2.09,2.09,0,0,0-1.37,2.21l2.16,19a2.46,2.46,0,0,1-1.18,2.41,2,2,0,0,0,.74-.27A2,2,0,0,0,107.6,122.48Z"/><path class="cls-35" d="M64,57.68,43.28,43.45a2.05,2.05,0,0,0-1.79-.29L62.56,57.33A2.12,2.12,0,0,0,64,57.68Z"/><path class="cls-35" d="M120.78,51.8l-8.23,17.82a2.12,2.12,0,0,0,.27,2.22,2.43,2.43,0,0,1,.12-1.83l8.33-17.56a2,2,0,0,0-.33-2.29A2.52,2.52,0,0,1,120.78,51.8Z"/><path class="cls-35" d="M106.65,122.39l-2.15-19a2.46,2.46,0,0,1,1.62-2.63l31.51-11.58A2.07,2.07,0,0,0,139,87.29a2.24,2.24,0,0,0,0-.52v0A2.47,2.47,0,0,1,137.34,89L105.25,101a2.11,2.11,0,0,0-1.37,2.24l2.19,19a2.47,2.47,0,0,1-1.19,2.43l-.06,0a2.11,2.11,0,0,0,.83-.29A2.08,2.08,0,0,0,106.65,122.39Z"/><path class="cls-35" d="M90.2,59a2.13,2.13,0,0,0,1.14,1.54,1.53,1.53,0,0,0,.27.11A2.44,2.44,0,0,1,91,59.4L87.56,38.63A2.06,2.06,0,0,0,86.05,37h0a2.48,2.48,0,0,1,.57,1.21Z"/><path class="cls-35" d="M77.43,108.34a2.09,2.09,0,0,0-1.53.7L56.18,131.18a2.16,2.16,0,0,0,1.17-.66l19.44-21.68A2.52,2.52,0,0,1,77.43,108.34Z"/><path class="cls-36" d="M102.16,83.12c.45.55.87.46,1.34.08s.76-.79.29-1.36-.67-.59-1.16-.19l-.89.73c-.08.06-.08.12,0,.2Z"/><path class="cls-36" d="M105.7,122.29l-2.2-19a2.51,2.51,0,0,1,1.62-2.64l32.09-11.93a2.13,2.13,0,0,0,.21-3.91l-24-12a2.49,2.49,0,0,1-1.16-3.29l8.23-17.82a2.14,2.14,0,0,0-2.89-2.8L93.42,60.9a2.45,2.45,0,0,1-2.25,0,2.5,2.5,0,0,1-1.34-1.81L86.24,38.22a2.14,2.14,0,0,0-3.74-1l-16.83,20a2.5,2.5,0,0,1-3.32.46L41.2,43.42A2.14,2.14,0,0,0,38,45.93l6.24,16.84a2.53,2.53,0,0,1-.32,2.35,2.5,2.5,0,0,1-2.14,1L18,65.11h-.1a2.13,2.13,0,0,0-1.33,3.79l17.7,14.23A2.52,2.52,0,0,1,34.37,87L16.86,102.29A2.14,2.14,0,0,0,18.15,106l28.73,1.57a2.52,2.52,0,0,1,2.34,2.14l3,20.08a2.13,2.13,0,0,0,3.7,1.11l19.72-22.14a2.52,2.52,0,0,1,3.28-.41l23.48,15.92a2.13,2.13,0,0,0,3.32-2Zm4.38-32.54-2.29,3.16,0,.08,3.87.5.4.92-4.92-.73-2.72,1.17-.34-.79,2.72-1.17,2.86-4.06ZM83.53,73.65l.37-.8a.8.8,0,0,1,.32-.36L88.34,70c.08-.06.06-.09,0-.13l-2.23-1a.19.19,0,0,1-.11-.28l.43-.94a.19.19,0,0,1,.28-.11L90.1,69c.41.19.49.39.3.8l-.35.77a.44.44,0,0,1-.2.25l-4.35,2.6s-.07.1,0,.14L88,74.7a.2.2,0,0,1,.1.29l-.43,1a.19.19,0,0,1-.28.1l-3.52-1.59A.52.52,0,0,1,83.53,73.65Zm-5.48-8.36,5.24,1.29-.19.75-2.19-.54L79.37,73l-.85-.21,1.55-6.23L77.86,66Zm-5.28-.63,4.32.48-.09.77-3.45-.38-.27,2.39,3.23.35-.09.77-3.22-.36-.27,2.46,3.5.39-.09.77L72,71.81Zm-7,1.71a3,3,0,0,1,1.07-1.31,2.93,2.93,0,0,1,1.61-.51,3.38,3.38,0,0,1,1.07.13,2.77,2.77,0,0,1,.89.45,2.7,2.7,0,0,1,.67.72,2.81,2.81,0,0,1,.4.94l-.9,0a2.67,2.67,0,0,0-.32-.63,1.87,1.87,0,0,0-.47-.46,1.91,1.91,0,0,0-.59-.29,2.38,2.38,0,0,0-.72-.08,2.21,2.21,0,0,0-1.15.37,2.34,2.34,0,0,0-.8,1,3.64,3.64,0,0,0-.25,1.59,3.45,3.45,0,0,0,.37,1.56,2.29,2.29,0,0,0,.88.94,2.26,2.26,0,0,0,1.21.29,2.24,2.24,0,0,0,1.08-.31,1.8,1.8,0,0,0,.7-.77,2.28,2.28,0,0,0,.23-1.1L68.81,69l0-.77,2.74-.1,0,.77a3.14,3.14,0,0,1-.32,1.56,2.59,2.59,0,0,1-1,1,3.06,3.06,0,0,1-1.5.42A3.13,3.13,0,0,1,67,71.54a3.05,3.05,0,0,1-1.17-1.24,5,5,0,0,1-.14-3.93Zm.53,12.81a.94.94,0,0,1,1.28-.33,1,1,0,0,1,.34,1.28c-.18.4-.36.8-.53,1.2-.83,1.85-1.66,3.69-2.5,5.54-.47,1-.92,2.07-1.42,3.1l7.34-.15a.94.94,0,0,1,0,1.87l-1.1,0-7.78.16a.94.94,0,0,1-.81-1.4c.37-.67.69-1.37,1-2.06C63.51,85.36,64.89,82.27,66.25,79.18Zm-13-6.75.9-.23-.23-.9a.81.81,0,1,1,1.58-.4l.23.89.9-.23a.82.82,0,0,1,.4,1.59l-.89.23.23.89a.82.82,0,1,1-1.59.41l-.23-.9-.89.23a.82.82,0,1,1-.41-1.58ZM48,65.15l.89-.23-.23-.9a.82.82,0,0,1,1.59-.4l.23.89.89-.23a.82.82,0,0,1,.41,1.59l-.89.23.23.89a.82.82,0,1,1-1.59.41l-.23-.9-.89.23A.82.82,0,1,1,48,65.15ZM45.13,80.33a12,12,0,0,1,1.94-1,13.93,13.93,0,0,1,4-1.11,12.33,12.33,0,0,1,4.23.4,12.08,12.08,0,0,1,6.78,4.47.94.94,0,0,1-.33,1.28A1,1,0,0,1,60.52,84a9.33,9.33,0,0,0-3-2.56,10.8,10.8,0,0,0-7-1.29,12.38,12.38,0,0,0-4.47,1.78C45.07,82.61,44.13,81,45.13,80.33ZM87.69,94a46.24,46.24,0,0,1-10.45,4.1,47.41,47.41,0,0,1-11,1.25,36.5,36.5,0,0,1-6.09-.38,30.89,30.89,0,0,1-5.34-1.41,42.17,42.17,0,0,1-12.09-6.67.94.94,0,0,1,0-1.32,1,1,0,0,1,1.32,0l.08.06,0,0h0l.84.62c1,.7,2,1.35,3,2a39.9,39.9,0,0,0,8.58,3.94,27.09,27.09,0,0,0,5.2,1.13,44,44,0,0,0,6,.13A42.64,42.64,0,0,0,78,95.93a44.69,44.69,0,0,0,8.75-3.58C87.82,91.79,88.76,93.41,87.69,94Zm.75-7.92a1,1,0,0,1-1.33,0,8.53,8.53,0,0,0-1.48-1.4h0l-.09-.06-.19-.14L85,84.19c-.26-.18-.53-.34-.81-.5a11.3,11.3,0,0,0-2.05-.9,12.7,12.7,0,0,0-5.55-.45,16.15,16.15,0,0,0-6.46,2.19c-1,.64-2-1-.94-1.61a15.28,15.28,0,0,1,2.74-1.3,16,16,0,0,1,11.32-.42,12.47,12.47,0,0,1,5.2,3.53A1,1,0,0,1,88.44,86.05Zm3.45-7.18-.43-.28c-.09-.06-.13-.12-.12-.19l.33-4.27c0-.1-.06-.12-.11,0l-2,3.09a.16.16,0,0,1-.21,0l-1.11-.72a.15.15,0,0,1,0-.21l3.68-5.68a.52.52,0,0,1,.81-.18l.51.33a.26.26,0,0,1,.15.26L93,75c0,.09.08.12.13,0L95,72.14a.13.13,0,0,1,.19,0l1.11.71a.16.16,0,0,1,0,.21L92.71,78.7A.53.53,0,0,1,91.89,78.87Zm4.74,4-.89-.8a.19.19,0,0,1,0-.3l.9-1a.1.1,0,0,0,0-.15l-1.1-1a.09.09,0,0,0-.15,0l-.9,1a.2.2,0,0,1-.31,0l-.88-.8a.19.19,0,0,1,0-.3l3.06-3.39a1.66,1.66,0,0,1,1.3-.6l1.81-.09a.86.86,0,0,1,.63.24.85.85,0,0,1,.31.62l.08,1.77a1.73,1.73,0,0,1-.47,1.36l-3.06,3.39A.19.19,0,0,1,96.63,82.92Zm3.75.56-1.74,1.43a.2.2,0,0,1-.31,0L97.58,84a.2.2,0,0,1,0-.31l4-3.24c1.15-.93,2.14-1,3.34.51s.59,2.69-.41,3.52a2.15,2.15,0,0,1-3.42-.32l-.5-.61A.13.13,0,0,0,100.38,83.48Zm.76,5.1-.45-.74,6.14-3.73,1.27,2.08a2.87,2.87,0,0,1,.46,1.33,2,2,0,0,1-.29,1.11,2.63,2.63,0,0,1-2,1.2,1.87,1.87,0,0,1-1.12-.25,2.8,2.8,0,0,1-1-1l-.82-1.35Z"/><path class="cls-36" d="M98.86,77.12a.09.09,0,0,0-.08,0l-.94,0a.36.36,0,0,0-.26.13l-1.07,1.19a.1.1,0,0,0,0,.15l1.09,1a.1.1,0,0,0,.15,0l1.08-1.2a.32.32,0,0,0,.09-.26l0-.92A.11.11,0,0,0,98.86,77.12Z"/><path class="cls-36" d="M104.85,88.14a1.9,1.9,0,0,0,.65.69,1.19,1.19,0,0,0,.73.16,1.8,1.8,0,0,0,.74-.27,1.78,1.78,0,0,0,.58-.54,1.09,1.09,0,0,0,.19-.71,1.85,1.85,0,0,0-.32-.91l-.79-1.31L104,86.82Z"/><path class="cls-37" d="M46.07,81.94a12.38,12.38,0,0,1,4.47-1.78,10.8,10.8,0,0,1,7,1.29,9.33,9.33,0,0,1,3,2.56,1,1,0,0,0,1.28.34.94.94,0,0,0,.33-1.28,12.08,12.08,0,0,0-6.78-4.47,12.33,12.33,0,0,0-4.23-.4,13.93,13.93,0,0,0-4,1.11,12,12,0,0,0-1.94,1C44.13,81,45.07,82.61,46.07,81.94Z"/><path class="cls-37" d="M83.24,81.2a16,16,0,0,0-11.32.42,15.28,15.28,0,0,0-2.74,1.3c-1,.63-.09,2.25.94,1.61a16.15,16.15,0,0,1,6.46-2.19,12.7,12.7,0,0,1,5.55.45,11.3,11.3,0,0,1,2.05.9c.28.16.55.32.81.5l.36.25.19.14.09.06h0a8.53,8.53,0,0,1,1.48,1.4.94.94,0,1,0,1.33-1.32A12.47,12.47,0,0,0,83.24,81.2Z"/><path class="cls-37" d="M61.07,90.47a.94.94,0,0,0,.81,1.4l7.78-.16,1.1,0a.94.94,0,0,0,0-1.87L63.42,90c.5-1,1-2.07,1.42-3.1.84-1.85,1.67-3.69,2.5-5.54.17-.4.35-.8.53-1.2a1,1,0,0,0-.34-1.28.94.94,0,0,0-1.28.33c-1.36,3.09-2.74,6.18-4.17,9.23C61.76,89.1,61.44,89.8,61.07,90.47Z"/><path class="cls-37" d="M86.75,92.35A44.69,44.69,0,0,1,78,95.93a42.64,42.64,0,0,1-10.23,1.49,44,44,0,0,1-6-.13,27.09,27.09,0,0,1-5.2-1.13A39.9,39.9,0,0,1,48,92.22c-1-.62-2-1.27-3-2l-.84-.62h0l0,0L44,89.54a1,1,0,0,0-1.32,0,.94.94,0,0,0,0,1.32,42.17,42.17,0,0,0,12.09,6.67,30.89,30.89,0,0,0,5.34,1.41,36.5,36.5,0,0,0,6.09.38,47.41,47.41,0,0,0,11-1.25A46.24,46.24,0,0,0,87.69,94C88.76,93.41,87.82,91.79,86.75,92.35Z"/><path class="cls-3" d="M67,71.54a3.13,3.13,0,0,0,1.69.39,3.06,3.06,0,0,0,1.5-.42,2.59,2.59,0,0,0,1-1,3.14,3.14,0,0,0,.32-1.56l0-.77-2.74.1,0,.77,1.89-.07a2.28,2.28,0,0,1-.23,1.1,1.8,1.8,0,0,1-.7.77,2.24,2.24,0,0,1-1.08.31,2.26,2.26,0,0,1-1.21-.29,2.29,2.29,0,0,1-.88-.94,3.45,3.45,0,0,1-.37-1.56,3.64,3.64,0,0,1,.25-1.59,2.34,2.34,0,0,1,.8-1,2.21,2.21,0,0,1,1.15-.37,2.38,2.38,0,0,1,.72.08,1.91,1.91,0,0,1,.59.29,1.87,1.87,0,0,1,.47.46,2.67,2.67,0,0,1,.32.63l.9,0a2.81,2.81,0,0,0-.4-.94,2.7,2.7,0,0,0-.67-.72,2.77,2.77,0,0,0-.89-.45,3.38,3.38,0,0,0-1.07-.13,2.93,2.93,0,0,0-1.61.51,3,3,0,0,0-1.07,1.31,5,5,0,0,0,.14,3.93A3.05,3.05,0,0,0,67,71.54Z"/><polygon class="cls-3" points="76.43 71.53 72.93 71.14 73.2 68.68 76.42 69.04 76.51 68.28 73.28 67.92 73.55 65.53 77 65.91 77.09 65.14 72.77 64.67 71.98 71.81 76.34 72.3 76.43 71.53"/><polygon class="cls-3" points="78.52 72.81 79.36 73.02 80.91 66.79 83.1 67.33 83.29 66.58 78.05 65.29 77.86 66.04 80.07 66.58 78.52 72.81"/><path class="cls-3" d="M83.83,74.45,87.35,76a.19.19,0,0,0,.28-.1l.43-1a.2.2,0,0,0-.1-.29l-2.44-1.1c-.09,0-.07-.1,0-.14l4.35-2.6a.44.44,0,0,0,.2-.25l.35-.77c.19-.41.11-.61-.3-.8L86.7,67.5a.19.19,0,0,0-.28.11l-.43.94a.19.19,0,0,0,.11.28l2.23,1c.07,0,.09.07,0,.13l-4.12,2.52a.8.8,0,0,0-.32.36l-.37.8A.52.52,0,0,0,83.83,74.45Z"/><path class="cls-3" d="M96.34,72.8l-1.11-.71a.13.13,0,0,0-.19,0l-1.91,2.94c0,.08-.14,0-.13,0l.35-4a.26.26,0,0,0-.15-.26l-.51-.33a.52.52,0,0,0-.81.18L88.2,76.3a.15.15,0,0,0,0,.21l1.11.72a.16.16,0,0,0,.21,0l2-3.09c0-.08.12-.06.11,0l-.33,4.27c0,.07,0,.13.12.19l.43.28a.53.53,0,0,0,.82-.17L96.39,73A.16.16,0,0,0,96.34,72.8Z"/><path class="cls-3" d="M100.46,78.16l-.08-1.77a.85.85,0,0,0-.31-.62.86.86,0,0,0-.63-.24l-1.81.09a1.66,1.66,0,0,0-1.3.6l-3.06,3.39a.19.19,0,0,0,0,.3l.88.8a.2.2,0,0,0,.31,0l.9-1a.09.09,0,0,1,.15,0l1.1,1a.1.1,0,0,1,0,.15l-.9,1a.19.19,0,0,0,0,.3l.89.8a.19.19,0,0,0,.3,0L100,79.52A1.73,1.73,0,0,0,100.46,78.16Zm-1.62.21-1.08,1.2a.1.1,0,0,1-.15,0l-1.09-1a.1.1,0,0,1,0-.15l1.07-1.19a.36.36,0,0,1,.26-.13l.94,0a.09.09,0,0,1,.08,0,.11.11,0,0,1,0,.07l0,.92A.32.32,0,0,1,98.84,78.37Z"/><path class="cls-3" d="M104.51,84.44c1-.83,1.72-1.92.41-3.52s-2.19-1.44-3.34-.51l-4,3.24a.2.2,0,0,0,0,.31l.75.92a.2.2,0,0,0,.31,0l1.74-1.43a.13.13,0,0,1,.21,0l.5.61A2.15,2.15,0,0,0,104.51,84.44Zm-2.77-2.06.89-.73c.49-.4.72-.34,1.16.19s.25.92-.29,1.36-.89.47-1.34-.08l-.44-.54C101.66,82.5,101.66,82.44,101.74,82.38Z"/><path class="cls-3" d="M104.2,88.57a2.8,2.8,0,0,0,1,1,1.87,1.87,0,0,0,1.12.25,2.63,2.63,0,0,0,2-1.2,2,2,0,0,0,.29-1.11,2.87,2.87,0,0,0-.46-1.33l-1.27-2.08-6.14,3.73.45.74,2.24-1.36Zm3.22-2a1.85,1.85,0,0,1,.32.91,1.09,1.09,0,0,1-.19.71,1.78,1.78,0,0,1-.58.54,1.8,1.8,0,0,1-.74.27,1.19,1.19,0,0,1-.73-.16,1.9,1.9,0,0,1-.65-.69L104,86.82l2.59-1.57Z"/><polygon class="cls-3" points="104.11 94.06 104.45 94.85 107.17 93.68 112.09 94.41 111.69 93.49 107.82 92.99 107.78 92.91 110.08 89.75 109.69 88.83 106.83 92.89 104.11 94.06"/><path class="cls-37" d="M53.61,74l.89-.23.23.9a.82.82,0,1,0,1.59-.41l-.23-.89.89-.23a.82.82,0,0,0-.4-1.59l-.9.23-.23-.89a.81.81,0,1,0-1.58.4l.23.9-.9.23A.82.82,0,1,0,53.61,74Z"/><path class="cls-37" d="M48.38,66.73l.89-.23.23.9A.82.82,0,1,0,51.09,67l-.23-.89.89-.23a.82.82,0,0,0-.41-1.59l-.89.23-.23-.89a.82.82,0,0,0-1.59.4l.23.9-.89.23a.82.82,0,1,0,.41,1.58Z"/></svg>