<svg id="ZNAP_sticker" xmlns="http://www.w3.org/2000/svg" viewBox="0 0 170.08 170.08"><defs><style>.cls-1{fill:none;}.cls-2{fill:#fff;}.cls-3{fill:#146f81;}.cls-4{fill:#50b18b;}.cls-5{fill:#ffc20e;}</style></defs><path class="cls-1" d="M38.16,148.6l.2.1,4.48,4.49a3.64,3.64,0,0,0,.55.56h0l.07.05a3.41,3.41,0,0,0,2.1.71h83.14a3.5,3.5,0,0,0,3.5-3.5V24.66a3.48,3.48,0,0,0-1.72-3l-.26-.19-3.67-3.68-.1-.24a5.11,5.11,0,0,0-4.77-3.25H40.4a5.15,5.15,0,0,0-5.14,5.14V144a5.14,5.14,0,0,0,.26,1.59l.27.65A5.14,5.14,0,0,0,38.16,148.6Z"/><path class="cls-2" d="M134.71,16.59l-.16-.14-5.29-5.28A4.84,4.84,0,0,0,126,9.76c-.44,0-2.7-.09-3.89-.09H40.84a9.54,9.54,0,0,0-9.52,9.53V140.29a11.37,11.37,0,0,0,1.39,5.44l.18.32,0-.11a7.61,7.61,0,0,1-.25-1.95V19.42a7.73,7.73,0,0,1,7.72-7.73h81.29a7.68,7.68,0,0,1,7.06,4.62l3.2,3.2a6.12,6.12,0,0,1,2.85,5.15V151a6.09,6.09,0,0,1-6.09,6.09H45.57a6,6,0,0,1-2.41-.5L43,157l-1.2-1.19a7,7,0,0,1-.9-.9l-4-4a7.8,7.8,0,0,1-2.39-2l4.83,8.8.7.59a3.4,3.4,0,0,0,.3.22A9.44,9.44,0,0,0,46,160.4h83.13a9.62,9.62,0,0,0,9.61-9.61V24.44A9.65,9.65,0,0,0,134.71,16.59Z"/><path class="cls-2" d="M136.3,14.55l-5.21-5.21a7.37,7.37,0,0,0-5-2.16c-.41,0-2.72-.09-3.94-.09H40.84A12.12,12.12,0,0,0,28.73,19.2V140.29A13.92,13.92,0,0,0,30.44,147l6.79,12.39,1.09.9.41.31A12,12,0,0,0,46,163h83.13a12.21,12.21,0,0,0,12.2-12.2V24.44A12.21,12.21,0,0,0,136.3,14.55Zm2.46,136.24a9.62,9.62,0,0,1-9.61,9.61H46a9.44,9.44,0,0,1-5.75-1.91,3.4,3.4,0,0,1-.3-.22l-.7-.59-4.83-8.8a7.8,7.8,0,0,0,2.39,2l4,4a7,7,0,0,0,.9.9L43,157l.2-.35a6,6,0,0,0,2.41.5h83.14A6.09,6.09,0,0,0,134.8,151V24.66A6.12,6.12,0,0,0,132,19.51l-3.2-3.2a7.68,7.68,0,0,0-7.06-4.62H40.4a7.73,7.73,0,0,0-7.72,7.73V144a7.61,7.61,0,0,0,.25,1.95l0,.11-.18-.32a11.37,11.37,0,0,1-1.39-5.44V19.2a9.54,9.54,0,0,1,9.52-9.53h81.29c1.19,0,3.45.08,3.89.09a4.84,4.84,0,0,1,3.24,1.41l5.29,5.28.16.14a9.65,9.65,0,0,1,4,7.85ZM35.26,144V19.42a5.15,5.15,0,0,1,5.14-5.14h81.29a5.11,5.11,0,0,1,4.77,3.25l.1.24,3.67,3.68.26.19a3.48,3.48,0,0,1,1.72,3V151a3.5,3.5,0,0,1-3.5,3.5H45.57a3.41,3.41,0,0,1-2.1-.71l-.07-.05h0a3.64,3.64,0,0,1-.55-.56l-4.48-4.49-.2-.1a5.14,5.14,0,0,1-2.37-2.37l-.27-.65A5.14,5.14,0,0,1,35.26,144Z"/><path class="cls-3" d="M131.15,20.53,127.66,17a6.44,6.44,0,0,0-6-4H40.4A6.44,6.44,0,0,0,34,19.42V144a6.58,6.58,0,0,0,.32,2l.33.81a6.47,6.47,0,0,0,3,3L41.82,154a5.1,5.1,0,0,0,.77.77l.09.09v0a4.74,4.74,0,0,0,2.88,1h83.14a4.79,4.79,0,0,0,4.8-4.79V24.66A4.8,4.8,0,0,0,131.15,20.53ZM40.4,16.44h81.29a3,3,0,0,1,3,3V144a3,3,0,0,1-3,3H40.4a3,3,0,0,1-3-3V19.42A3,3,0,0,1,40.4,16.44Z"/><path class="cls-4" d="M86.18,25.1a2.87,2.87,0,0,0-1.38-.28H82.54v4.45h2.27A2.89,2.89,0,0,0,86.19,29a1.71,1.71,0,0,0,.75-.8,2.85,2.85,0,0,0,0-2.29A1.75,1.75,0,0,0,86.18,25.1Z"/><path class="cls-4" d="M63.73,131.64a.15.15,0,0,0-.11,0,.15.15,0,0,0-.11,0l-1,1a.5.5,0,0,0-.16.39v2.33a.16.16,0,0,0,.16.16h2.14a.15.15,0,0,0,.16-.16V133a.49.49,0,0,0-.16-.37Z"/><path class="cls-4" d="M109,52.46a1.23,1.23,0,0,0-.93-.13,1.27,1.27,0,0,0-.76.57,1.25,1.25,0,0,0-.13.93,1.2,1.2,0,0,0,.57.75,1.24,1.24,0,0,0,1.68-.43,1.21,1.21,0,0,0,.14-.93A1.25,1.25,0,0,0,109,52.46Z"/><path class="cls-4" d="M49.66,67.63a1.25,1.25,0,0,0-.94-.13,1.23,1.23,0,0,0-.88,1.5,1.17,1.17,0,0,0,.57.75,1.24,1.24,0,0,0,1.68-.43,1.17,1.17,0,0,0,.13-.93A1.24,1.24,0,0,0,49.66,67.63Z"/><polygon class="cls-4" points="87.27 131.13 85.57 135.92 89.05 135.92 87.35 131.13 87.27 131.13"/><path class="cls-4" d="M72.62,131.1c-1,0-1.28.2-1.28,1.14v1.67c0,.14.06.21.22.21h1c1,0,1.32-.57,1.32-1.44C73.89,131.66,73.7,131.1,72.62,131.1Z"/><path class="cls-4" d="M37.42,144a3,3,0,0,0,3,3h81.29a3,3,0,0,0,3-3V19.42a3,3,0,0,0-3-3H40.4a3,3,0,0,0-3,3Zm12.11-12.77a.73.73,0,0,1-.11.46l-4.21,6.07c0,.07,0,.17.11.17h3.9a.28.28,0,0,1,.31.31v1.52a.28.28,0,0,1-.31.31H43.59c-.63,0-.88-.25-.88-.88V137.9a1.22,1.22,0,0,1,.22-.67l3.94-5.84c.08-.12,0-.15-.09-.15H43.21a.28.28,0,0,1-.31-.32v-1.5a.28.28,0,0,1,.31-.31h5.44c.66,0,.88.22.88.88ZM47.36,71.53a3.29,3.29,0,1,1,4.86-3.66,3.28,3.28,0,0,1-2.37,4A3.24,3.24,0,0,1,47.36,71.53Zm68.11-27.45a1,1,0,0,1-2,.51l-.29-1.13-1.13.29a1,1,0,1,1-.51-2l1.13-.29-.29-1.13a1,1,0,0,1,2-.51l.29,1.12,1.13-.29a1,1,0,0,1,.51,2l-1.12.29ZM111.25,55.2a3.3,3.3,0,0,1-4.51,1.16,3.23,3.23,0,0,1-1.51-2,3.26,3.26,0,0,1,.35-2.5,3.3,3.3,0,0,1,4.51-1.16,3.3,3.3,0,0,1,1.16,4.51ZM54.58,57.49a1,1,0,0,1,.74-1.25,1,1,0,0,1,1.26.74l.29,1.13L58,57.82a1,1,0,1,1,.52,2l-1.13.29.29,1.13a1,1,0,0,1-2,.51l-.29-1.12-1.12.29a1,1,0,0,1-.52-2l1.13-.29Zm10.23-27A2.38,2.38,0,0,0,64,30a7.46,7.46,0,0,0-1-.36l-1.3-.37a4.84,4.84,0,0,1-2-1A2.25,2.25,0,0,1,59,26.5a2.58,2.58,0,0,1,.48-1.56,3.15,3.15,0,0,1,1.31-1,4.63,4.63,0,0,1,3.65,0,3.28,3.28,0,0,1,1.27,1,2.49,2.49,0,0,1,.5,1.42H65a1.6,1.6,0,0,0-.75-1.21,2.88,2.88,0,0,0-1.62-.44,3.1,3.1,0,0,0-1.23.23,1.94,1.94,0,0,0-.82.63,1.52,1.52,0,0,0-.29.91,1.24,1.24,0,0,0,.35.91,2.32,2.32,0,0,0,.83.53c.32.13.61.23.87.31l1.07.3c.27.07.58.18.92.3a4.86,4.86,0,0,1,1,.52,2.61,2.61,0,0,1,.78.84,2.35,2.35,0,0,1,.31,1.26A2.81,2.81,0,0,1,65.9,33a3.08,3.08,0,0,1-1.3,1.1,4.82,4.82,0,0,1-2.08.41,4.74,4.74,0,0,1-2-.37,3.14,3.14,0,0,1-1.31-1,3.06,3.06,0,0,1-.54-1.53H60a1.65,1.65,0,0,0,.41,1,2.1,2.1,0,0,0,.9.58,3.75,3.75,0,0,0,2.5,0,2.24,2.24,0,0,0,.93-.67,1.59,1.59,0,0,0,.34-1A1.23,1.23,0,0,0,64.81,30.52Zm2.29,3.76V23.68h1.28v10.6Zm28.28-1.14v1.14H89.15V23.68h1.29v9.46Zm6.77,72.23c0,.06,0,.23,0,.27s0,.27-.08.4-.13.5-.21.75a4.43,4.43,0,0,1-.15.43,1.22,1.22,0,0,1-.07.17v0l0,.06a10.83,10.83,0,0,1-1,1.75A14.25,14.25,0,0,1,97,112.67a27.22,27.22,0,0,1-12.74,4.5A19.18,19.18,0,0,1,78.6,117c-.38-.08-.76-.17-1.14-.28l-.47-.15-.28-.11-.18-.07a6.89,6.89,0,0,1-.93-.49l-.34-.23a2.38,2.38,0,0,1-.31-.25,6.37,6.37,0,0,1-1.78-4.68,11.73,11.73,0,0,1,0-1.19c0-.16,0-.32,0-.48a.59.59,0,0,0,0-.11s0,0,0-.09a.5.5,0,0,0,0-.12,44.49,44.49,0,0,0,8.48.08,38,38,0,0,0,8.64-1.63,16.19,16.19,0,0,0,3-1.27,16.73,16.73,0,0,0,2.72-2.1,21.47,21.47,0,0,0,3.53-4.12,10,10,0,0,1,2.28,3.25,4.8,4.8,0,0,1,.28,1.91C102.19,105,102.17,105.19,102.15,105.37ZM94.23,54.7Zm-3.62-2.58h0Zm-1.3.24c-.08.06-.21.11-.07,0ZM64.12,81ZM55,88c0-.33,0-.66,0-1,0-.16,0-.31,0-.47s0-.11,0-.16l0-.16a8.07,8.07,0,0,1,.44-1.6.45.45,0,0,0,0-.08l0-.06c.05-.1.09-.21.15-.31s.23-.42.36-.62l.18-.25,0,0,0,0c.14-.16.27-.32.42-.47s.27-.25.41-.37l.11-.09.14-.1a6.39,6.39,0,0,1,.76-.46l.3-.14.1,0c.12,0,.25-.07.37-.12H59a2.25,2.25,0,0,0,.26,0,1.63,1.63,0,0,0,.34,0,2.85,2.85,0,0,1,1.81,1c1.31,1.45,1.52,3.63,2.3,5.43a6.53,6.53,0,0,0,4.21,3.74A4.62,4.62,0,0,0,72.77,90c4.18-5.31-2.83-11.26-6.81-14-.42-.29-.83-.57-1.26-.84-.89-.54-2.1.57-1.48,1.48a6,6,0,0,1,1.12,2.51,3.19,3.19,0,0,1-.11,1.54,3,3,0,0,1-.11.32,1,1,0,0,1,0,.1l-.22.38h0l-.32.31a5.17,5.17,0,0,0-5.13-2.43,6,6,0,0,0-1.76.71c0-.18-.09-.37-.13-.56s-.09-.42-.12-.63l-.06-.34a.55.55,0,0,0,0-.12V78.3A15.55,15.55,0,0,1,56.23,75a10.14,10.14,0,0,1,.28-1.63,10,10,0,0,1,.55-1.58,8.08,8.08,0,0,1,6.35-4.55,11.08,11.08,0,0,1,7.29,2.49,16.16,16.16,0,0,1,1.43,1.14c.4.35.8.72,1.18,1.11s.7.72,1,1.1a1.09,1.09,0,0,0,1.84-.76,30.1,30.1,0,0,0-3.34-11.84,29.69,29.69,0,0,0-2.65-4.17c-.83-1.08-1.76-2-2.65-3.06l-.28-.33a1.4,1.4,0,0,0-.16-.2c-.18-.25-.36-.5-.52-.75a12.55,12.55,0,0,1-.93-1.68c-.06-.14-.17-.43-.27-.72s-.17-.62-.24-.94c0-.05,0-.1,0-.15s0-.11,0-.14,0-.28,0-.42,0-.31,0-.46a.76.76,0,0,1,0-.15s0-.15,0-.18a3.25,3.25,0,0,1,.6-1.34,5,5,0,0,1,1.77-1.35,7.22,7.22,0,0,1,2.28-.73,4.52,4.52,0,0,1,1.92.11,4.58,4.58,0,0,1,1.61.8l0,0h0l.17.15a3.08,3.08,0,0,1,.33.3,7.29,7.29,0,0,1,.53.58l.06.06s0,0,0,.07l.19.27,0,0a6.25,6.25,0,0,0-1.88,4.11c-.11,2,1,3.68,2.22,5.16a37.15,37.15,0,0,1,5.36,9.41,63.23,63.23,0,0,1,2.36,6.3c.41,1.32,2.49.76,2.08-.57-.5-1.61-1.09-3.2-1.72-4.77a52.79,52.79,0,0,0-4.58-9.22c-.48-.74-1-1.46-1.55-2.15a14.29,14.29,0,0,1-1.53-2,4,4,0,0,1-.49-2,3.7,3.7,0,0,1,.49-1.72,5,5,0,0,1,.91-1.14.77.77,0,0,0,.3-.11,1,1,0,0,0,.42-.45,5.64,5.64,0,0,1,1.38-.66,5,5,0,0,1,4.07.4A10.85,10.85,0,0,1,85,48.35a9.25,9.25,0,0,1,1.45,1.73c.17.26.33.53.47.8l.18.35c.05.11.1.24.09.22v0c-2.5,3.15-.57,7.44.79,10.73a46.19,46.19,0,0,1,1.86,5.5,1.08,1.08,0,0,0,2.08-.58A49.47,49.47,0,0,0,90,61.59a23.73,23.73,0,0,1-1.87-5.47,5.42,5.42,0,0,1,0-1.45,2.53,2.53,0,0,1,.09-.5,2.17,2.17,0,0,1,.07-.24s.1-.3.1-.31a4,4,0,0,1,.24-.46l.21-.31a6.31,6.31,0,0,0,.52-.51l0,0h0l.07,0,.07,0,0,0h0l.36-.09.11,0,.06,0,0,0h.08a2.16,2.16,0,0,1,.36,0h.27l.25.07a3,3,0,0,1,.4.12l.11,0,.13.06a6.83,6.83,0,0,1,1,.6h0l0,0,.24.2a6.51,6.51,0,0,1,.54.51c.18.19.35.38.52.58s.17.21.25.31h0l.18.26a16.76,16.76,0,0,1,1.09,1.69A46.36,46.36,0,0,1,99.81,68.5a62.73,62.73,0,0,1,2.06,14.8,30.81,30.81,0,0,1-1.65,10.55,16.11,16.11,0,0,1-.79,1.9,20.64,20.64,0,0,1-1,1.86,19.44,19.44,0,0,1-1.12,1.67,7.34,7.34,0,0,1-.46.59c-.21.26-.42.52-.65.76a21.19,21.19,0,0,1-2.67,2.52l-.24.19-.27.21a6.33,6.33,0,0,1-.54.36,10.56,10.56,0,0,1-1.15.61l-.22.09-.28.11L90,105c-.56.19-1.14.36-1.72.51a35.6,35.6,0,0,1-4.11.83l-.88.12-1.21.13c-.79.07-1.59.12-2.38.16a47.7,47.7,0,0,1-4.93-.07,32,32,0,0,1-4.75-.68c-.8-.17-1.59-.38-2.36-.62-.37-.11-.73-.23-1.09-.36l-.59-.23-.42-.17a19.41,19.41,0,0,1-2.14-1.07c-.31-.18-.62-.38-.93-.58l-.49-.34-.34-.26a13,13,0,0,1-3-3.25A27.6,27.6,0,0,1,56,93.05,17.36,17.36,0,0,1,55,88ZM99.71,29.91v4.37H98.43V29.91L94.6,23.68h1.46l3,4.95h.13l2.93-4.95h1.48ZM88.06,28.74A2.81,2.81,0,0,1,86.89,30a4.09,4.09,0,0,1-2,.45H82.54v3.87H81.26V23.68h3.58a4.11,4.11,0,0,1,2,.45,2.81,2.81,0,0,1,1.18,1.21,3.64,3.64,0,0,1,.38,1.7A3.69,3.69,0,0,1,88.06,28.74Zm-8,5.54H78.79v-8h-.1l-3.34,8.05H74.2l-3.3-8h-.1v8.05H69.59V23.68h1.54l3.6,8.79h.13l3.6-8.79h1.59Zm-29,17.78a1,1,0,0,1-2,.52l-.29-1.13-1.12.29a1,1,0,1,1-.52-2l1.13-.29L48,48.33a1,1,0,1,1,2-.52l.29,1.13,1.12-.29a1,1,0,0,1,.52,2l-1.13.29Zm7.16,87.14a.77.77,0,0,1-.86.86h-.75a.31.31,0,0,1-.3-.14l-3-5.49c-.08-.13-.17-.09-.17,0v5.36a.22.22,0,0,1-.22.22H51.05a.21.21,0,0,1-.22-.22V130a.77.77,0,0,1,.86-.86h.87a.4.4,0,0,1,.4.2l2.75,5.18c.06.13.19.1.19-.05v-5.11a.21.21,0,0,1,.2-.22H58a.22.22,0,0,1,.22.22Zm8.95.55a.28.28,0,0,1-.31.31H65.14a.28.28,0,0,1-.31-.31v-2a.14.14,0,0,0-.16-.16H62.53a.15.15,0,0,0-.16.16v2a.28.28,0,0,1-.31.31H60.32a.28.28,0,0,1-.31-.31V133.1a2.49,2.49,0,0,1,.81-1.93l1.88-1.86a1.27,1.27,0,0,1,.92-.36,1.22,1.22,0,0,1,.94.38l1.82,1.83a2.53,2.53,0,0,1,.81,1.94Zm5.52-3.51H71.56c-.16,0-.22.07-.22.22v3.29a.28.28,0,0,1-.32.31H69.29a.28.28,0,0,1-.32-.31v-7.48c0-2.16.9-3.3,3.65-3.3,3,0,3.6,1.81,3.6,3.71S75.36,136.24,72.71,136.24ZM81,140.06H79.67v-9.47H76.32v-1.13h8v1.13H81Zm9.58,0-1.07-3H85.17l-1.06,3H82.76l3.9-10.6H88l3.89,10.6Zm8.37-1.33a3.1,3.1,0,0,1-1.3,1.11,4.82,4.82,0,0,1-2.08.41,4.94,4.94,0,0,1-2-.37,3.23,3.23,0,0,1-1.31-1,2.89,2.89,0,0,1-.53-1.52H93a1.71,1.71,0,0,0,.41,1,2.22,2.22,0,0,0,.9.58,3.52,3.52,0,0,0,1.18.19,3.45,3.45,0,0,0,1.32-.24,2.25,2.25,0,0,0,.93-.68,1.54,1.54,0,0,0,.34-1,1.23,1.23,0,0,0-.3-.86,2.24,2.24,0,0,0-.78-.53,7,7,0,0,0-1-.36L94.7,135a4.77,4.77,0,0,1-2-1,2.25,2.25,0,0,1-.72-1.74,2.57,2.57,0,0,1,.48-1.55,3.22,3.22,0,0,1,1.3-1,4.53,4.53,0,0,1,1.83-.37,4.35,4.35,0,0,1,1.82.37,3.12,3.12,0,0,1,1.27,1,2.49,2.49,0,0,1,.5,1.42H98a1.66,1.66,0,0,0-.75-1.21,2.92,2.92,0,0,0-1.63-.44,3.14,3.14,0,0,0-1.23.23,1.85,1.85,0,0,0-.81.63,1.46,1.46,0,0,0-.3.91,1.22,1.22,0,0,0,.35.9,2.59,2.59,0,0,0,.83.54c.32.13.61.23.87.31l1.07.3a8.1,8.1,0,0,1,.92.3,4.7,4.7,0,0,1,1,.52,2.86,2.86,0,0,1,.78.84,2.45,2.45,0,0,1,.3,1.26A2.77,2.77,0,0,1,98.9,138.73Zm8.58-8.14h-3.33v9.47h-1.28v-9.47H99.52v-1.13h8Zm1.9,9.47H108.1v-10.6h1.28Zm.21-52.45-.29-1.12-1.12.29a1,1,0,0,1-.52-2l1.13-.29-.29-1.13a1,1,0,0,1,.74-1.25,1,1,0,0,1,1.26.74l.29,1.13,1.12-.29a1,1,0,1,1,.52,2L111.3,86l.29,1.13a1,1,0,1,1-2,.51Zm2.29,49.48a3.36,3.36,0,0,0,1.24,1.43,3.26,3.26,0,0,0,1.74.49,3.38,3.38,0,0,0,1-.15,3.06,3.06,0,0,0,.89-.43,2.56,2.56,0,0,0,.68-.71,2.77,2.77,0,0,0,.4-1h1.28a4.36,4.36,0,0,1-.52,1.46,4,4,0,0,1-.95,1.09,4.25,4.25,0,0,1-1.28.68,5,5,0,0,1-1.51.23,4.38,4.38,0,0,1-4.07-2.54,7.2,7.2,0,0,1,0-5.8,4.48,4.48,0,0,1,1.66-1.88,4.39,4.39,0,0,1,2.41-.67,4.68,4.68,0,0,1,1.51.24,4,4,0,0,1,1.28.68,3.85,3.85,0,0,1,.95,1.09,4.47,4.47,0,0,1,.52,1.45h-1.28a2.72,2.72,0,0,0-.4-1,2.56,2.56,0,0,0-.68-.71,3.08,3.08,0,0,0-.89-.44,3.73,3.73,0,0,0-1-.14,3.18,3.18,0,0,0-1.74.49,3.3,3.3,0,0,0-1.24,1.43,6.13,6.13,0,0,0,0,4.66Z"/><path class="cls-2" d="M89.41,52.3l.07,0Z"/><path class="cls-2" d="M89.55,52.24l-.07,0h0Z"/><path class="cls-2" d="M89.31,52.36l-.07,0C89.1,52.47,89.23,52.42,89.31,52.36Z"/><path class="cls-2" d="M94.23,54.7Z"/><path class="cls-2" d="M90.61,52.12h0Z"/><path class="cls-2" d="M64.12,81Z"/><path class="cls-2" d="M89.9,52.16l.11,0Z"/><path class="cls-2" d="M90.07,52.12l-.06,0h0Z"/><path class="cls-2" d="M61.69,102.39l.34.26.49.34c.31.2.62.4.93.58a19.41,19.41,0,0,0,2.14,1.07l.42.17.59.23c.36.13.72.25,1.09.36.77.24,1.56.45,2.36.62a32,32,0,0,0,4.75.68,47.7,47.7,0,0,0,4.93.07c.79,0,1.59-.09,2.38-.16l1.21-.13.88-.12a35.6,35.6,0,0,0,4.11-.83c.58-.15,1.16-.32,1.72-.51l.81-.3.28-.11.22-.09a10.56,10.56,0,0,0,1.15-.61,6.33,6.33,0,0,0,.54-.36l.27-.21.24-.19a21.19,21.19,0,0,0,2.67-2.52c.23-.24.44-.5.65-.76a7.34,7.34,0,0,0,.46-.59,19.44,19.44,0,0,0,1.12-1.67,20.64,20.64,0,0,0,1-1.86,16.11,16.11,0,0,0,.79-1.9,30.81,30.81,0,0,0,1.65-10.55,62.73,62.73,0,0,0-2.06-14.8,46.36,46.36,0,0,0-4.32-11.87,16.76,16.76,0,0,0-1.09-1.69l-.18-.26h0c-.08-.1-.16-.21-.25-.31s-.34-.39-.52-.58a6.51,6.51,0,0,0-.54-.51l-.24-.2,0,0h0a6.83,6.83,0,0,0-1-.6l-.13-.06-.11,0a3,3,0,0,0-.4-.12l-.25-.07h-.27a2.16,2.16,0,0,0-.36,0H90c-.09,0-.12,0-.13,0l-.36.09h0c-.15.1-.17.08-.11,0h0l0,0a6.31,6.31,0,0,1-.52.51l-.21.31a4,4,0,0,0-.24.46s-.09.27-.1.31a2.17,2.17,0,0,0-.07.24,2.53,2.53,0,0,0-.09.5,5.42,5.42,0,0,0,0,1.45A23.73,23.73,0,0,0,90,61.59a49.47,49.47,0,0,1,1.88,5.54,1.08,1.08,0,0,1-2.08.58A46.19,46.19,0,0,0,88,62.21c-1.36-3.29-3.29-7.58-.79-10.73v0s0-.11-.09-.22l-.18-.35c-.14-.27-.3-.54-.47-.8A9.25,9.25,0,0,0,85,48.35a10.85,10.85,0,0,0-2.42-1.72,5,5,0,0,0-4.07-.4,5.64,5.64,0,0,0-1.38.66,1,1,0,0,1-.42.45.77.77,0,0,1-.3.11,5,5,0,0,0-.91,1.14A3.7,3.7,0,0,0,75,50.31a4,4,0,0,0,.49,2,14.29,14.29,0,0,0,1.53,2c.55.69,1.07,1.41,1.55,2.15a52.79,52.79,0,0,1,4.58,9.22c.63,1.57,1.22,3.16,1.72,4.77.41,1.33-1.67,1.89-2.08.57a63.23,63.23,0,0,0-2.36-6.3,37.15,37.15,0,0,0-5.36-9.41c-1.26-1.48-2.33-3.13-2.22-5.16a6.25,6.25,0,0,1,1.88-4.11l0,0-.19-.27s0-.05,0-.07l-.06-.06a7.29,7.29,0,0,0-.53-.58,3.08,3.08,0,0,0-.33-.3l-.17-.15h0l0,0a4.58,4.58,0,0,0-1.61-.8,4.52,4.52,0,0,0-1.92-.11,7.22,7.22,0,0,0-2.28.73,5,5,0,0,0-1.77,1.35,3.25,3.25,0,0,0-.6,1.34s0,.16,0,.18a.76.76,0,0,0,0,.15c0,.15,0,.31,0,.46s0,.28,0,.42,0,.1,0,.14,0,.1,0,.15c.07.32.14.63.24.94s.21.58.27.72a12.55,12.55,0,0,0,.93,1.68c.16.25.34.5.52.75a1.4,1.4,0,0,1,.16.2l.28.33c.89,1,1.82,2,2.65,3.06a29.69,29.69,0,0,1,2.65,4.17,30.1,30.1,0,0,1,3.34,11.84,1.09,1.09,0,0,1-1.84.76c-.32-.38-.67-.75-1-1.1s-.78-.76-1.18-1.11a16.16,16.16,0,0,0-1.43-1.14,11.08,11.08,0,0,0-7.29-2.49,8.08,8.08,0,0,0-6.35,4.55,10,10,0,0,0-.55,1.58A10.14,10.14,0,0,0,56.23,75a15.55,15.55,0,0,0,.08,3.34v.08a.55.55,0,0,1,0,.12l.06.34q0,.31.12.63c0,.19.08.38.13.56a6,6,0,0,1,1.76-.71,5.17,5.17,0,0,1,5.13,2.43l.32-.31h0l.22-.38a1,1,0,0,0,0-.1,3,3,0,0,0,.11-.32,3.19,3.19,0,0,0,.11-1.54,6,6,0,0,0-1.12-2.51c-.62-.91.59-2,1.48-1.48.43.27.84.55,1.26.84,4,2.79,11,8.74,6.81,14a4.62,4.62,0,0,1-4.88,1.66,6.53,6.53,0,0,1-4.21-3.74c-.78-1.8-1-4-2.3-5.43a2.85,2.85,0,0,0-1.81-1,1.63,1.63,0,0,1-.34,0,2.25,2.25,0,0,1-.26,0H58.9c-.12,0-.25.08-.37.12l-.1,0-.3.14a6.39,6.39,0,0,0-.76.46l-.14.1-.11.09c-.14.12-.28.24-.41.37s-.28.31-.42.47l0,0,0,0-.18.25c-.13.2-.25.41-.36.62s-.1.21-.15.31l0,.06a.45.45,0,0,1,0,.08,8.07,8.07,0,0,0-.44,1.6l0,.16c0,.05,0,.14,0,.16s0,.31,0,.47c0,.33,0,.66,0,1a17.36,17.36,0,0,0,1,5.08,27.6,27.6,0,0,0,2.75,6.09A13,13,0,0,0,61.69,102.39Z"/><path class="cls-2" d="M101.92,102.92a10,10,0,0,0-2.28-3.25,21.47,21.47,0,0,1-3.53,4.12,16.73,16.73,0,0,1-2.72,2.1,16.19,16.19,0,0,1-3,1.27,38,38,0,0,1-8.64,1.63,44.49,44.49,0,0,1-8.48-.08.5.5,0,0,1,0,.12c0,.06,0,.08,0,.09a.59.59,0,0,1,0,.11c0,.16,0,.32,0,.48a11.73,11.73,0,0,0,0,1.19A6.37,6.37,0,0,0,75,115.38a2.38,2.38,0,0,0,.31.25l.34.23a6.89,6.89,0,0,0,.93.49l.18.07.28.11.47.15c.38.11.76.2,1.14.28a19.18,19.18,0,0,0,5.61.21A27.22,27.22,0,0,0,97,112.67a14.25,14.25,0,0,0,3.61-3.43,10.83,10.83,0,0,0,1-1.75l0-.06v0a1.22,1.22,0,0,0,.07-.17,4.43,4.43,0,0,0,.15-.43q.12-.37.21-.75c0-.13.06-.27.08-.4s0-.21,0-.27,0-.36,0-.54A4.8,4.8,0,0,0,101.92,102.92Z"/><path class="cls-4" d="M90,52.14h0l-.11,0S89.94,52.16,90,52.14Z"/><path class="cls-4" d="M89.52,52.26h0l-.07,0C89.35,52.34,89.37,52.36,89.52,52.26Z"/><path class="cls-2" d="M48.65,129.11H43.21a.28.28,0,0,0-.31.31v1.5a.28.28,0,0,0,.31.32h3.57c.12,0,.17,0,.09.15l-3.94,5.84a1.22,1.22,0,0,0-.22.67v1.28c0,.63.25.88.88.88h5.63a.28.28,0,0,0,.31-.31v-1.52a.28.28,0,0,0-.31-.31h-3.9c-.15,0-.15-.1-.11-.17l4.21-6.07a.73.73,0,0,0,.11-.46V130C49.53,129.33,49.31,129.11,48.65,129.11Z"/><path class="cls-2" d="M58,129.11H56.1a.21.21,0,0,0-.2.22v5.11c0,.15-.13.18-.19.05L53,129.31a.4.4,0,0,0-.4-.2h-.87a.77.77,0,0,0-.86.86v9.87a.21.21,0,0,0,.22.22H53a.22.22,0,0,0,.22-.22v-5.36c0-.14.09-.18.17,0l3,5.49a.31.31,0,0,0,.3.14h.75a.77.77,0,0,0,.86-.86v-9.87A.22.22,0,0,0,58,129.11Z"/><path class="cls-2" d="M64.56,129.33a1.22,1.22,0,0,0-.94-.38,1.27,1.27,0,0,0-.92.36l-1.88,1.86A2.49,2.49,0,0,0,60,133.1v6.65a.28.28,0,0,0,.31.31h1.74a.28.28,0,0,0,.31-.31v-2a.15.15,0,0,1,.16-.16h2.14a.14.14,0,0,1,.16.16v2a.28.28,0,0,0,.31.31h1.74a.28.28,0,0,0,.31-.31V133.1a2.53,2.53,0,0,0-.81-1.94Zm.27,6a.15.15,0,0,1-.16.16H62.53a.16.16,0,0,1-.16-.16V133a.5.5,0,0,1,.16-.39l1-1a.15.15,0,0,1,.11,0,.15.15,0,0,1,.11,0l.94,1a.49.49,0,0,1,.16.37Z"/><path class="cls-2" d="M72.62,129c-2.75,0-3.65,1.14-3.65,3.3v7.48a.28.28,0,0,0,.32.31H71a.28.28,0,0,0,.32-.31v-3.29c0-.15.06-.22.22-.22h1.15c2.65,0,3.51-1.53,3.51-3.56S75.64,129,72.62,129Zm-.05,5.15h-1c-.16,0-.22-.07-.22-.21v-1.67c0-.94.28-1.14,1.28-1.14s1.27.56,1.27,1.58C73.89,133.55,73.6,134.12,72.57,134.12Z"/><polygon class="cls-2" points="84.28 129.46 76.32 129.46 76.32 130.59 79.67 130.59 79.67 140.06 80.95 140.06 80.95 130.59 84.28 130.59 84.28 129.46"/><path class="cls-2" d="M86.66,129.46l-3.9,10.6h1.35l1.06-3h4.29l1.07,3h1.34L88,129.46Zm-1.09,6.46,1.7-4.78h.08l1.7,4.78Z"/><path class="cls-2" d="M98.27,135.09a4.7,4.7,0,0,0-1-.52,8.1,8.1,0,0,0-.92-.3l-1.07-.3c-.26-.08-.55-.18-.87-.31a2.59,2.59,0,0,1-.83-.54,1.22,1.22,0,0,1-.35-.9,1.46,1.46,0,0,1,.3-.91,1.85,1.85,0,0,1,.81-.63,3.14,3.14,0,0,1,1.23-.23,2.92,2.92,0,0,1,1.63.44A1.66,1.66,0,0,1,98,132.1h1.25a2.49,2.49,0,0,0-.5-1.42,3.12,3.12,0,0,0-1.27-1,4.35,4.35,0,0,0-1.82-.37,4.53,4.53,0,0,0-1.83.37,3.22,3.22,0,0,0-1.3,1,2.57,2.57,0,0,0-.48,1.55,2.25,2.25,0,0,0,.72,1.74,4.77,4.77,0,0,0,2,1l1.29.37a7,7,0,0,1,1,.36,2.24,2.24,0,0,1,.78.53,1.23,1.23,0,0,1,.3.86,1.54,1.54,0,0,1-.34,1,2.25,2.25,0,0,1-.93.68,3.45,3.45,0,0,1-1.32.24,3.52,3.52,0,0,1-1.18-.19,2.22,2.22,0,0,1-.9-.58,1.71,1.71,0,0,1-.41-1H91.71a2.89,2.89,0,0,0,.53,1.52,3.23,3.23,0,0,0,1.31,1,4.94,4.94,0,0,0,2,.37,4.82,4.82,0,0,0,2.08-.41,3.1,3.1,0,0,0,1.3-1.11,2.77,2.77,0,0,0,.45-1.54,2.45,2.45,0,0,0-.3-1.26A2.86,2.86,0,0,0,98.27,135.09Z"/><polygon class="cls-2" points="99.52 130.59 102.87 130.59 102.87 140.06 104.15 140.06 104.15 130.59 107.48 130.59 107.48 129.46 99.52 129.46 99.52 130.59"/><rect class="cls-2" x="108.1" y="129.46" width="1.28" height="10.61"/><path class="cls-2" d="M113.12,131a3.18,3.18,0,0,1,1.74-.49,3.73,3.73,0,0,1,1,.14,3.08,3.08,0,0,1,.89.44,2.56,2.56,0,0,1,.68.71,2.72,2.72,0,0,1,.4,1h1.28a4.47,4.47,0,0,0-.52-1.45,3.85,3.85,0,0,0-.95-1.09,4,4,0,0,0-1.28-.68,4.68,4.68,0,0,0-1.51-.24,4.39,4.39,0,0,0-2.41.67,4.48,4.48,0,0,0-1.66,1.88,7.2,7.2,0,0,0,0,5.8,4.38,4.38,0,0,0,4.07,2.54,5,5,0,0,0,1.51-.23,4.25,4.25,0,0,0,1.28-.68,4,4,0,0,0,.95-1.09,4.36,4.36,0,0,0,.52-1.46h-1.28a2.77,2.77,0,0,1-.4,1,2.56,2.56,0,0,1-.68.71,3.06,3.06,0,0,1-.89.43,3.38,3.38,0,0,1-1,.15,3.26,3.26,0,0,1-1.74-.49,3.36,3.36,0,0,1-1.24-1.43,6.13,6.13,0,0,1,0-4.66A3.3,3.3,0,0,1,113.12,131Z"/><path class="cls-2" d="M63.84,33.07a3.75,3.75,0,0,1-2.5,0,2.1,2.1,0,0,1-.9-.58,1.65,1.65,0,0,1-.41-1H58.7a3.06,3.06,0,0,0,.54,1.53,3.14,3.14,0,0,0,1.31,1,4.74,4.74,0,0,0,2,.37,4.82,4.82,0,0,0,2.08-.41A3.08,3.08,0,0,0,65.9,33a2.81,2.81,0,0,0,.45-1.55A2.35,2.35,0,0,0,66,30.15a2.61,2.61,0,0,0-.78-.84,4.86,4.86,0,0,0-1-.52c-.34-.12-.65-.23-.92-.3l-1.07-.3c-.26-.08-.55-.18-.87-.31a2.32,2.32,0,0,1-.83-.53,1.24,1.24,0,0,1-.35-.91,1.52,1.52,0,0,1,.29-.91,1.94,1.94,0,0,1,.82-.63,3.1,3.1,0,0,1,1.23-.23,2.88,2.88,0,0,1,1.62.44A1.6,1.6,0,0,1,65,26.32h1.26a2.49,2.49,0,0,0-.5-1.42,3.28,3.28,0,0,0-1.27-1,4.63,4.63,0,0,0-3.65,0,3.15,3.15,0,0,0-1.31,1A2.58,2.58,0,0,0,59,26.5a2.25,2.25,0,0,0,.73,1.74,4.84,4.84,0,0,0,2,1l1.3.37A7.46,7.46,0,0,1,64,30a2.38,2.38,0,0,1,.78.53,1.23,1.23,0,0,1,.3.86,1.59,1.59,0,0,1-.34,1A2.24,2.24,0,0,1,63.84,33.07Z"/><rect class="cls-2" x="67.1" y="23.68" width="1.28" height="10.61"/><polygon class="cls-2" points="74.86 32.48 74.73 32.48 71.13 23.68 69.59 23.68 69.59 34.28 70.8 34.28 70.8 26.23 70.9 26.23 74.2 34.28 75.35 34.28 78.69 26.23 78.79 26.23 78.79 34.28 80.05 34.28 80.05 23.68 78.46 23.68 74.86 32.48"/><path class="cls-2" d="M86.88,24.13a4.11,4.11,0,0,0-2-.45H81.26v10.6h1.28V30.41h2.32a4.09,4.09,0,0,0,2-.45,2.81,2.81,0,0,0,1.17-1.22,3.69,3.69,0,0,0,.38-1.7,3.64,3.64,0,0,0-.38-1.7A2.81,2.81,0,0,0,86.88,24.13Zm.06,4.05a1.71,1.71,0,0,1-.75.8,2.89,2.89,0,0,1-1.38.29H82.54V24.82H84.8a2.87,2.87,0,0,1,1.38.28,1.75,1.75,0,0,1,.76.79,2.85,2.85,0,0,1,0,2.29Z"/><polygon class="cls-2" points="89.16 23.68 89.16 34.28 95.38 34.28 95.38 33.14 90.44 33.14 90.44 23.68 89.16 23.68"/><polygon class="cls-2" points="99.14 28.63 99.01 28.63 96.06 23.68 94.6 23.68 98.43 29.91 98.43 34.28 99.71 34.28 99.71 29.91 103.55 23.68 102.07 23.68 99.14 28.63"/><path class="cls-5" d="M53,60.16a1,1,0,0,0,1.26.75l1.12-.29.29,1.12a1,1,0,0,0,2-.51l-.29-1.13,1.13-.29a1,1,0,1,0-.52-2l-1.12.29L56.58,57a1,1,0,0,0-1.26-.74,1,1,0,0,0-.74,1.25l.29,1.13-1.13.29A1,1,0,0,0,53,60.16Z"/><path class="cls-5" d="M110.85,88.36a1,1,0,0,0,.74-1.26L111.3,86l1.13-.29a1,1,0,1,0-.52-2l-1.12.29-.29-1.13a1,1,0,0,0-1.26-.74,1,1,0,0,0-.74,1.25l.29,1.13-1.13.29a1,1,0,0,0,.52,2l1.12-.29.29,1.12A1,1,0,0,0,110.85,88.36Z"/><path class="cls-5" d="M117,41.41a1,1,0,0,0-1.25-.75l-1.13.29-.29-1.12a1,1,0,0,0-2,.51l.29,1.13-1.13.29a1,1,0,1,0,.51,2l1.13-.29.29,1.13a1,1,0,0,0,2-.51L115.18,43l1.12-.29A1,1,0,0,0,117,41.41Z"/><path class="cls-5" d="M52.66,49.39a1,1,0,0,0-1.26-.74l-1.12.29L50,47.81a1,1,0,1,0-2,.52l.29,1.12-1.13.29a1,1,0,1,0,.52,2l1.12-.29.29,1.13a1,1,0,0,0,2-.52l-.29-1.12,1.13-.29A1,1,0,0,0,52.66,49.39Z"/><path class="cls-5" d="M51.87,70.37A3.29,3.29,0,0,0,46.2,67a3.29,3.29,0,0,0,3.65,4.86A3.28,3.28,0,0,0,51.87,70.37Zm-1.78-1.05a1.24,1.24,0,0,1-1.68.43,1.17,1.17,0,0,1-.57-.75,1.23,1.23,0,0,1,.88-1.5,1.22,1.22,0,0,1,1.5.89A1.17,1.17,0,0,1,50.09,69.32Z"/><path class="cls-5" d="M110.09,50.69a3.3,3.3,0,0,0-4.51,1.16,3.26,3.26,0,0,0-.35,2.5,3.23,3.23,0,0,0,1.51,2,3.29,3.29,0,0,0,3.35-5.67Zm-.62,3.46a1.24,1.24,0,0,1-1.68.43,1.2,1.2,0,0,1-.57-.75,1.25,1.25,0,0,1,.13-.93,1.27,1.27,0,0,1,.76-.57,1.23,1.23,0,0,1,.93.13,1.25,1.25,0,0,1,.57.76A1.21,1.21,0,0,1,109.47,54.15Z"/></svg>