<svg id="ZNAP_sticker" xmlns="http://www.w3.org/2000/svg" viewBox="0 0 170.08 170.08"><defs><style>.cls-1{fill:#fff;}.cls-2{fill:#50b18b;}.cls-3{fill:#ffc20e;}.cls-4{fill:#f17528;}</style></defs><path class="cls-1" d="M162.17,86.58a6.7,6.7,0,0,0-1.43-8.22l-22.4-19.73a6.67,6.67,0,0,0-10.21,1.7C124,67.68,115,76.36,110.3,78.65a49.41,49.41,0,0,1-23.58,5.81,66,66,0,0,1-8.8-.62c-9.82-1.33-16-4.5-19.81-7.91a6.71,6.71,0,0,0,3.38-7.22V63.55A6.66,6.66,0,0,0,59,56.9L35.48,39.28a6.58,6.58,0,0,0-4-1.34A6.71,6.71,0,0,0,26,40.81L8.29,66.34a6.66,6.66,0,0,0-1,5.48v4.5a6.67,6.67,0,0,0,6.46,8.31,7.34,7.34,0,0,0,.81,0l4-.48c2.45,7,6.33,16.91,9.74,21,4.24,5.13,19.79,22.11,42,25.37a129.21,129.21,0,0,0,18.89,1.64c12.27,0,22.86-2.68,37.76-9.56,17.38-8,30.77-22.76,34.45-27.07a6.69,6.69,0,0,0,.78-7.56Zm-5.29,4.82c-3.61,4.23-16.32,18.2-32.74,25.78-21.1,9.74-32.86,10.59-53.8,7.51-19.94-2.94-34.56-18.45-38.81-23.6C28,96.77,23.2,83.25,21.77,79A1.65,1.65,0,0,0,20,77.94l-6.74.82a1.66,1.66,0,0,1-1.78-2.11h0l-.84-5.75a.35.35,0,0,1-.05-.08,2.83,2.83,0,0,1,.1-3.13L28.4,42.14a2.9,2.9,0,0,1,1.92-1.21,2.86,2.86,0,0,1,2.19.55L56,59.1A2.87,2.87,0,0,1,57.08,62a2.65,2.65,0,0,1-.42,1l-.81,5.8a1.65,1.65,0,0,1-1.21,2l-4.7,1.12a24,24,0,0,0,3.94,5c5.22,5.15,12.91,8.44,22.84,9.78C95,89.24,105.59,84,111.28,81.22s15.28-12.51,19.45-19.84a2.89,2.89,0,0,1,4.42-.74l22.39,19.73a2.88,2.88,0,0,1,1,2.15h.07l-1.31,7.65A1.64,1.64,0,0,1,156.88,91.4Z"/><path class="cls-2" d="M158.51,82.52a2.88,2.88,0,0,0-1-2.15L135.15,60.64a2.89,2.89,0,0,0-4.42.74c-4.17,7.33-13.62,17-19.45,19.84s-16.28,8-34.56,5.54C66.79,85.42,59.1,82.13,53.88,77a24,24,0,0,1-3.94-5l4.7-1.12a1.65,1.65,0,0,0,1.21-2l.81-5.8a2.65,2.65,0,0,0,.42-1A2.87,2.87,0,0,0,56,59.1L32.51,41.48a2.86,2.86,0,0,0-2.19-.55,2.9,2.9,0,0,0-1.92,1.21L10.71,67.68a2.83,2.83,0,0,0-.1,3.13.35.35,0,0,0,.05.08l.84,5.75h0a1.66,1.66,0,0,0,1.78,2.11L20,77.94A1.65,1.65,0,0,1,21.77,79c1.43,4.21,6.19,17.73,9.76,22,4.25,5.15,18.87,20.66,38.81,23.6,20.94,3.08,32.7,2.23,53.8-7.51,16.42-7.58,29.13-21.55,32.74-25.78a1.64,1.64,0,0,0,.39-1.24l1.31-7.65ZM13.13,69.72a.4.4,0,0,1-.38-.63l17.7-25.53a.36.36,0,0,1,.26-.17.44.44,0,0,1,.31.07L54.5,61.09a.39.39,0,0,1,.15.4.4.4,0,0,1-.3.31l-7,1.66a2.9,2.9,0,0,0-2.14,3.47,24.92,24.92,0,0,0,6.9,11.82c5.61,5.53,13.77,9.06,24.25,10.48A72,72,0,0,0,86,89.9a55.13,55.13,0,0,0,26.34-6.45c6.29-3.1,16.07-13,20.51-20.85a.38.38,0,0,1,.28-.19.39.39,0,0,1,.33.09l22.4,19.74a.39.39,0,0,1,0,.55c-3.49,4.08-16.12,18-32.32,25.46-21.53,9.93-33.29,10.32-53.1,7.41-20.47-3-35.27-19.82-38-23.16C29,88.33,24.31,74.87,23,70.84a2.91,2.91,0,0,0-2.74-2,1.94,1.94,0,0,0-.34,0Z"/><path class="cls-3" d="M30,67.19a1,1,0,0,0,1.36-.35.94.94,0,0,0,.11-.75,1,1,0,0,0-.46-.61,1,1,0,0,0-1.36.35,1,1,0,0,0-.11.75A1,1,0,0,0,30,67.19Z"/><path class="cls-3" d="M20.21,68.89a2.91,2.91,0,0,1,2.74,2c1.36,4,6.09,17.49,9.54,21.66,2.76,3.34,17.56,20.14,38,23.16,19.81,2.91,31.57,2.52,53.1-7.41,16.2-7.48,28.83-21.38,32.32-25.46a.39.39,0,0,0,0-.55L133.5,62.5a.39.39,0,0,0-.33-.09.38.38,0,0,0-.28.19c-4.44,7.82-14.22,17.75-20.51,20.85A55.13,55.13,0,0,1,86,89.9a72,72,0,0,1-9.65-.67c-10.48-1.42-18.64-5-24.25-10.48a24.92,24.92,0,0,1-6.9-11.82,2.9,2.9,0,0,1,2.14-3.47l7-1.66a.4.4,0,0,0,.3-.31.39.39,0,0,0-.15-.4L31,43.46a.44.44,0,0,0-.31-.07.36.36,0,0,0-.26.17L12.75,69.09a.4.4,0,0,0,.38.63l6.74-.81A1.94,1.94,0,0,1,20.21,68.89Zm102.68,33.89L117.26,90l-4.52,2-.68-1.54,10.77-4.73.67,1.54-4.5,2L124.62,102Zm8-4L123,85.29l1.63-1,7.9,13.53Zm12.05-10a6.06,6.06,0,0,1-.84,2,7,7,0,0,1-1.51,1.67A6.6,6.6,0,0,1,137.22,94a6.71,6.71,0,0,1-3.67-.62,10.69,10.69,0,0,1-5.38-6.66,6.68,6.68,0,0,1,.17-3.72,6.58,6.58,0,0,1,2.16-3,7.22,7.22,0,0,1,1.94-1.13,6.4,6.4,0,0,1,2.1-.4,5.69,5.69,0,0,1,2.11.37A6.25,6.25,0,0,1,138.6,80l-1.47,1.19a4,4,0,0,0-1.36-.76,4,4,0,0,0-1.44-.18,4.44,4.44,0,0,0-1.43.33,5.13,5.13,0,0,0-2.85,3,5,5,0,0,0-.09,2.8,7.91,7.91,0,0,0,1.64,3.11,7.8,7.8,0,0,0,2.68,2.24,5,5,0,0,0,2.76.5,4.92,4.92,0,0,0,2.46-1.06,5.34,5.34,0,0,0,1-1.11,4.43,4.43,0,0,0,.62-1.32,4.14,4.14,0,0,0,.13-1.45,4.25,4.25,0,0,0-.45-1.49l1.47-1.19a6.18,6.18,0,0,1,.75,2.17A5.65,5.65,0,0,1,143,88.84Zm.75-6.68-8.36-6.56L136.63,74l8.2,6.75Zm4.59,2.54a1.3,1.3,0,0,1-.92.51,1.35,1.35,0,0,1-1-.3,1.31,1.31,0,0,1-.5-.92,1.35,1.35,0,0,1,.29-1,1.38,1.38,0,1,1,2.15,1.72Zm-43.64,8a6.61,6.61,0,0,1,2.47-1.24,6.34,6.34,0,0,1,2.74-.19,4.89,4.89,0,0,1,2.2.92A3.64,3.64,0,0,1,113.33,94l-1.78.49A2.39,2.39,0,0,0,110,93.09a4.31,4.31,0,0,0-2.49,0,4.54,4.54,0,0,0-1.65.8,2.87,2.87,0,0,0-.92,1.22,2.13,2.13,0,0,0-.06,1.41,1.76,1.76,0,0,0,.85,1.15,3.61,3.61,0,0,0,1.39.45c.51,0,1,.08,1.36.09h1.64c.42,0,.9,0,1.44.08a6.66,6.66,0,0,1,1.6.35,4,4,0,0,1,1.44.89,3.5,3.5,0,0,1,.92,1.67,4,4,0,0,1,0,2.38,4.61,4.61,0,0,1-1.42,2.08,8.12,8.12,0,0,1-5.76,1.65,4.57,4.57,0,0,1-2.26-1,4.27,4.27,0,0,1-1.36-2l1.88-.52a2.48,2.48,0,0,0,1,1.25,3.17,3.17,0,0,0,1.51.48,5.36,5.36,0,0,0,1.76-.18,5.15,5.15,0,0,0,1.79-.87,3.31,3.31,0,0,0,1.06-1.32,2.4,2.4,0,0,0,.09-1.59,1.83,1.83,0,0,0-.76-1.1,3.33,3.33,0,0,0-1.32-.45A12,12,0,0,0,110,100l-2,0a7.18,7.18,0,0,1-3.2-.69,3.33,3.33,0,0,1-1.71-2.2,3.78,3.78,0,0,1,.07-2.4A4.72,4.72,0,0,1,104.66,92.71ZM96.77,93.9l7.94,14.68-2,.28-2.2-4.16-6.27.91-.91,4.62-2,.29,3.44-16.34Zm-21.28-.51c2.86.36,4.16,1.6,4.65,3.18l-.07-1.2,11.74-.68.1,1.68L87,96.66l.81,14-1.89.11-.81-14-4.84.28a8.53,8.53,0,0,1,0,2.72c-.4,3.13-2,5.31-6.07,4.8l-1.77-.22c-.24,0-.35.05-.38.29l-.64,5a.44.44,0,0,1-.54.42l-2.66-.33a.44.44,0,0,1-.42-.54l1.44-11.48C69.68,94.44,71.27,92.86,75.49,93.39Zm-11.64-3A1.91,1.91,0,0,1,65,91.48l1.46,3.71a3.92,3.92,0,0,1,0,3.25l-4.06,9.45a.45.45,0,0,1-.64.25l-2.47-1.06a.44.44,0,0,1-.25-.64l1.2-2.8a.21.21,0,0,0-.12-.31L57,102a.21.21,0,0,0-.31.12l-1.21,2.8a.43.43,0,0,1-.63.26l-2.47-1.06a.43.43,0,0,1-.25-.64l4-9.44a3.83,3.83,0,0,1,2.33-2.24l3.81-1.5A2,2,0,0,1,63.85,90.37ZM50.42,81.22l1,.9a.6.6,0,0,1,.24.64l-2.18,8.8c-.06.21.12.3.26.14L55,85.82a.32.32,0,0,1,.46,0l2.21,2a.34.34,0,0,1,0,.48L47.54,99.6a1.19,1.19,0,0,1-1.88.1l-.86-.78a.45.45,0,0,1-.2-.46l2.25-9.39c0-.23-.1-.29-.24-.13l-5.54,6.18a.35.35,0,0,1-.48,0l-2.22-2a.34.34,0,0,1,0-.48L48.54,81.32A1.19,1.19,0,0,1,50.42,81.22ZM48.51,78.8c.56.85.46,1.32-.39,1.88l-1.6,1a1.07,1.07,0,0,1-.69.24l-11.41-.33c-.14,0-.26.08-.13.29l3.28,5a.43.43,0,0,1-.14.67l-2,1.28a.43.43,0,0,1-.67-.14L30,81.47a1.15,1.15,0,0,1,.4-1.87l1.66-1.08a1.94,1.94,0,0,1,1.06-.29l10.89.19c.23,0,.23-.09.12-.25l-3-4.63a.44.44,0,0,1,.14-.67l2-1.26a.43.43,0,0,1,.67.14ZM35.22,61.41l.91-.24-.23-.91a.82.82,0,0,1,.59-1,.83.83,0,0,1,1,.6l.23.91.92-.24a.84.84,0,0,1,.41,1.62l-.91.23.23.91a.83.83,0,1,1-1.61.42l-.24-.91-.91.23a.83.83,0,0,1-.41-1.61Zm-5.69-8.15.91-.24-.23-.91a.83.83,0,1,1,1.61-.41l.24.91.91-.24A.84.84,0,0,1,33.38,54l-.91.23.24.91a.84.84,0,1,1-1.62.42l-.23-.91-.91.23a.83.83,0,1,1-.42-1.61ZM28.16,65A2.68,2.68,0,0,1,31.81,64,2.62,2.62,0,0,1,33,65.67a2.64,2.64,0,0,1-.28,2,2.62,2.62,0,0,1-1.63,1.22,2.64,2.64,0,0,1-2-.28A2.62,2.62,0,0,1,27.88,67,2.64,2.64,0,0,1,28.16,65Z"/><path class="cls-3" d="M62.36,94.26a.26.26,0,0,0-.12-.13.2.2,0,0,0-.19,0l-2,.75a.77.77,0,0,0-.46.46l-1.43,3.31a.24.24,0,0,0,.13.32l3,1.31a.22.22,0,0,0,.31-.13l1.44-3.33a.77.77,0,0,0,0-.63Z"/><path class="cls-3" d="M75.08,96.66c-1.54-.2-2,.06-2.19,1.5l-.32,2.57c0,.22.06.32.3.35l1.56.2c1.58.2,2.12-.61,2.29-2C76.92,97.77,76.74,96.86,75.08,96.66Z"/><polygon class="cls-3" points="96.08 96.51 94.63 103.86 99.72 103.12 96.21 96.49 96.08 96.51"/><path class="cls-1" d="M43.25,71.61l-2,1.26a.44.44,0,0,0-.14.67l3,4.63c.11.16.11.24-.12.25l-10.89-.19a1.94,1.94,0,0,0-1.06.29L30.44,79.6a1.15,1.15,0,0,0-.4,1.87l4.76,7.3a.43.43,0,0,0,.67.14l2-1.28a.43.43,0,0,0,.14-.67l-3.28-5c-.13-.21,0-.29.13-.29L45.83,82a1.07,1.07,0,0,0,.69-.24l1.6-1c.85-.56,1-1,.39-1.88l-4.59-7A.43.43,0,0,0,43.25,71.61Z"/><path class="cls-1" d="M48.54,81.32,38.35,92.68a.34.34,0,0,0,0,.48l2.22,2a.35.35,0,0,0,.48,0l5.54-6.18c.14-.16.28-.1.24.13L44.6,98.46a.45.45,0,0,0,.2.46l.86.78a1.19,1.19,0,0,0,1.88-.1l10.2-11.36a.34.34,0,0,0,0-.48l-2.21-2a.32.32,0,0,0-.46,0L49.75,91.7c-.14.16-.32.07-.26-.14l2.18-8.8a.6.6,0,0,0-.24-.64l-1-.9A1.19,1.19,0,0,0,48.54,81.32Z"/><path class="cls-1" d="M58.51,91.82a3.83,3.83,0,0,0-2.33,2.24l-4,9.44a.43.43,0,0,0,.25.64l2.47,1.06a.43.43,0,0,0,.63-.26l1.21-2.8A.21.21,0,0,1,57,102l3,1.31a.21.21,0,0,1,.12.31l-1.2,2.8a.44.44,0,0,0,.25.64l2.47,1.06a.45.45,0,0,0,.64-.25l4.06-9.45a3.92,3.92,0,0,0,0-3.25L65,91.48a1.91,1.91,0,0,0-1.1-1.11,2,2,0,0,0-1.53-.05Zm4.6,5-1.44,3.33a.22.22,0,0,1-.31.13l-3-1.31a.24.24,0,0,1-.13-.32l1.43-3.31a.77.77,0,0,1,.46-.46l2-.75a.2.2,0,0,1,.19,0,.26.26,0,0,1,.12.13l.75,1.93A.77.77,0,0,1,63.11,96.82Z"/><path class="cls-1" d="M69.26,97.75l-1.44,11.48a.44.44,0,0,0,.42.54l2.66.33a.44.44,0,0,0,.54-.42l.64-5c0-.24.14-.32.38-.29l1.77.22c4.06.51,5.67-1.67,6.07-4.8a8.53,8.53,0,0,0,0-2.72l4.84-.28.81,14,1.89-.11-.81-14,4.92-.29-.1-1.68-11.74.68.07,1.2c-.49-1.58-1.79-2.82-4.65-3.18C71.27,92.86,69.68,94.44,69.26,97.75Zm7.46,1.58c-.17,1.34-.71,2.15-2.29,2l-1.56-.2c-.24,0-.33-.13-.3-.35l.32-2.57c.18-1.44.65-1.7,2.19-1.5S76.92,97.77,76.72,99.33Z"/><path class="cls-1" d="M91.39,110.52l2-.29.91-4.62,6.27-.91,2.2,4.16,2-.28L96.77,93.9l-1.94.28Zm3.24-6.66,1.45-7.35.13,0,3.51,6.63Z"/><path class="cls-1" d="M103.21,94.7a3.78,3.78,0,0,0-.07,2.4,3.33,3.33,0,0,0,1.71,2.2,7.18,7.18,0,0,0,3.2.69l2,0a12,12,0,0,1,1.63.11,3.33,3.33,0,0,1,1.32.45,1.83,1.83,0,0,1,.76,1.1,2.4,2.4,0,0,1-.09,1.59,3.31,3.31,0,0,1-1.06,1.32,5.15,5.15,0,0,1-1.79.87,5.36,5.36,0,0,1-1.76.18,3.17,3.17,0,0,1-1.51-.48,2.48,2.48,0,0,1-1-1.25l-1.88.52a4.27,4.27,0,0,0,1.36,2,4.57,4.57,0,0,0,2.26,1,8.12,8.12,0,0,0,5.76-1.65,4.61,4.61,0,0,0,1.42-2.08,4,4,0,0,0,0-2.38,3.5,3.5,0,0,0-.92-1.67,4,4,0,0,0-1.44-.89,6.66,6.66,0,0,0-1.6-.35c-.54,0-1-.08-1.44-.08h-1.64c-.4,0-.85,0-1.36-.09a3.61,3.61,0,0,1-1.39-.45,1.76,1.76,0,0,1-.85-1.15,2.13,2.13,0,0,1,.06-1.41,2.87,2.87,0,0,1,.92-1.22,4.54,4.54,0,0,1,1.65-.8,4.31,4.31,0,0,1,2.49,0,2.39,2.39,0,0,1,1.55,1.44l1.78-.49a3.64,3.64,0,0,0-1.26-1.84,4.89,4.89,0,0,0-2.2-.92,6.34,6.34,0,0,0-2.74.19,6.61,6.61,0,0,0-2.47,1.24A4.72,4.72,0,0,0,103.21,94.7Z"/><polygon class="cls-1" points="123.5 87.23 122.83 85.69 112.06 90.42 112.74 91.96 117.26 89.97 122.89 102.78 124.63 102.02 119 89.21 123.5 87.23"/><rect class="cls-1" x="126.83" y="83.75" width="1.89" height="15.67" transform="translate(-28.74 76.89) rotate(-30.27)"/><path class="cls-1" d="M142.29,84.54l-1.47,1.19a4.25,4.25,0,0,1,.45,1.49,4.14,4.14,0,0,1-.13,1.45,4.43,4.43,0,0,1-.62,1.32,5.34,5.34,0,0,1-1,1.11A4.92,4.92,0,0,1,137,92.16a5,5,0,0,1-2.76-.5,7.8,7.8,0,0,1-2.68-2.24A7.91,7.91,0,0,1,130,86.31a5,5,0,0,1,.09-2.8,5.13,5.13,0,0,1,2.85-3,4.44,4.44,0,0,1,1.43-.33,4,4,0,0,1,1.44.18,4,4,0,0,1,1.36.76L138.6,80a6.25,6.25,0,0,0-1.95-1.19,5.69,5.69,0,0,0-2.11-.37,6.4,6.4,0,0,0-2.1.4A7.22,7.22,0,0,0,130.5,80a6.58,6.58,0,0,0-2.16,3,6.68,6.68,0,0,0-.17,3.72,10.69,10.69,0,0,0,5.38,6.66,6.71,6.71,0,0,0,3.67.62,6.6,6.6,0,0,0,3.39-1.48,7,7,0,0,0,1.51-1.67,6.06,6.06,0,0,0,.84-2,5.65,5.65,0,0,0,.08-2.13A6.18,6.18,0,0,0,142.29,84.54Z"/><polygon class="cls-1" points="135.35 75.6 143.71 82.16 144.83 80.76 136.63 74.01 135.35 75.6"/><path class="cls-1" d="M148.09,82.77a1.37,1.37,0,0,0-1.94.21,1.35,1.35,0,0,0-.29,1,1.31,1.31,0,0,0,.5.92,1.35,1.35,0,0,0,1,.3,1.39,1.39,0,0,0,1.22-1.52A1.32,1.32,0,0,0,148.09,82.77Z"/><path class="cls-4" d="M35.63,63l.91-.23.24.91a.83.83,0,1,0,1.61-.42l-.23-.91.91-.23a.84.84,0,0,0-.41-1.62l-.92.24-.23-.91a.83.83,0,0,0-1-.6.82.82,0,0,0-.59,1l.23.91-.91.24A.83.83,0,0,0,35.63,63Z"/><path class="cls-4" d="M30,54.87l.91-.23.23.91a.84.84,0,1,0,1.62-.42l-.24-.91.91-.23A.84.84,0,0,0,33,52.37l-.91.24-.24-.91a.83.83,0,1,0-1.61.41l.23.91-.91.24A.83.83,0,1,0,30,54.87Z"/><path class="cls-4" d="M29.1,68.63a2.64,2.64,0,0,0,2,.28,2.62,2.62,0,0,0,1.63-1.22,2.64,2.64,0,0,0,.28-2A2.62,2.62,0,0,0,31.81,64a2.68,2.68,0,0,0-3.65.94,2.64,2.64,0,0,0-.28,2A2.62,2.62,0,0,0,29.1,68.63Zm.5-2.8A1,1,0,0,1,31,65.48a1,1,0,0,1,.46.61.94.94,0,0,1-.11.75,1,1,0,0,1-1.36.35,1,1,0,0,1-.46-.61A1,1,0,0,1,29.6,65.83Z"/></svg>