<svg id="ZNAP_sticker" xmlns="http://www.w3.org/2000/svg" viewBox="0 0 170.08 170.08"><defs><style>.cls-1{fill:#fff;}.cls-2{fill:#50b18b;}.cls-3{fill:#146f81;}.cls-4{fill:#ffc20e;}</style></defs><path class="cls-1" d="M162.68,75.53a7.35,7.35,0,0,0-6.75-5.11c-7.51-.53-14.92-.78-23.32-.78-3.7,0-7.23,0-10.63.09s-6.32.08-9.41.08a183.53,183.53,0,0,1-23.15-1.26c-14-1.74-23.14-8.13-29.15-12.35-.94-.66-1.79-1.26-2.59-1.8a7.53,7.53,0,0,0-6.19-4h-.1c-1.4,0-2,0-9.51,4.45-7.17,4.27-7.56,4.84-8.16,5.7L8.47,96.59a7.71,7.71,0,0,0-1,6.8,7.39,7.39,0,0,0,4.71,4.77A25,25,0,0,1,15,109.55c6.54,3.55,18.71,10.14,46.92,10.14,2.43,0,5,0,7.52-.14,23.77-.92,42.39-5.71,58.55-15.08C141,99,149.68,92.05,157.39,86l2.05-1.63C162.39,82,163.63,78.64,162.68,75.53Zm-6.15,5.83c-.68.53-1.36,1.06-2,1.61-9.69,7.66-21,16.58-40.1,22.12-11.26,4.79-25.77,8.41-45.76,9.18-39.29,1.51-49.88-9.27-55.34-11.11a2.33,2.33,0,0,1-1.07-3.54L37.47,63.56c.29-.43,5.62-3.7,9.46-5.9l.32-.46a3.84,3.84,0,0,1,3.23-1.64c1.78,0,3.88,1.51,7.06,3.74,5.93,4.17,15.86,11.15,30.85,13,11.91,1.48,22.18,1.34,33.05,1.21,9.54-.12,20.34-.26,33.66.68a3.61,3.61,0,0,1,3.38,2.44C159,78.24,158.24,80,156.53,81.36Z"/><path class="cls-2" d="M154.89,77.17c-13.2-.93-23.47-.8-33.41-.68-11,.14-21.35.28-33.46-1.23-15.72-2-26-9.19-32.2-13.52-2.33-1.64-4.53-3.18-5.4-3.2h0a.89.89,0,0,0-.71.37L24.45,95a.93.93,0,0,0-.12.81.73.73,0,0,0,.44.46,26.64,26.64,0,0,1,3.85,1.86c6.71,3.64,19.19,10.4,51,9.18,41.37-1.59,58.94-15.49,73.06-26.65L154.69,79c.83-.65,1-1.25.95-1.5S155.29,77.2,154.89,77.17ZM41,82.4l.84-.31-.31-.84a.81.81,0,0,1,.48-1,.79.79,0,0,1,1,.48l.31.84.85-.31a.8.8,0,0,1,.55,1.5L43.9,83l.31.85a.8.8,0,0,1-.47,1,.81.81,0,0,1-1-.47l-.31-.85-.84.31A.8.8,0,0,1,41,82.4Zm-6.69,9.91-.84.31.31.85a.8.8,0,0,1-1.5.55L32,93.17l-.85.31a.8.8,0,0,1-1-.47.81.81,0,0,1,.47-1l.85-.31-.31-.84a.8.8,0,0,1,1.5-.55l.31.84.84-.31a.8.8,0,0,1,.55,1.5ZM63.91,80.16,48.16,93.36c-.18.18-.25.43.17.55l10.45,2.85a.78.78,0,0,1,.61,1.07l-1.11,4.07a.78.78,0,0,1-1.07.61L42.1,98.38c-1.68-.45-2.17-1.31-1.71-3L41.33,92a3.33,3.33,0,0,1,1.08-1.65L57.27,77.54c.3-.28.2-.4-.14-.49l-9.57-2.62A.78.78,0,0,1,47,73.36l1.1-4a.79.79,0,0,1,1.07-.61l14.61,4c1.76.49,2.19,1.23,1.71,3L64.53,79A1.89,1.89,0,0,1,63.91,80.16Zm19.9,22.36a1.9,1.9,0,0,1-2.29,2l-1.87-.14c-.38,0-.61-.16-.71-.4L72.6,89.78c-.17-.33-.4-.27-.43.08l-1,13.3a.56.56,0,0,1-.58.51l-4.77-.36a.54.54,0,0,1-.5-.59l1.85-24.47a1.9,1.9,0,0,1,2.29-2l2.17.16a1,1,0,0,1,.94.58l5.85,13.35c.13.32.45.27.48-.08l1-12.68a.54.54,0,0,1,.55-.51l4.77.36a.56.56,0,0,1,.5.59Zm19.67-.45-3.49.12a.55.55,0,0,1-.65-.6l-.15-4a.28.28,0,0,0-.32-.31l-4.31.16a.28.28,0,0,0-.3.33l.14,4a.56.56,0,0,1-.6.65l-3.49.13a.57.57,0,0,1-.65-.61l-.49-13.36a4.89,4.89,0,0,1,1.49-3.92l3.64-3.88A2.74,2.74,0,0,1,98,80.67l3.78,3.55a5.12,5.12,0,0,1,1.78,3.84l.49,13.35A.58.58,0,0,1,103.48,102.07Zm10.37-9.33-1.93.29c-.27,0-.35.16-.32.42l.81,5.49a.48.48,0,0,1-.45.6l-2.9.42a.47.47,0,0,1-.6-.44L106.63,87c-.53-3.61.68-5.74,5.28-6.41,5-.74,6.46,2.15,6.92,5.32C119.33,89.32,118.27,92.1,113.85,92.74ZM133.14,87l-.85.31.31.85a.8.8,0,0,1-1.5.55l-.31-.85-.84.31a.8.8,0,1,1-.55-1.5l.84-.31-.31-.84a.8.8,0,0,1,.48-1,.79.79,0,0,1,1,.48l.31.84.85-.31a.8.8,0,0,1,.55,1.5Zm10.07-4.13a2.53,2.53,0,0,1-1.44,1.32,2.49,2.49,0,0,1-2-.08,2.54,2.54,0,0,1-1.32-1.43,2.58,2.58,0,0,1,.08-2,2.56,2.56,0,0,1,4.71.19A2.58,2.58,0,0,1,143.21,82.83Z"/><path class="cls-2" d="M141.29,80.89a1,1,0,0,0-.72,0,1,1,0,0,0-.54.5.93.93,0,0,0,0,.73.91.91,0,0,0,.49.53,1,1,0,1,0,.8-1.73Z"/><path class="cls-2" d="M98.5,87.23l-2-1.84a.35.35,0,0,0-.22-.09.25.25,0,0,0-.22.1l-1.91,2a1,1,0,0,0-.28.8l.17,4.68a.31.31,0,0,0,.32.31L98.71,93a.3.3,0,0,0,.3-.33L98.84,88A1,1,0,0,0,98.5,87.23Z"/><path class="cls-2" d="M112.43,84.17c-1.67.24-2.09.65-1.86,2.22l.41,2.8c0,.23.15.32.42.28l1.7-.25c1.72-.25,2.05-1.26,1.84-2.72C114.69,84.8,114.24,83.9,112.43,84.17Z"/><path class="cls-3" d="M155.1,74.2c-13.32-.94-24.12-.8-33.66-.68-10.87.13-21.14.27-33-1.21-15-1.86-24.92-8.84-30.85-13-3.18-2.23-5.28-3.7-7.06-3.74a3.84,3.84,0,0,0-3.23,1.64s-9.49,5.93-9.78,6.36L12.22,99.62c-.87,1.25-.19,2.68,1.07,3.54.61.41,16.05,12.62,55.34,11.11,20-.77,34.5-4.39,45.76-9.18,19.13-5.54,30.41-14.46,40.1-22.12.68-.55,1.36-1.08,2-1.61,1.71-1.35,2.45-3.12,1.95-4.72A3.61,3.61,0,0,0,155.1,74.2ZM154.69,79l-2.05,1.62C138.52,91.79,121,105.69,79.58,107.28c-31.77,1.22-44.25-5.54-51-9.18a26.64,26.64,0,0,0-3.85-1.86.73.73,0,0,1-.44-.46.93.93,0,0,1,.12-.81L49.69,58.91a.89.89,0,0,1,.71-.37h0c.87,0,3.07,1.56,5.4,3.2C62,66.07,72.3,73.31,88,75.26c12.11,1.51,22.48,1.37,33.46,1.23,9.94-.12,20.21-.25,33.41.68.4,0,.69.16.75.34S155.52,78.36,154.69,79Z"/><path class="cls-4" d="M33.77,90.81l-.84.31-.31-.84a.8.8,0,0,0-1.5.55l.31.84-.85.31a.81.81,0,0,0-.47,1,.8.8,0,0,0,1,.47l.85-.31.31.85a.8.8,0,0,0,1.5-.55l-.31-.85.84-.31a.8.8,0,0,0-.55-1.5Z"/><path class="cls-4" d="M132.59,85.46l-.85.31-.31-.84a.79.79,0,0,0-1-.48.8.8,0,0,0-.48,1l.31.84-.84.31a.8.8,0,1,0,.55,1.5l.84-.31.31.85a.8.8,0,0,0,1.5-.55l-.31-.85.85-.31a.8.8,0,0,0-.55-1.5Z"/><path class="cls-4" d="M41.56,83.9l.84-.31.31.85a.81.81,0,0,0,1,.47.8.8,0,0,0,.47-1L43.9,83l.85-.31a.8.8,0,0,0-.55-1.5l-.85.31L43,80.7a.79.79,0,0,0-1-.48.81.81,0,0,0-.48,1l.31.84L41,82.4a.8.8,0,0,0,.55,1.5Z"/><path class="cls-4" d="M142,79.45a2.54,2.54,0,0,0-3.38,1.24,2.58,2.58,0,0,0-.08,2,2.54,2.54,0,0,0,1.32,1.43,2.49,2.49,0,0,0,2,.08,2.53,2.53,0,0,0,1.44-1.32,2.58,2.58,0,0,0,.08-2A2.53,2.53,0,0,0,142,79.45Zm-.2,2.71a1,1,0,0,1-1.27.46.91.91,0,0,1-.49-.53.93.93,0,0,1,0-.73,1,1,0,0,1,.54-.5,1,1,0,0,1,.72,0,1,1,0,0,1,.5.54A1,1,0,0,1,141.76,82.16Z"/><path class="cls-1" d="M63.73,72.71l-14.61-4a.79.79,0,0,0-1.07.61l-1.1,4a.78.78,0,0,0,.61,1.07l9.57,2.62c.34.09.44.21.14.49L42.41,90.3A3.33,3.33,0,0,0,41.33,92l-.94,3.44c-.46,1.68,0,2.54,1.71,3l15.11,4.13a.78.78,0,0,0,1.07-.61l1.11-4.07a.78.78,0,0,0-.61-1.07L48.33,93.91c-.42-.12-.35-.37-.17-.55l15.75-13.2A1.89,1.89,0,0,0,64.53,79l.91-3.31C65.92,73.94,65.49,73.2,63.73,72.71Z"/><path class="cls-1" d="M85.16,77.46l-4.77-.36a.54.54,0,0,0-.55.51l-1,12.68c0,.35-.35.4-.48.08L72.56,77a1,1,0,0,0-.94-.58l-2.17-.16a1.9,1.9,0,0,0-2.29,2l-1.85,24.47a.54.54,0,0,0,.5.59l4.77.36a.56.56,0,0,0,.58-.51l1-13.3c0-.35.26-.41.43-.08L78.94,104c.1.24.33.37.71.4l1.87.14a1.9,1.9,0,0,0,2.29-2l1.85-24.47A.56.56,0,0,0,85.16,77.46Z"/><path class="cls-1" d="M101.82,84.22,98,80.67a2.74,2.74,0,0,0-3.74.11l-3.64,3.88a4.89,4.89,0,0,0-1.49,3.92l.49,13.36a.57.57,0,0,0,.65.61l3.49-.13a.56.56,0,0,0,.6-.65l-.14-4a.28.28,0,0,1,.3-.33l4.31-.16a.28.28,0,0,1,.32.31l.15,4a.55.55,0,0,0,.65.6l3.49-.12a.58.58,0,0,0,.61-.66l-.49-13.35A5.12,5.12,0,0,0,101.82,84.22ZM98.71,93l-4.31.16a.31.31,0,0,1-.32-.31l-.17-4.68a1,1,0,0,1,.28-.8l1.91-2a.25.25,0,0,1,.22-.1.35.35,0,0,1,.22.09l2,1.84a1,1,0,0,1,.34.75L99,92.69A.3.3,0,0,1,98.71,93Z"/><path class="cls-1" d="M111.91,80.61c-4.6.67-5.81,2.8-5.28,6.41l1.83,12.5a.47.47,0,0,0,.6.44l2.9-.42a.48.48,0,0,0,.45-.6l-.81-5.49c0-.26.05-.38.32-.42l1.93-.29c4.42-.64,5.48-3.42,5-6.81C118.37,82.76,117,79.87,111.91,80.61Zm1.19,8.61-1.7.25c-.27,0-.39,0-.42-.28l-.41-2.8c-.23-1.57.19-2,1.86-2.22s2.26.63,2.51,2.33C115.15,88,114.82,89,113.1,89.22Z"/></svg>